<svg xmlns="http://www.w3.org/2000/svg" viewBox="0 0 640 640"><!--! Font Awesome Pro 7.1.0 by @fontawesome - https://fontawesome.com License - https://fontawesome.com/license (Commercial License) Copyright 2025 Fonticons, Inc. --><path opacity=".4" fill="currentColor" d="M112 298.9L112 341.1L158.6 352.4C166.6 354.3 173.1 360.3 175.7 368.1C178 374.9 180.7 381.6 183.9 388C187.6 395.4 187.2 404.2 182.9 411.3L157.9 452.2L187.7 482L228.6 457C235.7 452.7 244.5 452.3 251.9 456C258.3 459.2 264.9 462 271.8 464.2C279.7 466.8 285.6 473.3 287.5 481.3L298.8 527.9L341 527.9L352.3 481.3C354.2 473.3 360.2 466.8 368 464.2C374.8 461.9 381.5 459.2 387.9 456C395.3 452.3 404.1 452.7 411.2 457L452.1 482L481.9 452.2L456.9 411.3C452.6 404.2 452.2 395.4 455.9 388C459.1 381.6 461.9 375 464.1 368.1C466.7 360.3 473.2 354.3 481.2 352.4L527.8 341.1L527.8 298.9L481.2 287.6C473.2 285.7 466.7 279.7 464.1 271.9C461.8 265.1 459.1 258.4 455.9 252C452.2 244.6 452.6 235.8 456.9 228.7L481.9 187.8L452.1 158L411.2 183C404.1 187.3 395.3 187.7 387.9 184C381.5 180.8 374.9 178 368 175.8C360.2 173.2 354.2 166.7 352.3 158.7L341 112.1L298.8 112.1L287.5 158.7C285.6 166.7 279.6 173.2 271.8 175.8C265 178.1 258.3 180.8 251.9 184C244.5 187.7 235.7 187.3 228.6 183L187.7 158L157.9 187.8L182.9 228.7C187.2 235.8 187.6 244.6 183.9 252C180.7 258.4 177.9 265 175.7 271.9C173.1 279.8 166.6 285.7 158.6 287.6L112 298.9zM416 320C416 373 373 416 320 416C267 416 224 373 224 320C224 267 267 224 320 224C373 224 416 267 416 320z"/><path fill="currentColor" d="M320 224C267 224 224 267 224 320C224 373 267 416 320 416C373 416 416 373 416 320C416 267 373 224 320 224zM368 320C368 346.5 346.5 368 320 368C293.5 368 272 346.5 272 320C272 293.5 293.5 272 320 272C346.5 272 368 293.5 368 320zM298.9 64C276.7 64 257.4 79.2 252.2 100.7L243.9 134.9L242.8 135.3L212.8 116.9C193.9 105.3 169.5 108.2 153.8 123.9L124.1 153.9C108.4 169.6 105.5 194 117.1 212.9L135.5 242.9L135.1 244L100.9 252.3C79.2 257.4 64 276.7 64 298.9L64 341.1C64 363.3 79.2 382.6 100.7 387.8L134.9 396.1L135.3 397.2L116.9 427.2C105.3 446.1 108.2 470.5 123.9 486.2L153.7 516C169.4 531.7 193.8 534.6 212.7 523L242.7 504.6L243.8 505L252.1 539.2C257.3 560.8 276.6 575.9 298.8 575.9L341 575.9C363.2 575.9 382.5 560.7 387.7 539.2L396 505L397.1 504.6L427.1 523C446 534.6 470.4 531.7 486.1 516L515.9 486.2C531.6 470.5 534.5 446.1 522.9 427.2L504.5 397.2L504.9 396.1L539.1 387.8C560.7 382.6 575.8 363.3 575.8 341.1L575.8 298.9C575.8 276.7 560.6 257.4 539.1 252.2L504.9 243.9L504.5 242.8L522.9 212.8C534.5 193.9 531.6 169.5 515.9 153.8L486.1 124.1C470.4 108.4 446 105.5 427.1 117.1L397.1 135.5L396 135.1L387.7 100.9C382.6 79.2 363.3 64 341.1 64L298.9 64zM298.9 112L341.1 112L352.4 158.6C354.3 166.6 360.3 173.1 368.1 175.7C374.9 178 381.6 180.7 388 183.9C395.4 187.6 404.2 187.2 411.3 182.9L452.2 157.9L482 187.7L457 228.6C452.7 235.7 452.3 244.5 456 251.9C459.2 258.3 462 264.9 464.2 271.8C466.8 279.7 473.3 285.6 481.3 287.5L527.9 298.8L527.9 341L481.3 352.3C473.3 354.2 466.8 360.2 464.2 368C461.9 374.8 459.2 381.5 456 387.9C452.3 395.3 452.7 404.1 457 411.2L482 452.1L452.2 481.9L411.3 456.9C404.2 452.6 395.4 452.2 388 455.9C381.6 459.1 375 461.9 368.1 464.1C360.3 466.7 354.3 473.2 352.4 481.2L341.1 527.8L298.9 527.8L287.6 481.2C285.7 473.2 279.7 466.7 271.9 464.1C265.1 461.8 258.4 459.1 252 455.9C244.6 452.2 235.8 452.6 228.7 456.9L187.8 481.9L158 452.1L183 411.2C187.3 404.1 187.7 395.3 184 387.9C180.8 381.5 178 374.9 175.8 368C173.2 360.2 166.7 354.2 158.7 352.3L112.1 341L112.1 298.8L158.7 287.5C166.7 285.6 173.2 279.6 175.8 271.8C178.1 265 180.8 258.3 184 251.9C187.7 244.5 187.3 235.7 183 228.6L158 187.7L187.8 157.9L228.7 182.9C235.8 187.2 244.6 187.6 252 183.9C258.4 180.7 265 177.9 271.9 175.7C279.8 173.1 285.7 166.6 287.6 158.6L298.9 112z"/></svg>