<svg xmlns="http://www.w3.org/2000/svg" viewBox="0 0 640 640"><!--! Font Awesome Pro 7.1.0 by @fontawesome - https://fontawesome.com License - https://fontawesome.com/license (Commercial License) Copyright 2025 Fonticons, Inc. --><path opacity=".4" fill="currentColor" d="M116.2 235.4L163.5 306.7C168.8 314.7 168.8 325.2 163.5 333.2L116.2 404.5L200.1 421.5C209.6 423.4 216.9 430.8 218.9 440.3L235.9 524.2L307.2 476.9C315.2 471.6 325.7 471.6 333.7 476.9L405 524.2L422 440.3C423.9 430.8 431.3 423.5 440.8 421.5L524.7 404.5L477.4 333.2C472.1 325.2 472.1 314.7 477.4 306.7L524.7 235.4L440.8 218.4C431.3 216.5 423.9 209.1 422 199.6L405 115.7L333.7 163C325.7 168.3 315.2 168.3 307.2 163L235.9 115.7L218.9 199.6C217 209.1 209.6 216.4 200.1 218.4L116.2 235.4zM224.5 315C224.6 313.4 224.7 311.8 224.9 310.2C225.2 307 225.7 303.8 226.4 300.7C227.7 294.5 229.6 288.4 232 282.7C236.9 271.2 243.9 260.9 252.6 252.2C270 234.8 294 224.1 320.5 224.1C326.1 224.1 331.6 224.6 337 225.5C382.2 233.3 416.5 272.7 416.5 320.1C416.5 345.3 406.8 368.2 390.9 385.4C390.7 385.6 390.6 385.7 390.4 385.9C372.9 404.5 348 416.1 320.5 416.1C294 416.1 270 405.4 252.6 388C243.9 379.3 236.9 369 232 357.5C229.6 351.8 227.7 345.7 226.4 339.5C225.8 336.4 225.3 333.2 224.9 330C224.6 326.8 224.4 323.5 224.4 320.2C224.4 318.5 224.4 316.9 224.5 315.2z"/><path fill="currentColor" d="M232.6 56.1C225.9 51.7 217.5 50.9 210.1 53.9C202.7 56.9 197.4 63.5 195.9 71.3L175 174.6L71.7 195.4C63.9 197 57.3 202.4 54.3 209.7C51.3 217 52.1 225.5 56.5 232.2L114.7 320L56.5 407.8C52.1 414.5 51.3 422.9 54.3 430.3C57.3 437.7 63.9 443.1 71.7 444.6L175 465.4L195.9 568.7C197.5 576.5 202.9 583.1 210.2 586.1C217.5 589.1 226 588.3 232.7 583.9L320.5 525.7L408.3 583.9C415 588.3 423.4 589.1 430.8 586.1C438.2 583.1 443.6 576.5 445.1 568.7L466 465.5L569.2 444.6C577 443 583.6 437.6 586.6 430.3C589.6 423 588.8 414.5 584.4 407.8L526.2 320L584.4 232.2C588.8 225.5 589.6 217.1 586.6 209.7C583.6 202.3 577 196.9 569.2 195.4L465.8 174.6L445 71.3C443.4 63.5 438 57 430.6 53.9C423.2 50.8 414.8 51.7 408.1 56.1L320.4 114.3L232.6 56.1zM218.9 199.7L235.9 115.8L307.2 163.1C315.2 168.4 325.7 168.4 333.7 163.1L405 115.8L422 199.7C423.9 209.2 431.3 216.5 440.8 218.5L524.7 235.5L477.4 306.8C472.1 314.8 472.1 325.3 477.4 333.3L524.7 404.6L440.8 421.6C431.3 423.5 423.9 430.9 422 440.4L405 524.3L333.7 477C325.7 471.7 315.2 471.7 307.2 477L235.9 524.3L218.9 440.4C217 430.9 209.6 423.5 200.1 421.6L116.2 404.6L163.5 333.3C168.8 325.3 168.8 314.8 163.5 306.8L116.2 235.5L200.1 218.5C209.6 216.6 216.9 209.2 218.9 199.7zM224.4 320C224.4 373 267.4 416 320.4 416C348 416 372.8 404.4 390.3 385.8C394.3 381.5 395.7 375.4 393.8 369.8C391.9 364.2 387.2 360.1 381.3 359.1C351.2 353.9 328.3 327.6 328.3 296C328.3 279 334.9 263.6 345.7 252.1C349.7 247.8 351.1 241.7 349.2 236.1C347.3 230.5 342.6 226.4 336.8 225.4C331.4 224.5 325.9 224 320.3 224C267.3 224 224.3 267 224.3 320z"/></svg>