<svg xmlns="http://www.w3.org/2000/svg" viewBox="0 0 640 640"><!--! Font Awesome Pro 7.1.0 by @fontawesome - https://fontawesome.com License - https://fontawesome.com/license (Commercial License) Copyright 2025 Fonticons, Inc. --><path opacity=".4" fill="currentColor" d="M144 224L144 336L296 336L296 224L144 224zM144 384L144 480C144 488.8 151.2 496 160 496L296 496L296 384L144 384zM344 224L344 336L496 336L496 224L344 224zM344 384L344 496L480 496C488.8 496 496 488.8 496 480L496 384L344 384z"/><path fill="currentColor" d="M144 336L296 336L296 224L144 224L144 336zM96 384L96 160C96 124.7 124.7 96 160 96L480 96C515.3 96 544 124.7 544 160L544 480C544 515.3 515.3 544 480 544L160 544C124.7 544 96 515.3 96 480L96 384zM496 336L496 224L344 224L344 336L496 336zM496 384L344 384L344 496L480 496C488.8 496 496 488.8 496 480L496 384zM296 496L296 384L144 384L144 480C144 488.8 151.2 496 160 496L296 496z"/></svg>