<svg xmlns="http://www.w3.org/2000/svg" viewBox="0 0 640 640"><!--! Font Awesome Pro 7.1.0 by @fontawesome - https://fontawesome.com License - https://fontawesome.com/license (Commercial License) Copyright 2025 Fonticons, Inc. --><path opacity=".4" fill="currentColor" d="M64.4 480L64.4 544L512.4 544L512.4 480C512.4 444.7 483.7 416 448.4 416C444 416 439.7 416.4 435.6 417.3L416.4 421.2L416.4 376C416.4 345.1 391.3 320 360.4 320C340.5 320 323 330.4 313 346.1L295 374.6L284.3 342.6C273.7 310.8 243.7 287.9 208.4 287.9C164.2 287.9 128.4 323.7 128.4 367.9L128.4 414.6L115.6 417.2C86.4 423.1 64.4 449 64.4 479.9zM234.8 187.4L252.6 214.2C275.7 220.8 296.7 232.6 314.3 248.1C316.5 247.3 318.8 246.5 321.1 245.9C326.1 206.5 359.7 176.1 400.5 176.1C444.7 176.1 480.5 211.9 480.5 256.1C480.5 270.5 476.7 283.9 470.1 295.6C479.8 308.7 487.1 323.7 491.6 339.8L495.8 339L566.1 324.8L526.5 265L520.6 256.2L526.5 247.4L566.1 187.6L495.8 173.4L485.4 171.3L483.3 160.9L469.1 90.6L409.3 130.2L400.5 136.1L391.7 130.2L331.9 90.6L317.7 160.9L315.6 171.3L305.2 173.4L234.9 187.6z"/><path fill="currentColor" d="M490.9 37.6C486.2 40.7 456.1 60.7 400.4 97.6C344.8 60.7 314.6 40.7 309.9 37.6C308.8 43.1 301.6 78.6 288.4 144C223 157.2 187.5 164.4 182 165.5C190.4 178.2 199.8 192.3 210.2 208C224.9 208.2 239.1 210.3 252.6 214.2L234.8 187.4L305.1 173.2L315.5 171.1L317.6 160.7L331.8 90.4L391.6 130L400.4 135.9L409.2 130L469 90.4L483.2 160.7L485.3 171.1L495.7 173.2L566 187.4L526.4 247.2L520.5 256L526.4 264.8L566 324.6L495.7 338.8L491.5 339.6C491.8 340.7 492.1 341.7 492.3 342.8C507.2 347.6 521 354.7 533.4 363.7C581.3 354 609.8 348.2 618.8 346.4C615.7 341.7 595.7 311.6 558.8 255.9C595.7 200.3 615.7 170.1 618.8 165.4C613.3 164.3 577.8 157.1 512.4 143.9C499.2 78.5 492 43 490.9 37.5zM480.4 256C480.4 211.8 444.6 176 400.4 176C359.7 176 326.1 206.4 321 245.8C331.8 242.5 343.2 240.6 355 240.1C361.6 221.4 379.4 208 400.3 208C426.8 208 448.3 229.5 448.3 256C448.3 261 447.5 265.9 446.1 270.5C455.1 277.8 463.1 286.2 469.9 295.5C476.5 283.9 480.3 270.4 480.3 256zM128.4 368C128.4 323.8 164.2 288 208.4 288C243.7 288 273.7 310.9 284.3 342.7L295 374.7L313 346.2C322.9 330.5 340.5 320.1 360.4 320.1C391.3 320.1 416.4 345.2 416.4 376.1L416.4 421.3L435.6 417.4C439.7 416.6 444 416.1 448.4 416.1C483.7 416.1 512.4 444.8 512.4 480.1L512.4 544.1L64.4 544.1L64.4 480.1C64.4 449.2 86.4 423.3 115.6 417.4L128.4 414.8L128.4 368.1zM208.4 256C146.5 256 96.4 306.1 96.4 368L96.4 389.5C59.1 402.7 32.4 438.2 32.4 480L32.4 576L544.4 576L544.4 480C544.4 427 501.4 384 448.4 384L448.4 376C448.4 327.4 409 288 360.4 288C338.7 288 318.9 295.9 303.5 308.9C283.7 277.2 248.5 256 208.4 256z"/></svg>