<svg xmlns="http://www.w3.org/2000/svg" viewBox="0 0 640 640"><!--! Font Awesome Pro 7.1.0 by @fontawesome - https://fontawesome.com License - https://fontawesome.com/license (Commercial License) Copyright 2025 Fonticons, Inc. --><path opacity=".4" fill="currentColor" d="M56.7 227.5L155.1 207.6L165.5 205.5L167.6 195.1L187.5 96.7L271.1 152.2L279.9 158.1L288.7 152.2L372.3 96.7L380.5 137.2C348.8 154.5 322 179.8 303 210.4C295.5 208.8 287.8 208 279.8 208C217.9 208 167.8 258.1 167.8 320C167.8 381.9 217.9 432 279.8 432C287.7 432 295.5 431.2 303 429.6C322 460.2 348.8 485.5 380.5 502.8L372.3 543.3L288.7 487.8L279.9 481.9L271.1 487.8L187.5 543.3L167.6 444.9L165.5 434.5L155.1 432.4L56.7 412.5L112.2 328.9L118.1 320.1L112.2 311.3L56.7 227.7z"/><path fill="currentColor" d="M185.4 56.9L165.6 43.8C165.4 44.7 156.3 89.5 138.4 178.4C49.5 196.4 4.7 205.5 3.8 205.6C4.3 206.3 29.6 244.5 79.7 320C29.6 395.5 4.3 433.7 3.8 434.4L27.1 439.1L138.4 461.6C156.4 550.5 165.5 595.3 165.6 596.2L185.4 583.1L280 520.3C355.5 570.4 393.7 595.7 394.4 596.2C396.4 586.2 401.8 559.5 410.6 516.1C400.2 512.4 390.2 508 380.7 502.7L372.5 543.2L288.9 487.7L280.1 481.8L271.3 487.7L187.7 543.2L167.8 444.8L165.7 434.4L155.3 432.3L56.9 412.4L112.4 328.8L118.3 320L112.4 311.2L56.9 227.6L155.3 207.7L165.7 205.6L167.8 195.2L187.7 96.8L271.3 152.3L280.1 158.2L288.9 152.3L372.5 96.8L380.7 137.3C390.3 132.1 400.3 127.6 410.6 123.9C401.8 80.5 396.4 53.8 394.4 43.8C393.7 44.3 355.5 69.6 280 119.7L185.4 56.9zM280 208C218.1 208 168 258.1 168 320C168 381.9 218.1 432 280 432C287.9 432 295.7 431.2 303.2 429.6C297.3 420.1 292.1 410.1 287.8 399.6C285.2 399.8 282.6 400 280 400C235.8 400 200 364.2 200 320C200 275.8 235.8 240 280 240C282.6 240 285.2 240.1 287.8 240.4C292.1 230 297.3 219.9 303.2 210.4C295.7 208.8 288 208 280 208zM352 320C352 249.3 409.3 192 480 192C550.7 192 608 249.3 608 320C608 390.7 550.7 448 480 448C409.3 448 352 390.7 352 320zM640 320C640 231.6 568.4 160 480 160C391.6 160 320 231.6 320 320C320 408.4 391.6 480 480 480C568.4 480 640 408.4 640 320z"/></svg>