<svg xmlns="http://www.w3.org/2000/svg" viewBox="0 0 640 640"><!--! Font Awesome Pro 7.1.0 by @fontawesome - https://fontawesome.com License - https://fontawesome.com/license (Commercial License) Copyright 2025 Fonticons, Inc. --><path opacity=".4" fill="currentColor" d="M96.7 227.5L195.1 207.6L205.5 205.5L207.6 195.1L227.5 96.7L311.1 152.2L319.9 158.1L328.7 152.2L412.3 96.7L432.2 195.1L434.3 205.5L444.7 207.6L543.1 227.5L487.6 311.1L481.7 319.9L487.6 328.7L524.2 383.9L411.7 383.9C424.4 365.8 431.8 343.7 431.8 319.9C431.8 258 381.7 207.9 319.8 207.9C257.9 207.9 208 258.1 208 320C208 343.8 215.4 365.9 228.1 384L115.6 384L152.2 328.8L158.1 320L152.2 311.2L96.7 227.6z"/><path fill="currentColor" d="M225.4 56.9L205.6 43.8C205.4 44.7 196.3 89.5 178.4 178.4C89.5 196.4 44.7 205.5 43.8 205.6C44.3 206.3 69.6 244.5 119.7 320L77.2 384L115.6 384L152.2 328.8L158.1 320L152.2 311.2L96.7 227.6L195.1 207.7L205.5 205.6L207.6 195.2L227.5 96.8L311.1 152.3L319.9 158.2L328.7 152.3L412.3 96.8L432.2 195.2L434.3 205.6L444.7 207.7L543.1 227.6L487.6 311.2L481.7 320L487.6 328.8L524.2 384L562.6 384L520.1 320L582.9 225.4L596 205.6C595.1 205.4 550.3 196.3 461.4 178.4L439.1 67.1L434.4 43.8C433.7 44.3 395.5 69.6 320 119.7L225.4 56.9zM432 320C432 258.1 381.9 208 320 208C258.1 208 208 258.1 208 320C208 343.8 215.4 365.9 228.1 384L272 384C252.6 369.4 240 346.2 240 320C240 275.8 275.8 240 320 240C364.2 240 400 275.8 400 320C400 346.2 387.4 369.4 368 384L411.9 384C424.6 365.9 432 343.8 432 320zM544 448L32 448L32 480L544 480L544 448zM96 544L96 576L224 576L224 544L96 544zM272 544L272 576L608 576L608 544L272 544z"/></svg>