<svg xmlns="http://www.w3.org/2000/svg" viewBox="0 0 640 640"><!--! Font Awesome Pro 7.1.0 by @fontawesome - https://fontawesome.com License - https://fontawesome.com/license (Commercial License) Copyright 2025 Fonticons, Inc. --><path opacity=".4" fill="currentColor" d="M97 435.5L195.4 415.6L205.8 413.5L207.9 403.1L227.8 304.7L311.4 360.2L320.2 366.1L329 360.2L412.6 304.7L432.5 403.1L434.6 413.5L445 415.6L543.4 435.5L513.9 480L421.4 480C403.4 442.2 364.9 416 320.2 416C275.5 416 237 442.2 219 480L126.5 480L97 435.5z"/><path fill="currentColor" d="M331.5 52.7L395.5 116.7L406.8 128L384.2 150.6C380.9 147.3 364.9 131.3 336.2 102.6L336.2 256L304.2 256L304.2 102.6L256.2 150.6L233.6 128L244.9 116.7L308.9 52.7L320.2 41.4L331.5 52.7zM205.8 251.8C206.5 252.3 244.7 277.6 320.2 327.7C395.7 277.6 433.9 252.3 434.6 251.8L439.3 275.1L461.8 386.4C550.7 404.4 595.5 413.5 596.4 413.6C590.6 422.3 575.9 444.5 552.3 480L513.9 480L543.4 435.5L445 415.6L434.6 413.5L432.5 403.1L412.6 304.7L329 360.2L320.2 366.1L311.4 360.2L227.8 304.7L207.9 403.1L205.8 413.5L195.4 415.6L97 435.5L126.5 480L88.1 480C64.5 444.5 49.8 422.3 44 413.6L67.3 408.9L178.6 386.4C196.6 297.5 205.7 252.7 205.8 251.8zM421.5 480L384.3 480C369.7 460.6 346.5 448 320.3 448C294.1 448 270.9 460.6 256.3 480L219 480C237 442.2 275.5 416 320.2 416C364.9 416 403.5 442.2 421.4 480zM64.2 544L576.2 544L576.2 576L64.2 576L64.2 544z"/></svg>