<svg xmlns="http://www.w3.org/2000/svg" viewBox="0 0 640 640"><!--! Font Awesome Pro 7.1.0 by @fontawesome - https://fontawesome.com License - https://fontawesome.com/license (Commercial License) Copyright 2025 Fonticons, Inc. --><path opacity=".4" fill="currentColor" d="M65.5 576L446.5 576L392.3 400L119.6 400L65.4 576zM160 192C160 245 203 288 256 288C309 288 352 245 352 192C352 139 309 96 256 96C203 96 160 139 160 192z"/><path fill="currentColor" d="M256 288C309 288 352 245 352 192C352 139 309 96 256 96C203 96 160 139 160 192C160 245 203 288 256 288zM119.6 400L65.4 576L31.9 576L95.9 368L415.9 368L479.9 576L446.4 576L392.2 400L119.5 400zM128 192C128 121.3 185.3 64 256 64C326.7 64 384 121.3 384 192C384 262.7 326.7 320 256 320C185.3 320 128 262.7 128 192zM464 240L640 240L640 272L448 272L448 240L464 240z"/></svg>