<svg xmlns="http://www.w3.org/2000/svg" viewBox="0 0 640 640"><!--! Font Awesome Pro 7.1.0 by @fontawesome - https://fontawesome.com License - https://fontawesome.com/license (Commercial License) Copyright 2025 Fonticons, Inc. --><path opacity=".4" fill="currentColor" d="M65.6 576L446.6 576L392.4 400L119.7 400L65.5 576zM160.1 192C160.1 245 203.1 288 256.1 288C309.1 288 352.1 245 352.1 192C352.1 139 309.1 96 256.1 96C203.1 96 160.1 139 160.1 192z"/><path fill="currentColor" d="M256.1 288C309.1 288 352.1 245 352.1 192C352.1 139 309.1 96 256.1 96C203.1 96 160.1 139 160.1 192C160.1 245 203.1 288 256.1 288zM119.8 400L65.6 576L32.1 576L96.1 368L416.1 368L480.1 576L446.6 576L392.4 400L119.7 400zM128.2 192C128.2 121.3 185.5 64 256.2 64C326.9 64 384.2 121.3 384.2 192C384.2 262.7 326.9 320 256.2 320C185.5 320 128.2 262.7 128.2 192zM465.6 200L488.2 177.4C490.2 179.4 508.8 198 544.2 233.4C579.5 198.1 598.2 179.4 600.2 177.4L622.8 200C620.8 202 602.2 220.6 566.8 256C602.1 291.3 620.8 310 622.8 312L600.2 334.6C598.2 332.6 579.6 314 544.2 278.6C508.9 314 490.2 332.6 488.2 334.6L465.5 312C467.5 310 486.1 291.4 521.5 256C486.2 220.7 467.5 202 465.5 200z"/></svg>