<svg xmlns="http://www.w3.org/2000/svg" viewBox="0 0 640 640"><!--! Font Awesome Pro 7.1.0 by @fontawesome - https://fontawesome.com License - https://fontawesome.com/license (Commercial License) Copyright 2025 Fonticons, Inc. --><path fill="currentColor" d="M325.6 49.2C330.5 51.2 334.1 55.6 335.1 60.8L352 144L366 146.8C341.2 152.3 319.4 165.4 303 183.5C286.1 168.8 264.1 160 240 160C187 160 144 203 144 256C144 298 170.9 333.6 208.4 346.7C210.6 373.1 220.8 397.2 236.6 416.6L169.3 461.2C164.9 464.1 159.3 464.7 154.4 462.6C149.5 460.5 145.9 456.2 144.9 451L128 368L44.8 351.2C39.6 350.1 35.3 346.6 33.2 341.7C31.1 336.8 31.7 331.2 34.6 326.8L81.6 256L34.7 185.3C31.8 180.9 31.2 175.3 33.3 170.4C35.4 165.5 39.7 161.9 44.9 160.9L128 144L144.8 60.8C145.9 55.6 149.4 51.3 154.3 49.2C159.2 47.1 164.8 47.7 169.2 50.6L240 97.6L310.7 50.7C315.1 47.8 320.7 47.2 325.6 49.3zM275.2 223.3C246.5 238.8 224.4 265 214.2 296.4C200.8 287.9 192 272.9 192 255.9C192 229.4 213.5 207.9 240 207.9C253.9 207.9 266.4 213.8 275.2 223.2zM413.7 195.3C428.1 174 452.4 160 480.1 160C524.3 160 560.1 195.8 560.1 240C560.1 243.2 559.9 246.3 559.6 249.3C588.4 263.8 608.1 293.5 608.1 328C608.1 376.6 568.7 416 520.1 416L336.1 416C291.9 416 256.1 380.2 256.1 336C256.1 297.2 283.7 264.8 320.4 257.5C323.7 220.8 354.5 192 392.1 192C399.6 192 406.9 193.2 413.7 195.3zM480 208C464.5 208 451.5 219.1 448.6 233.8C446.9 242.4 440.7 249.4 432.3 252.1C423.9 254.8 414.8 252.7 408.5 246.6C404.2 242.5 398.4 240 392 240C378.7 240 368 250.7 368 264C368 267.1 368.6 269.9 369.6 272.6C372.7 280.8 371.1 290 365.5 296.7C359.9 303.4 351 306.4 342.4 304.7C340.4 304.3 338.2 304.1 336 304.1C318.3 304.1 304 318.4 304 336.1C304 353.8 318.3 368.1 336 368.1L520 368.1C542.1 368.1 560 350.2 560 328.1C560 308.2 545.5 291.7 526.4 288.6C518.9 287.4 512.4 282.7 508.9 275.9C505.4 269.1 505.3 261.1 508.7 254.3C510.8 250.1 512 245.3 512 240.1C512 222.4 497.7 208.1 480 208.1zM317 465.1C329.6 469.3 336.4 482.9 332.2 495.5L310.8 559.6C306.6 572.2 293 579 280.4 574.8C267.8 570.6 261 557 265.2 544.4L286.6 480.3C290.8 467.7 304.4 460.9 317 465.1zM437 465.1C449.6 469.3 456.4 482.9 452.2 495.5L430.8 559.6C426.6 572.2 413 579 400.4 574.8C387.8 570.6 381 557 385.2 544.4L406.6 480.3C410.8 467.7 424.4 460.9 437 465.1zM557 465.1C569.6 469.3 576.4 482.9 572.2 495.5L550.8 559.6C546.6 572.2 533 579 520.4 574.8C507.8 570.6 501 557 505.2 544.4L526.6 480.3C530.8 467.7 544.4 460.9 557 465.1z"/></svg>