<svg xmlns="http://www.w3.org/2000/svg" viewBox="0 0 640 640"><!--! Font Awesome Pro 7.1.0 by @fontawesome - https://fontawesome.com License - https://fontawesome.com/license (Commercial License) Copyright 2025 Fonticons, Inc. --><path fill="currentColor" d="M232.2 56.1C225.5 51.7 217.1 50.9 209.7 53.9C202.3 56.9 197 63.5 195.4 71.3L174.6 174.6L71.3 195.4C63.5 197 56.9 202.4 53.9 209.7C50.9 217 51.7 225.5 56.1 232.2L114.3 320L56.1 407.8C51.7 414.5 50.9 422.9 53.9 430.3C56.9 437.7 63.5 443.1 71.3 444.6L174.5 465.5L195.4 568.7C197 576.5 202.4 583.1 209.7 586.1C217 589.1 225.5 588.3 232.2 583.9L273.7 556.4C272.6 549.8 272 543 272 536C272 521.7 274.5 507.9 279.1 495.2L235.4 524.2L218.4 440.3C216.5 430.8 209.1 423.4 199.6 421.5L115.7 404.5L163 333.2C168.3 325.2 168.3 314.7 163 306.7L115.7 235.4L199.6 218.4C209.1 216.5 216.4 209.1 218.4 199.6L235.4 115.7L306.7 163C314.7 168.3 325.2 168.3 333.2 163L404.5 115.7L421.5 199.6C423.4 209.1 430.8 216.4 440.3 218.4L524.2 235.4L476.9 306.7C471.6 314.7 471.6 325.2 476.9 333.2L500 368.1C528.9 369 555.4 379.4 576.4 396.4L525.7 320.1L583.9 232.3C588.3 225.6 589.1 217.2 586.1 209.8C583.1 202.4 576.5 197 568.7 195.5L465.4 174.6L444.6 71.3C443 63.5 437.6 57 430.2 53.9C422.8 50.8 414.4 51.7 407.7 56.1L320 114.3L232.2 56.1zM272 320C272 293.5 293.5 272 320 272C346.5 272 368 293.5 368 320C368 346.5 346.5 368 320 368C293.5 368 272 346.5 272 320zM416 320C416 267 373 224 320 224C267 224 224 267 224 320C224 373 267 416 320 416C373 416 416 373 416 320zM576 608C611.3 608 640 579.3 640 544C640 508.7 611.3 480 576 480C575.5 480 574.9 480 574.4 480C567 443.5 534.7 416 496 416C461 416 431.2 438.5 420.4 469.8C411.7 466.1 402.1 464 392 464C352.2 464 320 496.2 320 536C320 575.8 352.2 608 392 608L576 608z"/></svg>