<svg xmlns="http://www.w3.org/2000/svg" viewBox="0 0 640 640"><!--! Font Awesome Pro 7.1.0 by @fontawesome - https://fontawesome.com License - https://fontawesome.com/license (Commercial License) Copyright 2025 Fonticons, Inc. --><path fill="currentColor" d="M445 71.3L463.2 161.2L422.6 201.8C422.4 201.1 422.2 200.3 422 199.6L405 115.7L333.7 163C325.7 168.3 315.2 168.3 307.2 163L235.9 115.7L218.9 199.6C217 209.1 209.6 216.4 200.1 218.4L116.2 235.4L163.5 306.7C168.8 314.7 168.8 325.2 163.5 333.2L116.2 404.5L200.1 421.5C200.9 421.7 201.6 421.8 202.3 422.1L161.7 462.7L71.8 444.5C64 442.9 57.4 437.5 54.4 430.2C51.4 422.9 52.2 414.4 56.6 407.7L114.7 320L56.5 232.2C52.1 225.5 51.3 217.1 54.3 209.7C57.3 202.3 63.9 196.9 71.7 195.4L175 174.6L195.9 71.3C197.5 63.5 202.9 56.9 210.2 53.9C217.5 50.9 226 51.7 232.7 56.1L320.5 114.3L408.3 56.1C415 51.7 423.4 50.9 430.8 53.9C438.2 56.9 443.4 63.5 445 71.3zM320.4 224C342.8 224 363.5 231.7 379.8 244.6L345.4 279C338.1 274.6 329.6 272 320.4 272C293.9 272 272.4 293.5 272.4 320C272.4 329.2 275 337.7 279.4 345L245 379.4C232.1 363.1 224.4 342.4 224.4 320C224.4 267 267.4 224 320.4 224zM512.4 224C512.4 206.3 526.7 192 544.4 192C562.1 192 576.4 206.3 576.4 224C576.4 241.7 562.1 256 544.4 256C526.7 256 512.4 241.7 512.4 224zM432.4 304C432.4 286.3 446.7 272 464.4 272C482.1 272 496.4 286.3 496.4 304C496.4 321.7 482.1 336 464.4 336C446.7 336 432.4 321.7 432.4 304zM544.4 352C562.1 352 576.4 366.3 576.4 384C576.4 401.7 562.1 416 544.4 416C526.7 416 512.4 401.7 512.4 384C512.4 366.3 526.7 352 544.4 352zM304.4 432C322.1 432 336.4 446.3 336.4 464C336.4 481.7 322.1 496 304.4 496C286.7 496 272.4 481.7 272.4 464C272.4 446.3 286.7 432 304.4 432zM224.4 512C242.1 512 256.4 526.3 256.4 544C256.4 561.7 242.1 576 224.4 576C206.7 576 192.4 561.7 192.4 544C192.4 526.3 206.7 512 224.4 512zM352.4 544C352.4 526.3 366.7 512 384.4 512C402.1 512 416.4 526.3 416.4 544C416.4 561.7 402.1 576 384.4 576C366.7 576 352.4 561.7 352.4 544zM544.4 512C562.1 512 576.4 526.3 576.4 544C576.4 561.7 562.1 576 544.4 576C526.7 576 512.4 561.7 512.4 544C512.4 526.3 526.7 512 544.4 512zM432.4 464C432.4 446.3 446.7 432 464.4 432C482.1 432 496.4 446.3 496.4 464C496.4 481.7 482.1 496 464.4 496C446.7 496 432.4 481.7 432.4 464zM384.4 352C402.1 352 416.4 366.3 416.4 384C416.4 401.7 402.1 416 384.4 416C366.7 416 352.4 401.7 352.4 384C352.4 366.3 366.7 352 384.4 352z"/></svg>