<svg xmlns="http://www.w3.org/2000/svg" viewBox="0 0 640 640"><!--! Font Awesome Pro 7.1.0 by @fontawesome - https://fontawesome.com License - https://fontawesome.com/license (Commercial License) Copyright 2025 Fonticons, Inc. --><path fill="currentColor" d="M256.4 272C300.6 272 336.4 236.2 336.4 192C336.4 147.8 300.6 112 256.4 112C212.2 112 176.4 147.8 176.4 192C176.4 236.2 212.2 272 256.4 272zM256.4 64C327.1 64 384.4 121.3 384.4 192C384.4 262.7 327.1 320 256.4 320C185.7 320 128.4 262.7 128.4 192C128.4 121.3 185.7 64 256.4 64zM208.4 416C137.7 416 80.4 473.3 80.4 544L80.4 552C80.4 565.3 69.7 576 56.4 576C43.1 576 32.4 565.3 32.4 552L32.4 544C32.4 446.8 111.2 368 208.4 368L304.4 368C401.6 368 480.4 446.8 480.4 544L480.4 552C480.4 565.3 469.7 576 456.4 576C443.1 576 432.4 565.3 432.4 552L432.4 544C432.4 473.3 375.1 416 304.4 416L208.4 416zM612.3 188.1C621.7 197.5 621.7 212.7 612.3 222L578.4 255.9L612.3 289.8C621.7 299.2 621.7 314.4 612.3 323.7C602.9 333 587.7 333.1 578.4 323.7L544.5 289.8L510.6 323.7C501.2 333.1 486 333.1 476.7 323.7C467.4 314.3 467.3 299.1 476.7 289.8L510.6 255.9L476.7 222C467.3 212.6 467.3 197.4 476.7 188.1C486.1 178.8 501.3 178.7 510.6 188.1L544.5 222L578.4 188.1C587.8 178.7 603 178.7 612.3 188.1z"/></svg>