<svg xmlns="http://www.w3.org/2000/svg" viewBox="0 0 640 640"><!--! Font Awesome Pro 7.1.0 by @fontawesome - https://fontawesome.com License - https://fontawesome.com/license (Commercial License) Copyright 2025 Fonticons, Inc. --><path opacity=".4" fill="currentColor" d="M48.5 176.5L131.6 159.7L142 157.6L144.1 147.2L160.9 64.1L231.6 111L240.4 116.9L249.2 111L319.9 64.1L336.7 147.2L337 148.5C314.3 155.1 294.7 168.7 280.4 186.7C268.6 179.9 255 176 240.4 176C196.2 176 160.4 211.8 160.4 256C160.4 288.9 180.2 317.1 208.6 329.4C208.5 331.6 208.4 333.8 208.4 336C208.4 362.8 208.4 389.6 208.4 416.4L160.9 447.9L144.1 364.8L142 354.4L131.6 352.3L48.5 335.5L95.4 264.8L101.3 256L95.4 247.2L48.5 176.5zM272.4 336C272.4 305.3 294 279.7 322.8 273.4L330.1 271.8L329 264.4C324 231.3 350.6 200 384.4 200C396.6 200 407.8 203.9 417 210.4L423.8 215.2L428.4 208.3C441.3 188.8 463.4 176 488.5 176C528.3 176 560.5 208.2 560.5 248C560.5 256.1 559.2 263.8 556.8 271L554.7 277.2L560.4 280.5C579.6 291.6 592.6 312.3 592.6 336L592.6 400L272.6 400L272.6 336z"/><path fill="currentColor" d="M336.7 147.2L337 148.5C343.1 146.7 349.4 145.4 355.9 144.7L352.4 144L334.3 54.5L330.9 37.6L316.5 47.1L240.4 97.6L164.3 47.1L149.9 37.6L146.5 54.5L128.4 144L38.9 162.1L22 165.5L31.5 179.9L82 256L31.5 332.1L22 346.5L38.9 349.9L128.4 368L146.5 457.5L149.9 474.4C154.5 471.3 174 458.4 208.4 435.6L208.4 416.4L160.9 447.9L144.1 364.8L142 354.4L131.6 352.3L48.5 335.5L95.4 264.8L101.3 256L95.4 247.2L48.5 176.5L131.6 159.7L142 157.6L144.1 147.2L160.9 64.1L231.6 111L240.4 116.9L249.2 111L319.9 64.1L336.7 147.2zM240.4 176C196.2 176 160.4 211.8 160.4 256C160.4 288.9 180.2 317.1 208.6 329.4C208.9 323.7 209.6 318.1 210.6 312.6C190.3 301.9 176.5 280.5 176.5 256C176.5 220.7 205.2 192 240.5 192C251.7 192 262.3 194.9 271.5 200C274.2 195.4 277.2 190.9 280.5 186.7C268.7 179.9 255.1 176 240.5 176zM272 576L288.9 576L326.2 464L309.3 464L272 576zM544.9 576L582.2 464L565.3 464L528 576L544.9 576zM416.9 576L454.2 464L437.3 464L400 576L416.9 576zM560.4 248C560.4 256.1 559.1 263.8 556.7 271L554.6 277.2L560.3 280.5C579.5 291.6 592.5 312.3 592.5 336L592.5 400L272.5 400L272.5 336C272.5 305.3 294.1 279.7 322.9 273.4L330.2 271.8L329.1 264.4C324.1 231.3 350.7 200 384.5 200C396.7 200 407.9 203.9 417.1 210.4L423.9 215.2L428.5 208.3C441.4 188.8 463.5 176 488.6 176C528.4 176 560.6 208.2 560.6 248zM488.4 160C460.5 160 435.7 173 419.6 193.2C409.2 187.4 397.2 184 384.4 184C343.3 184 310.6 219.7 312.5 259.6C280 269.8 256.4 300.1 256.4 336L256.4 416L608.4 416L608.4 336C608.4 308.6 594.6 284.4 573.6 270C575.4 263 576.4 255.6 576.4 248C576.4 199.4 537 160 488.4 160z"/></svg>