<svg xmlns="http://www.w3.org/2000/svg" viewBox="0 0 640 640"><!--! Font Awesome Pro 7.1.0 by @fontawesome - https://fontawesome.com License - https://fontawesome.com/license (Commercial License) Copyright 2025 Fonticons, Inc. --><path opacity=".4" fill="currentColor" d="M70.2 216.5L186.7 192.9L191.9 191.8L193 186.6L216.6 70.1L315.6 135.8L320 138.7L324.4 135.8L423.4 70.1L447 186.6L448.1 191.8L453.3 192.9L569.8 216.5L504.1 315.5L501.2 319.9L504.1 324.3L543.6 383.9L411.9 383.9C424.6 365.8 432 343.7 432 319.9C432 258 381.9 207.9 320 207.9C258.1 207.9 208 258.1 208 320C208 343.8 215.4 365.9 228.1 384L96.4 384L135.9 324.4L138.8 320L135.9 315.6L70.2 216.6z"/><path fill="currentColor" d="M215.5 50.3L205.6 43.7L203.2 55.4L178.3 178.3L55.4 203.2L43.7 205.6L50.3 215.5L119.6 320L77.1 384L96.3 384L135.8 324.4L138.7 320L135.8 315.6L70.1 216.6L186.6 193L191.8 191.9L192.9 186.7L216.5 70.2L315.5 135.9L319.9 138.8L324.3 135.9L423.3 70.2L446.9 186.7L448 191.9L453.2 193L569.7 216.6L504 315.6L501.1 320L504 324.4L543.5 384L562.7 384L520.2 320L589.5 215.5L596.1 205.6L584.4 203.2L461.5 178.3L436.6 55.4L434.2 43.7L424.3 50.3L319.8 119.6L215.3 50.3zM432 320C432 258.1 381.9 208 320 208C258.1 208 208 258.1 208 320C208 343.8 215.4 365.9 228.1 384L248.5 384C233.3 367 224 344.6 224 320C224 267 267 224 320 224C373 224 416 267 416 320C416 344.6 406.8 367 391.5 384L411.9 384C424.6 365.9 432 343.8 432 320zM544 448L32 448L32 464L544 464L544 448zM96 544L96 560L224 560L224 544L96 544zM272 544L272 560L608 560L608 544L272 544z"/></svg>