<svg xmlns="http://www.w3.org/2000/svg" viewBox="0 0 640 640"><!--! Font Awesome Pro 7.1.0 by @fontawesome - https://fontawesome.com License - https://fontawesome.com/license (Commercial License) Copyright 2025 Fonticons, Inc. --><path opacity=".4" fill="currentColor" d="M70.5 216.5L187 192.9L192.2 191.8L193.3 186.6L216.9 70.1L315.9 135.8L320.3 138.7L324.7 135.8L423.7 70.1L445.6 178.5C427.4 196.7 409.2 214.9 391 233.1C371.7 217.3 347.1 207.9 320.2 207.9C258.3 207.9 208.2 258 208.2 319.9C208.2 346.8 217.7 371.4 233.4 390.7C215.2 408.9 197 427.1 178.8 445.3L70.4 423.4L136.1 324.4L139 320L136.1 315.6L70.4 216.6z"/><path fill="currentColor" d="M437 55.4L459.2 165L445.6 178.6L423.7 70.2L324.7 135.9L320.3 138.8L315.9 135.9L216.9 70.2L193.3 186.7L192.2 191.9L187 193L70.5 216.6L136.2 315.6L139.1 320L136.2 324.4L70.5 423.4L178.9 445.3L165.3 458.9L55.7 436.7L44 434.3L50.6 424.4L119.9 319.9L50.6 215.4L44 205.5L55.7 203.1L178.6 178.2L203.5 55.3L205.9 43.6L215.8 50.2L320.3 119.5L424.8 50.2L434.7 43.6L437.1 55.3zM320.2 208C347.1 208 371.7 217.5 391 233.2L379.6 244.6C363.3 231.7 342.6 224 320.2 224C267.2 224 224.2 267 224.2 320C224.2 342.4 231.9 363.1 244.8 379.4L233.4 390.8C217.6 371.5 208.2 346.9 208.2 320C208.2 258.1 258.3 208 320.2 208zM528.2 224C528.2 215.2 535.4 208 544.2 208C553 208 560.2 215.2 560.2 224C560.2 232.8 553 240 544.2 240C535.4 240 528.2 232.8 528.2 224zM464.2 288C473 288 480.2 295.2 480.2 304C480.2 312.8 473 320 464.2 320C455.4 320 448.2 312.8 448.2 304C448.2 295.2 455.4 288 464.2 288zM528.2 384C528.2 375.2 535.4 368 544.2 368C553 368 560.2 375.2 560.2 384C560.2 392.8 553 400 544.2 400C535.4 400 528.2 392.8 528.2 384zM464.2 448C473 448 480.2 455.2 480.2 464C480.2 472.8 473 480 464.2 480C455.4 480 448.2 472.8 448.2 464C448.2 455.2 455.4 448 464.2 448zM224.2 528C233 528 240.2 535.2 240.2 544C240.2 552.8 233 560 224.2 560C215.4 560 208.2 552.8 208.2 544C208.2 535.2 215.4 528 224.2 528zM384.2 528C393 528 400.2 535.2 400.2 544C400.2 552.8 393 560 384.2 560C375.4 560 368.2 552.8 368.2 544C368.2 535.2 375.4 528 384.2 528zM528.2 544C528.2 535.2 535.4 528 544.2 528C553 528 560.2 535.2 560.2 544C560.2 552.8 553 560 544.2 560C535.4 560 528.2 552.8 528.2 544zM304.2 448C313 448 320.2 455.2 320.2 464C320.2 472.8 313 480 304.2 480C295.4 480 288.2 472.8 288.2 464C288.2 455.2 295.4 448 304.2 448zM368.2 384C368.2 375.2 375.4 368 384.2 368C393 368 400.2 375.2 400.2 384C400.2 392.8 393 400 384.2 400C375.4 400 368.2 392.8 368.2 384z"/></svg>