<svg xmlns="http://www.w3.org/2000/svg" viewBox="0 0 640 640"><!--! Font Awesome Pro 7.1.0 by @fontawesome - https://fontawesome.com License - https://fontawesome.com/license (Commercial License) Copyright 2025 Fonticons, Inc. --><path opacity=".4" fill="currentColor" d="M224 320C224 373 267 416 320 416C373 416 416 373 416 320C416 267 373 224 320 224C267 224 224 267 224 320z"/><path fill="currentColor" d="M312 576L312 472L328 472L328 576L312 576zM312 168L312 64L328 64L328 168L312 168zM133.3 495.4L139 489.7L201.2 427.5L206.9 421.8L218.2 433.1L212.5 438.8L150.3 501L144.6 506.7L133.3 495.4zM421.8 206.9L427.5 201.2L489.7 139L495.4 133.3L506.7 144.6L501 150.3L438.8 212.5L433.1 218.2L421.8 206.9zM568 328L472 328L472 312L576 312L576 328L568 328zM160 328L64 328L64 312L168 312L168 328L160 328zM495.4 506.7L489.7 501L427.5 438.8L421.8 433.1L433.1 421.8L438.8 427.5L501 489.7L506.7 495.4L495.4 506.7zM206.9 218.2L133.4 144.7L144.7 133.4L218.2 206.9L206.9 218.2zM416 320C416 267 373 224 320 224C267 224 224 267 224 320C224 373 267 416 320 416C373 416 416 373 416 320zM208 320C208 258.1 258.1 208 320 208C381.9 208 432 258.1 432 320C432 381.9 381.9 432 320 432C258.1 432 208 381.9 208 320z"/></svg>