<svg xmlns="http://www.w3.org/2000/svg" viewBox="0 0 640 640"><!--! Font Awesome Pro 7.1.0 by @fontawesome - https://fontawesome.com License - https://fontawesome.com/license (Commercial License) Copyright 2025 Fonticons, Inc. --><path opacity=".4" fill="currentColor" d="M70.5 424.5L187 400.9L192.2 399.8L193.3 394.6L216.9 278.1L315.9 343.8L320.3 346.7L324.7 343.8L423.7 278.1L447.3 394.6L448.4 399.8L453.6 400.9L570.1 424.5L522.7 496L427.7 496C413.9 449.7 371.1 416 320.3 416C269.5 416 226.7 449.7 212.9 496L117.9 496L70.5 424.5z"/><path fill="currentColor" d="M325.9 50.3L389.9 114.3L395.6 120L384.3 131.3L378.6 125.6L328.3 75.3L328.3 256L312.3 256L312.3 75.3L262 125.6L256.3 131.3L245 120L250.7 114.3L314.7 50.3L320.4 44.6L326.1 50.3zM205.8 251.8L215.7 258.4L320.2 327.7L424.7 258.4L434.6 251.8L437 263.5L461.9 386.4L584.8 411.3L596.5 413.7L589.9 423.6L541.8 496.1L522.6 496.1L570 424.6L453.5 401L448.3 399.9L447.2 394.7L423.6 278.2L324.6 343.9L320.2 346.8L315.8 343.9L216.8 278.2L193.2 394.7L192.1 399.9L186.9 401L70.4 424.6L117.8 496.1L98.6 496.1L50.5 423.6L43.9 413.7L55.6 411.3L178.5 386.4L203.4 263.5L205.8 251.8zM427.6 496L410.8 496C397.6 458.7 362.1 432 320.3 432C278.5 432 242.9 458.7 229.8 496L213 496C226.8 449.7 269.6 416 320.4 416C371.2 416 414 449.7 427.8 496zM64.2 560L576.2 560L576.2 576L64.2 576L64.2 560z"/></svg>