<svg xmlns="http://www.w3.org/2000/svg" viewBox="0 0 640 640"><!--! Font Awesome Pro 7.1.0 by @fontawesome - https://fontawesome.com License - https://fontawesome.com/license (Commercial License) Copyright 2025 Fonticons, Inc. --><path opacity=".4" fill="currentColor" d="M49.1 576L463.6 576L404.5 384L108.1 384L49 576zM144.4 192C144.4 253.9 194.5 304 256.4 304C318.3 304 368.4 253.9 368.4 192C368.4 130.1 318.3 80 256.4 80C194.5 80 144.4 130.1 144.4 192z"/><path fill="currentColor" d="M256.3 304C318.2 304 368.3 253.9 368.3 192C368.3 130.1 318.2 80 256.3 80C194.4 80 144.3 130.1 144.3 192C144.3 253.9 194.4 304 256.3 304zM108.1 384L49 576L32.3 576L96.3 368L416.3 368L480.3 576L463.6 576L404.5 384L108.1 384zM128.3 192C128.3 121.3 185.6 64 256.3 64C327 64 384.3 121.3 384.3 192C384.3 262.7 327 320 256.3 320C185.6 320 128.3 262.7 128.3 192zM488.3 188.7L494 194.4L544.3 244.7L594.6 194.4L600.3 188.7L611.6 200L605.9 205.7L555.6 256L605.9 306.3L611.6 312L600.3 323.3L594.6 317.6L544.3 267.3L494 317.6L488.3 323.3L477 312L482.7 306.3L533 256L482.7 205.7L477 200L488.3 188.7z"/></svg>