<svg xmlns="http://www.w3.org/2000/svg" viewBox="0 0 640 640"><!--! Font Awesome Pro 7.1.0 by @fontawesome - https://fontawesome.com License - https://fontawesome.com/license (Commercial License) Copyright 2025 Fonticons, Inc. --><path fill="currentColor" d="M357.6 49.2C362.5 51.2 366.1 55.6 367.1 60.8L384 144L467.2 160.8C472.4 161.9 476.7 165.4 478.8 170.3C480.9 175.2 480.3 180.8 477.4 185.2L460.3 211C451.2 209 441.8 207.9 432.1 207.9C407 207.9 383.6 215.1 363.9 227.6C351.8 188.4 315.3 159.9 272.1 159.9C219.1 159.9 176.1 202.9 176.1 255.9C176.1 269.5 178.9 282.4 184 294.1C160.2 310.3 142.2 334.4 133.6 362.5L76.8 351.2C71.6 350.1 67.3 346.6 65.2 341.7C63.1 336.8 63.7 331.2 66.6 326.8L113.6 256L66.7 185.3C63.8 180.9 63.2 175.3 65.3 170.4C67.4 165.5 71.7 161.9 76.9 160.9L160 144L176.8 60.8C177.9 55.6 181.4 51.3 186.3 49.2C191.2 47.1 196.8 47.7 201.2 50.6L272 97.6L342.7 50.7C347.1 47.8 352.7 47.2 357.6 49.3zM305.7 282C290.4 275.6 273.7 272 256 272C246.4 272 237 273.1 227.9 275.1C225.4 269.3 224 262.8 224 256C224 229.5 245.5 208 272 208C298.5 208 320 229.5 320 256C320 264.1 318 271.8 314.4 278.5C311.4 279.6 308.5 280.7 305.6 282zM518.7 448C507.5 420.4 487 397.6 461.1 383.5C450.1 337.9 409 304 360 304L358.7 304C371 275.7 399.2 256 432 256C467 256 496.8 278.5 507.6 309.8C516.3 306.1 525.9 304 536 304C575.8 304 608 336.2 608 376C608 415.8 575.8 448 536 448L518.7 448zM480 496C480 540.2 444.2 576 400 576L208 576C163.8 576 128 540.2 128 496C128 462.1 149.1 433.1 178.9 421.5C177 414.7 176 407.5 176 400C176 355.8 211.8 320 256 320C286.8 320 313.5 337.4 326.9 362.8C336.2 356 347.6 352 360 352C390.9 352 416 377.1 416 408C416 411.2 415.7 414.4 415.2 417.4C452.1 424.5 480 457 480 496z"/></svg>