<svg xmlns="http://www.w3.org/2000/svg" viewBox="0 0 640 640"><!--! Font Awesome Pro 7.1.0 by @fontawesome - https://fontawesome.com License - https://fontawesome.com/license (Commercial License) Copyright 2025 Fonticons, Inc. --><path fill="currentColor" d="M169.8 53.9C177.2 50.8 185.6 51.7 192.3 56.1L280 114.3L367.8 56.1C374.5 51.7 382.9 50.9 390.3 53.9C397.7 56.9 403 63.5 404.6 71.3L414.9 122.4C373.7 136 338.1 162.1 312.8 196.2C302.3 193.4 291.3 192 280 192C209.3 192 152 249.3 152 320C152 390.7 209.3 448 280 448C291.3 448 302.3 446.5 312.8 443.8C338.1 478 373.6 504.1 414.9 517.7L404.6 568.8C403 576.6 397.6 583.2 390.3 586.2C383 589.2 374.5 588.4 367.8 584L280 525.8L192.2 584C185.5 588.4 177.1 589.2 169.7 586.2C162.3 583.2 156.9 576.6 155.4 568.8L134.6 465.4L31.3 444.5C23.5 442.9 16.9 437.5 13.9 430.2C10.9 422.9 11.7 414.4 16.1 407.7L74.3 320L16.1 232.2C11.7 225.5 10.9 217.1 13.9 209.7C16.9 202.3 23.5 196.9 31.3 195.4L134.6 174.6L155.4 71.3C157 63.5 162.4 56.9 169.7 53.9zM280 240C282.6 240 285.2 240.1 287.8 240.4C277.6 264.9 272 291.8 272 320C272 348.2 277.6 375.1 287.8 399.6C285.2 399.8 282.6 400 280 400C235.8 400 200 364.2 200 320C200 275.8 235.8 240 280 240zM480 160C568.4 160 640 231.6 640 320C640 408.4 568.4 480 480 480C391.6 480 320 408.4 320 320C320 231.6 391.6 160 480 160z"/></svg>