<svg xmlns="http://www.w3.org/2000/svg" viewBox="0 0 640 640"><!--! Font Awesome Pro 7.1.0 by @fontawesome - https://fontawesome.com License - https://fontawesome.com/license (Commercial License) Copyright 2025 Fonticons, Inc. --><path fill="currentColor" d="M210.2 53.9C217.6 50.8 226 51.7 232.7 56.1L320.5 114.3L408.3 56.1C415 51.7 423.4 50.9 430.8 53.9C438.2 56.9 443.4 63.5 445 71.3L465.9 174.5L569.1 195.4C576.9 197 583.5 202.4 586.5 209.7C589.5 217 588.7 225.5 584.3 232.2L526.1 320L584.3 407.8C588.7 414.5 589.5 422.9 586.5 430.3C583.5 437.7 576.9 443.1 569.1 444.6L465.8 465.4L445 568.7C443.4 576.5 438 583.1 430.7 586.1C423.4 589.1 414.9 588.3 408.2 583.9L320.4 525.7L232.6 583.9C225.9 588.3 217.5 589.1 210.1 586.1C202.7 583.1 197.3 576.5 195.8 568.7L175 465.4L71.7 444.5C63.9 442.9 57.3 437.5 54.3 430.2C51.3 422.9 52.1 414.4 56.5 407.7L114.7 320L56.5 232.2C52.1 225.5 51.3 217.1 54.3 209.7C57.3 202.3 63.9 196.9 71.7 195.4L175 174.6L195.9 71.3C197.5 63.5 202.9 56.9 210.2 53.9zM464.4 320C464.4 240.3 399.7 175.6 320 175.6C240.3 175.6 175.6 240.3 175.6 320C175.6 399.7 240.3 464.4 320 464.4C399.7 464.4 464.4 399.7 464.4 320zM224.4 320C224.4 267 267.4 224 320.4 224C326 224 331.5 224.5 336.9 225.4C342.7 226.4 347.5 230.5 349.3 236.1C351.1 241.7 349.8 247.8 345.8 252.1C335 263.6 328.4 279 328.4 296C328.4 327.6 351.3 353.8 381.4 359.1C387.2 360.1 392 364.2 393.8 369.8C395.6 375.4 394.3 381.5 390.3 385.8C372.8 404.4 347.9 416 320.4 416C267.4 416 224.4 373 224.4 320z"/></svg>