<svg xmlns="http://www.w3.org/2000/svg" viewBox="0 0 640 640"><!--! Font Awesome Pro 7.1.0 by @fontawesome - https://fontawesome.com License - https://fontawesome.com/license (Commercial License) Copyright 2025 Fonticons, Inc. --><path fill="currentColor" d="M209.8 53.9C217.2 50.8 225.6 51.7 232.3 56.1L320 114.3L407.8 56.1C414.5 51.7 422.9 50.9 430.3 53.9C437.7 56.9 443 63.5 444.6 71.3L465.5 174.5L568.7 195.4C576.5 197 583.1 202.4 586.1 209.7C589.1 217 588.3 225.5 583.9 232.2L525.7 320L568.2 384L430.9 384C441.8 365.2 448 343.3 448 320C448 249.3 390.7 192 320 192C249.3 192 192 249.3 192 320C192 343.3 198.2 365.2 209.1 384L71.8 384L114.3 320L56.1 232.2C51.7 225.5 50.9 217.1 53.9 209.7C56.9 202.3 63.5 196.9 71.3 195.4L174.6 174.6L195.4 71.3C197 63.5 202.4 56.9 209.7 53.9zM400 320C400 346.2 387.4 369.4 368 384L272 384C252.6 369.4 240 346.2 240 320C240 275.8 275.8 240 320 240C364.2 240 400 275.8 400 320zM544 456C544 469.3 533.3 480 520 480L56 480C42.7 480 32 469.3 32 456C32 442.7 42.7 432 56 432L520 432C533.3 432 544 442.7 544 456zM96 552C96 538.7 106.7 528 120 528L200 528C213.3 528 224 538.7 224 552C224 565.3 213.3 576 200 576L120 576C106.7 576 96 565.3 96 552zM272 552C272 538.7 282.7 528 296 528L584 528C597.3 528 608 538.7 608 552C608 565.3 597.3 576 584 576L296 576C282.7 576 272 565.3 272 552z"/></svg>