<svg xmlns="http://www.w3.org/2000/svg" viewBox="0 0 640 640"><!--! Font Awesome Pro 7.1.0 by @fontawesome - https://fontawesome.com License - https://fontawesome.com/license (Commercial License) Copyright 2025 Fonticons, Inc. --><path fill="currentColor" d="M209.8 53.9C217.2 50.8 225.6 51.7 232.3 56.1L320 114.3L407.8 56.1C414.5 51.7 422.9 50.9 430.3 53.9C437.7 56.9 443 63.5 444.6 71.3L465.5 174.5L568.7 195.4C576.5 197 583.1 202.4 586.1 209.7C589.1 217 588.3 225.5 583.9 232.2L525.7 320L576.4 396.3C554.4 378.6 526.5 368 496.1 368C471.6 368 448.7 374.9 429.3 386.8C441.2 367.4 448.1 344.5 448.1 320C448.1 249.3 390.8 192 320.1 192C249.4 192 192 249.3 192 320C192 387.6 244.4 442.9 310.8 447.7C287 469.6 272 501.1 272 536C272 542.9 272.6 549.8 273.7 556.4L232.2 583.9C225.5 588.3 217.1 589.1 209.7 586.1C202.3 583.1 196.9 576.5 195.4 568.7L174.6 465.4L71.3 444.5C63.5 442.9 56.9 437.5 53.9 430.2C50.9 422.9 51.7 414.4 56.1 407.7L114.3 319.9L56.1 232.1C51.7 225.4 50.9 217 53.9 209.6C56.9 202.2 63.5 196.8 71.3 195.3L174.6 174.6L195.4 71.3C197 63.5 202.4 56.9 209.7 53.9zM240 320C240 275.8 275.8 240 320 240C364.2 240 400 275.8 400 320C400 364.2 364.2 400 320 400C275.8 400 240 364.2 240 320zM576 608L392 608C352.2 608 320 575.8 320 536C320 496.2 352.2 464 392 464C402.1 464 411.7 466.1 420.4 469.8C431.2 438.5 461 416 496 416C534.7 416 567 443.5 574.4 480C574.9 480 575.5 480 576 480C611.3 480 640 508.7 640 544C640 579.3 611.3 608 576 608z"/></svg>