<svg xmlns="http://www.w3.org/2000/svg" viewBox="0 0 640 640"><!--! Font Awesome Pro 7.1.0 by @fontawesome - https://fontawesome.com License - https://fontawesome.com/license (Commercial License) Copyright 2025 Fonticons, Inc. --><path fill="currentColor" d="M296 552C296 565.3 306.7 576 320 576C333.3 576 344 565.3 344 552L344 496C344 482.7 333.3 472 320 472C306.7 472 296 482.7 296 496L296 552zM296 144C296 157.3 306.7 168 320 168C333.3 168 344 157.3 344 144L344 88C344 74.7 333.3 64 320 64C306.7 64 296 74.7 296 88L296 144zM139 139C129.6 148.4 129.6 163.6 139 172.9L178.6 212.5C188 221.9 203.2 221.9 212.5 212.5C221.8 203.1 221.9 187.9 212.5 178.6L172.9 139C163.5 129.6 148.3 129.6 139 139zM427.5 427.5C418.1 436.9 418.1 452.1 427.5 461.4L467.1 501C476.5 510.4 491.7 510.4 501 501C510.3 491.6 510.4 476.4 501 467.1L461.4 427.5C452 418.1 436.8 418.1 427.5 427.5zM64 320C64 333.3 74.7 344 88 344L144 344C157.3 344 168 333.3 168 320C168 306.7 157.3 296 144 296L88 296C74.7 296 64 306.7 64 320zM472 320C472 333.3 482.7 344 496 344L552 344C565.3 344 576 333.3 576 320C576 306.7 565.3 296 552 296L496 296C482.7 296 472 306.7 472 320zM139 501C148.4 510.4 163.6 510.4 172.9 501L212.5 461.4C221.9 452 221.9 436.8 212.5 427.5C203.1 418.2 187.9 418.1 178.6 427.5L139 467.1C129.6 476.5 129.6 491.7 139 501zM427.5 212.5C436.9 221.9 452.1 221.9 461.4 212.5L501 172.9C510.4 163.5 510.4 148.3 501 139C491.6 129.7 476.4 129.6 467.1 139L427.5 178.6C418.1 188 418.1 203.2 427.5 212.5zM320 432C381.9 432 432 381.9 432 320C432 258.1 381.9 208 320 208C258.1 208 208 258.1 208 320C208 381.9 258.1 432 320 432z"/></svg>