<svg xmlns="http://www.w3.org/2000/svg" viewBox="0 0 640 640"><!--! Font Awesome Pro 7.1.0 by @fontawesome - https://fontawesome.com License - https://fontawesome.com/license (Commercial License) Copyright 2025 Fonticons, Inc. --><path fill="currentColor" d="M445 71.3L463.2 161.2L402.6 221.8C380.4 203.2 351.7 192 320.4 192C249.7 192 192.4 249.3 192.4 320C192.4 351.3 203.6 379.9 222.2 402.2L161.6 462.8L71.7 444.6C63.9 443 57.3 437.6 54.3 430.3C51.3 423 52.1 414.5 56.5 407.8L114.7 320L56.5 232.2C52.1 225.5 51.3 217.1 54.3 209.7C57.3 202.3 63.9 196.9 71.7 195.4L175 174.6L195.9 71.3C197.5 63.5 202.9 56.9 210.2 53.9C217.5 50.9 226 51.7 232.7 56.1L320.5 114.3L408.3 56.1C415 51.7 423.4 50.9 430.8 53.9C438.2 56.9 443.4 63.5 445 71.3zM320.4 240C338.4 240 355 246 368.4 256L256.4 368C246.4 354.6 240.4 338 240.4 320C240.4 275.8 276.2 240 320.4 240zM512.4 224C512.4 206.3 526.7 192 544.4 192C562.1 192 576.4 206.3 576.4 224C576.4 241.7 562.1 256 544.4 256C526.7 256 512.4 241.7 512.4 224zM432.4 304C432.4 286.3 446.7 272 464.4 272C482.1 272 496.4 286.3 496.4 304C496.4 321.7 482.1 336 464.4 336C446.7 336 432.4 321.7 432.4 304zM544.4 352C562.1 352 576.4 366.3 576.4 384C576.4 401.7 562.1 416 544.4 416C526.7 416 512.4 401.7 512.4 384C512.4 366.3 526.7 352 544.4 352zM304.4 432C322.1 432 336.4 446.3 336.4 464C336.4 481.7 322.1 496 304.4 496C286.7 496 272.4 481.7 272.4 464C272.4 446.3 286.7 432 304.4 432zM224.4 512C242.1 512 256.4 526.3 256.4 544C256.4 561.7 242.1 576 224.4 576C206.7 576 192.4 561.7 192.4 544C192.4 526.3 206.7 512 224.4 512zM352.4 544C352.4 526.3 366.7 512 384.4 512C402.1 512 416.4 526.3 416.4 544C416.4 561.7 402.1 576 384.4 576C366.7 576 352.4 561.7 352.4 544zM544.4 512C562.1 512 576.4 526.3 576.4 544C576.4 561.7 562.1 576 544.4 576C526.7 576 512.4 561.7 512.4 544C512.4 526.3 526.7 512 544.4 512zM432.4 464C432.4 446.3 446.7 432 464.4 432C482.1 432 496.4 446.3 496.4 464C496.4 481.7 482.1 496 464.4 496C446.7 496 432.4 481.7 432.4 464zM384.4 352C402.1 352 416.4 366.3 416.4 384C416.4 401.7 402.1 416 384.4 416C366.7 416 352.4 401.7 352.4 384C352.4 366.3 366.7 352 384.4 352z"/></svg>