<svg xmlns="http://www.w3.org/2000/svg" viewBox="0 0 640 640"><!--! Font Awesome Pro 7.1.0 by @fontawesome - https://fontawesome.com License - https://fontawesome.com/license (Commercial License) Copyright 2025 Fonticons, Inc. --><path fill="currentColor" d="M337.4 55C328 45.6 312.8 45.6 303.5 55L239.5 119C230.1 128.4 230.1 143.6 239.5 152.9C248.9 162.2 264.1 162.3 273.4 152.9L296.4 129.9L296.4 232C296.4 245.3 307.1 256 320.4 256C333.7 256 344.4 245.3 344.4 232L344.4 129.9L367.4 152.9C376.8 162.3 392 162.3 401.3 152.9C410.6 143.5 410.7 128.3 401.3 119L337.3 55zM232.6 264.1C225.9 259.7 217.5 258.9 210.1 261.9C202.7 264.9 197.3 271.5 195.8 279.3L175 382.6L71.7 403.4C63.9 405 57.3 410.4 54.3 417.7C51.3 425 52.1 433.5 56.5 440.2L82.9 480L201.7 480C220.7 433.1 266.7 400 320.4 400C374.1 400 420.1 433.1 439.1 480L557.9 480L584.3 440.2C588.7 433.5 589.5 425.1 586.5 417.7C583.5 410.3 576.9 404.9 569.1 403.4L465.8 382.6L445 279.3C443.4 271.5 438 264.9 430.7 261.9C423.4 258.9 414.9 259.7 408.2 264.1L320.4 322.3L232.6 264.1zM64.4 552C64.4 565.3 75.1 576 88.4 576L552.4 576C565.7 576 576.4 565.3 576.4 552C576.4 538.7 565.7 528 552.4 528L88.4 528C75.1 528 64.4 538.7 64.4 552z"/></svg>