<svg xmlns="http://www.w3.org/2000/svg" viewBox="0 0 640 640"><!--! Font Awesome Pro 7.1.0 by @fontawesome - https://fontawesome.com License - https://fontawesome.com/license (Commercial License) Copyright 2025 Fonticons, Inc. --><path fill="currentColor" d="M401.4 185C410.8 175.6 410.8 160.4 401.4 151.1C392 141.8 376.8 141.7 367.5 151.1L344.5 174.1L344.5 72C344.5 58.7 333.8 48 320.5 48C307.2 48 296.5 58.7 296.5 72L296.5 174.1L273.5 151.1C264.1 141.7 248.9 141.7 239.6 151.1C230.3 160.5 230.2 175.7 239.6 185L303.6 249C313 258.4 328.2 258.4 337.5 249L401.5 185zM232.6 264.1C225.9 259.7 217.5 258.9 210.1 261.9C202.7 264.9 197.3 271.5 195.8 279.3L175 382.6L71.7 403.4C63.9 405 57.3 410.4 54.3 417.7C51.3 425 52.1 433.5 56.5 440.2L82.9 480L201.7 480C220.7 433.1 266.7 400 320.4 400C374.1 400 420.1 433.1 439.1 480L557.9 480L584.3 440.2C588.7 433.5 589.5 425.1 586.5 417.7C583.5 410.3 576.9 404.9 569.1 403.4L465.8 382.6L445 279.3C443.4 271.5 438 264.9 430.7 261.9C423.4 258.9 414.9 259.7 408.2 264.1L320.4 322.3L232.6 264.1zM64.4 552C64.4 565.3 75.1 576 88.4 576L552.4 576C565.7 576 576.4 565.3 576.4 552C576.4 538.7 565.7 528 552.4 528L88.4 528C75.1 528 64.4 538.7 64.4 552z"/></svg>