<svg xmlns="http://www.w3.org/2000/svg" viewBox="0 0 640 640"><!--! Font Awesome Pro 7.1.0 by @fontawesome - https://fontawesome.com License - https://fontawesome.com/license (Commercial License) Copyright 2025 Fonticons, Inc. --><path fill="currentColor" d="M533 363.7L595.2 351.1C600.9 350 604.8 345.8 606.6 341.5C608.4 337.2 608.6 331.5 605.4 326.7L558.5 256L605.4 185.3C608.6 180.5 608.4 174.8 606.6 170.5C604.8 166.2 600.9 162 595.2 160.9L512 144L495.2 60.8C494.1 55.1 489.9 51.2 485.6 49.4C481.3 47.6 475.6 47.4 470.8 50.6L400 97.6L329.3 50.7C324.5 47.5 318.8 47.7 314.5 49.5C310.2 51.3 306 55.1 304.8 60.8L288 144L204.8 160.8C199.1 162 195.2 166.1 193.4 170.4C191.6 174.7 191.4 180.4 194.6 185.2L209.8 208C216.7 208.1 223.5 208.6 230.1 209.5L208.3 176.4L296.4 158.6C299.6 158 302 155.5 302.7 152.3L320.4 64.3L395.6 113.9C396.9 114.8 398.5 115.2 400 115.2C401.5 115.2 403.1 114.8 404.4 113.9L479.5 64.3L497.4 152.4C498 155.6 500.5 158 503.7 158.7L591.8 176.5L542.2 251.6C540.4 254.3 540.4 257.8 542.2 260.4L591.9 335.3L513.1 351.5C520.1 355.1 526.8 359.2 533.1 363.8zM320.3 249.2C325.8 247 331.4 245.2 337.2 243.7C342.9 214.2 368.9 192 400 192C435.3 192 464 220.7 464 256C464 264 462.5 271.7 459.8 278.8C463.9 283 467.8 287.6 471.3 292.4C476.9 281.5 480 269.1 480 256C480 211.8 444.2 176 400 176C358.1 176 323.7 208.2 320.3 249.2zM208 256C146.1 256 96 306.1 96 368C96 375.1 96.7 382.1 97.9 388.8C59.6 401.4 32 437.5 32 480C32 533 75 576 128 576L448 576C501 576 544 533 544 480C544 427 501 384 448 384C447.5 384 446.9 384 446.4 384C447.5 378.8 448 373.5 448 368C448 323.8 412.2 288 368 288C343.7 288 321.9 298.9 307.2 316C288.5 280.3 251.1 256 208 256zM112 368C112 315 155 272 208 272C249.3 272 284.6 298.1 298.1 334.8C299.2 337.7 301.8 339.7 304.9 340C308 340.3 311 338.7 312.5 336C323.6 316.8 344.3 304 368 304C403.3 304 432 332.7 432 368C432 375.8 430.6 383.2 428.1 390.1C427.1 392.7 427.6 395.7 429.4 397.9C431.2 400.1 434 401.2 436.7 400.8C440.4 400.3 444.2 400 448 400C492.2 400 528 435.8 528 480C528 524.2 492.2 560 448 560L128 560C83.8 560 48 524.2 48 480C48 442.3 74.1 410.6 109.3 402.2C111.4 401.7 113.2 400.4 114.3 398.5C115.4 396.6 115.7 394.4 115.2 392.4C113.2 384.6 112.1 376.4 112.1 368z"/></svg>