<svg xmlns="http://www.w3.org/2000/svg" viewBox="0 0 640 640"><!--! Font Awesome Pro 7.1.0 by @fontawesome - https://fontawesome.com License - https://fontawesome.com/license (Commercial License) Copyright 2025 Fonticons, Inc. --><path fill="currentColor" d="M416.9 69.4C419.1 67.9 421.9 67.9 424.3 68.9C426.7 69.9 428.6 71.9 429.2 74.5L451.1 182.9C451.7 186.1 454.2 188.5 457.4 189.2L565.8 211.1C568.4 211.6 570.4 213.5 571.4 216C572.4 218.5 572.3 221.2 570.9 223.4L509.7 315.6C507.9 318.3 507.9 321.8 509.7 324.4L570.9 416.6C572.4 418.8 572.4 421.6 571.4 424C570.4 426.4 568.4 428.3 565.8 428.9L457.3 450.8C454.1 451.4 451.7 453.9 451 457.1L429.1 565.5C428.6 568.1 426.7 570.1 424.2 571.1C421.7 572.1 419 572 416.8 570.6L324.6 509.4C321.9 507.6 318.4 507.6 315.8 509.4L223.6 570.6C221.4 572.1 218.6 572.1 216.2 571.1C213.8 570.1 211.9 568.1 211.3 565.5L189.5 457.1C188.9 453.9 186.4 451.5 183.2 450.8L74.8 428.9C72.2 428.4 70.2 426.5 69.2 424C68.2 421.5 68.3 418.8 69.7 416.6L130.9 324.4C132.7 321.7 132.7 318.2 130.9 315.6L69.7 223.4C68.2 221.2 68.2 218.4 69.2 216C70.2 213.6 72.2 211.7 74.8 211.1L183.2 189.2C186.4 188.6 188.8 186.1 189.5 182.9L211.4 74.5C211.9 71.9 213.8 69.9 216.3 68.9C218.8 67.9 221.5 68 223.7 69.4L315.9 130.6C318.6 132.4 322.1 132.4 324.7 130.6L416.9 69.4zM430.4 54.1C424.1 51.5 415.5 51.1 408 56.1L320.2 114.3L232.4 56.1L232.4 56.1C225 51.2 216.4 51.5 210 54.1C203.6 56.7 197.5 62.6 195.7 71.3L174.8 174.6L71.6 195.4C62.8 197.2 57 203.5 54.4 209.8C51.8 216.1 51.4 224.7 56.4 232.2L114.6 320L56.4 407.8C51.5 415.2 51.8 423.8 54.4 430.2L54.4 430.2C57 436.5 62.8 442.8 71.6 444.6L174.8 465.5L195.7 568.7C197.5 577.5 203.8 583.3 210.1 585.9C216.4 588.5 225 588.9 232.5 583.9L320.3 525.7L408.1 583.9C415.5 588.8 424.1 588.5 430.5 585.9C436.9 583.3 443.1 577.5 444.9 568.7L465.8 465.5L569 444.6C577.8 442.8 583.6 436.5 586.2 430.2C588.8 423.9 589.2 415.3 584.2 407.8L526 320L584.2 232.2C589.1 224.8 588.8 216.2 586.2 209.8C583.6 203.4 577.8 197.2 569 195.4L465.7 174.6L444.8 71.3C443 62.6 436.7 56.8 430.4 54.1zM320.3 432C382.2 431.9 432.2 381.6 432.1 319.8C431.9 257.9 381.7 207.9 319.8 208C257.9 208.1 207.9 258.4 208.1 320.3C208.2 382.1 258.4 432.1 320.3 432zM223.7 320C222.6 284.9 240.7 251.9 270.9 234C301.2 216.1 338.7 216.1 369 234C399.2 251.9 417.3 284.9 416.2 320C417.3 355.1 399.2 388.1 369 406C338.7 423.9 301.2 423.9 270.9 406C240.7 388.1 222.6 355.1 223.7 320z"/></svg>