<svg xmlns="http://www.w3.org/2000/svg" viewBox="0 0 640 640"><!--! Font Awesome Pro 7.1.0 by @fontawesome - https://fontawesome.com License - https://fontawesome.com/license (Commercial License) Copyright 2025 Fonticons, Inc. --><path fill="currentColor" d="M256 304C317.9 304 368 253.9 368 192C368 130.1 317.9 80 256 80C194.1 80 144 130.1 144 192C144 253.9 194.1 304 256 304zM256 64C326.7 64 384 121.3 384 192C384 262.7 326.7 320 256 320C185.3 320 128 262.7 128 192C128 121.3 185.3 64 256 64zM208 384C119.6 384 48 455.6 48 544L48 568C48 572.4 44.4 576 40 576C35.6 576 32 572.4 32 568L32 544C32 446.8 110.8 368 208 368L304 368C401.2 368 480 446.8 480 544L480 568C480 572.4 476.4 576 472 576C467.6 576 464 572.4 464 568L464 544C464 455.6 392.4 384 304 384L208 384zM456 248L632 248C636.4 248 640 251.6 640 256C640 260.4 636.4 264 632 264L456 264C451.6 264 448 260.4 448 256C448 251.6 451.6 248 456 248z"/></svg>