<svg xmlns="http://www.w3.org/2000/svg" viewBox="0 0 640 640"><!--! Font Awesome Pro 7.1.0 by @fontawesome - https://fontawesome.com License - https://fontawesome.com/license (Commercial License) Copyright 2025 Fonticons, Inc. --><path opacity=".4" fill="currentColor" d="M88.8 258L129 297.1C134.8 302.7 137.9 309.9 138.6 317.3L141.4 320L138.6 322.7C138 330.1 134.8 337.3 129 342.9L88.8 382L143.1 395.8C150.9 397.8 157.3 402.4 161.5 408.5L165.3 409.5L164.2 413.2C167.4 419.9 168.2 427.8 166 435.5L150.8 489.4L204.7 474.2C212.4 472 220.3 472.9 227 476L230.7 474.9L231.7 478.7C237.8 482.9 242.5 489.3 244.4 497.1L258.2 551.4L308.8 499.5C311.8 496.4 315.9 494.7 320.3 494.7C324.7 494.7 328.8 496.4 331.8 499.5L382.4 551.4L396.2 497.1C398.2 489.3 402.8 482.9 408.9 478.7L409.9 474.9L413.6 476C420.3 472.8 428.2 472 435.9 474.2L489.8 489.4L474.6 435.5C472.4 427.8 473.3 419.9 476.4 413.2L475.3 409.5L479.1 408.5C483.3 402.4 489.7 397.7 497.5 395.8L551.8 382L511.6 342.9C505.8 337.3 502.7 330.1 502 322.7L499.2 320L502 317.3C502.6 309.9 505.8 302.7 511.6 297.1L551.8 258L497.5 244.2C489.7 242.2 483.3 237.6 479.1 231.5L475.3 230.5L476.4 226.8C473.2 220.1 472.4 212.2 474.6 204.5L489.8 150.6L435.9 165.8C428.2 168 420.3 167.1 413.6 164L409.9 165.1L408.9 161.3C402.7 157 398 150.7 396.1 142.9L382.3 88.6L343.2 128.8C337.6 134.6 330.4 137.7 323 138.4L320.3 141.2L317.6 138.4C310.2 137.8 303 134.6 297.4 128.8L258.3 88.6L244.5 142.9C242.5 150.7 237.9 157.1 231.8 161.3L230.8 165.1L227.1 164C220.4 167.2 212.5 168 204.8 165.8L150.9 150.6L166.1 204.5C168.3 212.2 167.4 220.1 164.3 226.8L165.4 230.5L161.6 231.5C157.4 237.6 151 242.3 143.2 244.2L88.8 258z"/><path fill="currentColor" d="M258.3 88.5L244.5 142.9C240.1 160.4 222.1 170.7 204.8 165.8L150.9 150.6L166.1 204.5C171 221.8 160.6 239.8 143.2 244.2L88.8 258L129 297.1C141.9 309.7 141.9 330.4 129 343L88.8 382L143.1 395.8C160.6 400.2 170.9 418.2 166 435.5L150.8 489.4L204.7 474.2C222 469.3 240 479.7 244.4 497.1L258.2 551.4L308.8 499.5C311.8 496.4 315.9 494.7 320.3 494.7C324.7 494.7 328.8 496.4 331.8 499.5L382.4 551.4L396.2 497.1C400.6 479.6 418.6 469.3 435.9 474.2L489.8 489.4L474.6 435.5C469.7 418.2 480.1 400.2 497.5 395.8L551.8 382L511.6 342.9C498.7 330.3 498.7 309.6 511.6 297L551.8 257.9L497.5 244.1C480 239.7 469.7 221.7 474.6 204.4L489.8 150.5L435.9 165.7C418.6 170.6 400.6 160.2 396.2 142.8L382.4 88.5L343.3 128.7C330.7 141.6 310 141.6 297.4 128.7L258.3 88.5zM137.1 146.7L137.1 146.7L137.1 146.7C137.1 146.7 137.1 146.7 137.1 146.7zM271.2 56L271.2 56L320.3 106.4L369.4 56C382.4 42.6 405.3 48.8 409.9 66.8L427.1 135L494.8 115.9C503.2 113.5 512.2 115.9 518.3 122C524.4 128.1 526.8 137.1 524.4 145.5C509 141.1 509 141.2 524.4 145.5L505.3 213.2L573.5 230.5C581.9 232.6 588.5 239.2 590.8 247.6C593.1 256 590.6 264.9 584.4 271L534 320.1L584.4 369.2C590.6 375.3 593.1 384.2 590.8 392.6C588.5 401 581.9 407.5 573.5 409.7L505.3 427L524.4 494.7C526.8 503.1 524.4 512.1 518.3 518.2C512.2 524.3 503.2 526.7 494.8 524.3L494.8 524.3L427.1 505.2L409.8 573.4C407.7 581.8 401.1 588.4 392.8 590.7C384.5 593 375.4 590.5 369.4 584.3L320.3 533.9L271.2 584.3C259.7 573.1 259.7 573.1 271.2 584.3C265.1 590.5 256.2 593 247.8 590.7C239.4 588.4 232.9 581.8 230.7 573.4L213.4 505.2L145.7 524.3C137.3 526.7 128.3 524.3 122.2 518.2C116.1 512.1 113.7 503.1 116.1 494.7L135.2 427L67 409.7L70.9 394.2L70.9 394.1zM71 394L67.1 409.5C58.7 407.4 52.1 400.8 49.8 392.4C47.5 384 50 375.1 56.2 369L106.7 320L56.3 270.9C50.1 264.8 47.6 255.9 49.9 247.5C52.2 239.1 58.8 232.6 67.2 230.4L135.4 213.1L116.3 145.4C113.9 137 116.3 128 122.4 121.9C128.5 115.8 137.5 113.4 145.9 115.8L213.5 135L230.8 66.8C235.4 48.7 258.3 42.6 271.3 56z"/></svg>