<svg xmlns="http://www.w3.org/2000/svg" viewBox="0 0 640 640"><!--! Font Awesome Pro 7.1.0 by @fontawesome - https://fontawesome.com License - https://fontawesome.com/license (Commercial License) Copyright 2025 Fonticons, Inc. --><path opacity=".4" fill="currentColor" d="M64 480C64 515.3 92.7 544 128 544L448 544C483.3 544 512 515.3 512 480C512 444.7 483.3 416 448 416C442.1 416 436.4 416.8 431.1 418.3C425.2 419.9 419 418.1 414.9 413.5C410.8 408.9 409.7 402.5 412 396.9C414.6 390.5 416 383.4 416 376C416 345.1 390.9 320 360 320C340.1 320 322.6 330.4 312.6 346.1C309.3 351.3 303.3 354.2 297.1 353.4C290.9 352.6 285.8 348.4 283.8 342.6C273.2 310.8 243.2 287.9 207.9 287.9C163.7 287.9 127.9 323.7 127.9 367.9C127.9 377.5 129.6 386.6 132.6 395.1C134.3 399.7 133.7 404.7 131.2 408.9C128.7 413.1 124.4 415.8 119.6 416.4C88.3 420.6 64 447.5 64 480zM234.4 187.4L252.2 214.2C275.3 220.8 296.3 232.6 313.9 248.1C316.1 247.3 318.4 246.5 320.7 245.9C325.7 206.5 359.3 176.1 400.1 176.1C444.3 176.1 480.1 211.9 480.1 256.1C480.1 270.5 476.3 283.9 469.7 295.6C479.5 308.9 486.9 324 491.3 340.3C492.6 339.7 493.9 339.2 495.3 338.9L565.6 324.7L525.9 264.9C522.4 259.6 522.4 252.6 525.9 247.3L565.6 187.5L495.3 173.3C489 172 484.1 167.1 482.8 160.8L468.6 90.4L408.8 130C403.5 133.5 396.5 133.5 391.2 130L331.4 90.4L317.2 160.7C315.9 167 311 171.9 304.7 173.2L234.4 187.4z"/><path fill="currentColor" d="M485.6 49.2C480.7 47.2 475.1 47.7 470.7 50.6L400 97.6L329.3 50.7C324.9 47.8 319.3 47.2 314.4 49.3C309.5 51.4 305.9 55.7 304.9 60.9L288 144L204.8 160.8C199.6 161.9 195.3 165.4 193.2 170.3C191.1 175.2 191.7 180.8 194.6 185.2L209.8 208C224.5 208.2 238.7 210.3 252.2 214.2L234.4 187.4L304.7 173.2C311 171.9 315.9 167 317.2 160.7L331.4 90.4L391.2 130C396.5 133.5 403.5 133.5 408.8 130L468.6 90.4L482.8 160.7C484.1 167 489 171.9 495.3 173.2L565.6 187.4L525.9 247.2C522.4 252.5 522.4 259.5 525.9 264.8L565.6 324.6L495.3 338.8C493.9 339.1 492.5 339.6 491.3 340.2C491.5 341.1 491.8 341.9 492 342.8C506.9 347.6 520.7 354.7 533.1 363.7L595.3 351.1C600.5 350 604.8 346.5 606.9 341.6C609 336.7 608.4 331.1 605.5 326.7L558.6 256L605.5 185.3C608.4 180.9 609 175.3 606.9 170.4C604.8 165.5 600.5 161.9 595.3 160.9L512 144L495.2 60.8C494.1 55.6 490.6 51.3 485.7 49.2zM480 256C480 211.8 444.2 176 400 176C359.3 176 325.7 206.4 320.6 245.8C331.4 242.5 342.8 240.6 354.7 240.1C361.3 221.4 379.1 208 400 208C426.5 208 448 229.5 448 256C448 261 447.2 265.9 445.8 270.5C454.8 277.8 462.8 286.2 469.6 295.5C476.2 283.9 480 270.4 480 256zM128 368C128 323.8 163.8 288 208 288C243.3 288 273.3 310.9 283.9 342.7C285.9 348.6 291 352.8 297.2 353.5C303.4 354.2 309.4 351.4 312.7 346.2C322.6 330.5 340.2 320.1 360.1 320.1C391 320.1 416.1 345.2 416.1 376.1C416.1 383.5 414.7 390.5 412.1 397C409.8 402.6 411 409.1 415 413.6C419 418.1 425.3 420 431.2 418.4C436.6 416.9 442.3 416.1 448.1 416.1C483.4 416.1 512.1 444.8 512.1 480.1C512.1 515.4 483.4 544.1 448.1 544.1L128 544C92.7 544 64 515.3 64 480C64 447.5 88.3 420.6 119.7 416.5C124.5 415.9 128.8 413.1 131.3 409C133.8 404.9 134.3 399.8 132.7 395.2C129.7 386.7 128 377.6 128 368zM208 256C146.1 256 96 306.1 96 368C96 375.1 96.7 382.1 97.9 388.8C59.6 401.4 32 437.5 32 480C32 533 75 576 128 576L448 576C501 576 544 533 544 480C544 427 501 384 448 384L447.6 384C447.8 381.4 448 378.7 448 376C448 327.4 408.6 288 360 288C338.3 288 318.5 295.9 303.1 308.9C283.3 277.2 248.1 256 208 256z"/></svg>