<svg xmlns="http://www.w3.org/2000/svg" viewBox="0 0 640 640"><!--! Font Awesome Pro 7.1.0 by @fontawesome - https://fontawesome.com License - https://fontawesome.com/license (Commercial License) Copyright 2025 Fonticons, Inc. --><path fill="currentColor" d="M128 96L608 96L608 400L512 400L512 352L384 352L384 400L263.4 400L259.5 391.2C267.5 374.5 272 355.8 272 336C272 265.3 214.7 208 144 208C138.6 208 133.2 208.3 128 209L128 96zM312.4 512L284.4 448L608 448L608 512L312.4 512zM64 336C64 291.8 99.8 256 144 256C188.2 256 224 291.8 224 336C224 380.2 188.2 416 144 416C99.8 416 64 380.2 64 336zM232 448L288 576L0 576L56 448L232 448z"/></svg>