<svg xmlns="http://www.w3.org/2000/svg" viewBox="0 0 640 640"><!--! Font Awesome Pro 7.1.0 by @fontawesome - https://fontawesome.com License - https://fontawesome.com/license (Commercial License) Copyright 2025 Fonticons, Inc. --><path fill="currentColor" d="M335.6 60.8L330.9 37.6C326.2 40.7 296.1 60.7 240.4 97.6C184.8 60.7 154.6 40.7 149.9 37.6C148.8 43.1 141.6 78.6 128.4 144C63 157.2 27.5 164.4 22 165.5C25.1 170.2 45.1 200.4 82 256C45.1 311.6 25.1 341.8 22 346.5C27.5 347.6 63 354.8 128.4 368C141.6 433.4 148.8 468.9 149.9 474.4C159.9 467.8 179.4 454.8 208.4 435.6L208.4 346.5C171.1 333.3 144.4 297.8 144.4 256C144.4 203 187.4 160 240.4 160C262.1 160 282.2 167.2 298.2 179.4C313.7 161.8 335.1 149.4 359.3 145.4L352.3 144L335.5 60.8zM275.4 223.1C266.6 213.8 254.2 208 240.4 208C213.9 208 192.4 229.5 192.4 256C192.4 273 201.3 288 214.6 296.5C224.8 265.1 246.7 239.1 275.3 223.5L275.4 223.1zM608.4 416L608.4 336C608.4 302.1 587.3 273.1 557.5 261.5C559.4 254.7 560.4 247.5 560.4 240C560.4 195.8 524.6 160 480.4 160C449.6 160 422.9 177.4 409.5 202.8C400.2 196 388.8 192 376.4 192C342.2 192 315.5 224 321.2 257.4C284.3 264.5 256.4 297 256.4 336L256.4 416L608.4 416zM255.1 576L305.7 576L343 464L292.4 464L255.1 576zM545.7 576L583 464L532.4 464L495.1 576L545.7 576zM425.7 576L463 464L412.4 464L375.1 576L425.7 576z"/></svg>