<svg xmlns="http://www.w3.org/2000/svg" viewBox="0 0 640 640"><!--! Font Awesome Pro 7.1.0 by @fontawesome - https://fontawesome.com License - https://fontawesome.com/license (Commercial License) Copyright 2025 Fonticons, Inc. --><path fill="currentColor" d="M362.5 37.6C363.6 43.1 370.8 78.6 384 144C449.4 157.2 484.9 164.4 490.4 165.5C482.3 177.7 472.2 192.9 460.2 211.1C451.1 209.1 441.7 208 432 208C406.9 208 383.5 215.2 363.8 227.7C351.7 188.5 315.2 160 272 160C219 160 176 203 176 256C176 269.6 178.8 282.5 183.9 294.2C160.1 310.4 142.1 334.5 133.5 362.6C90.1 353.8 63.5 348.4 53.5 346.4C56.6 341.7 76.6 311.5 113.5 255.9C76.6 200.3 56.6 170.1 53.5 165.4C59 164.3 94.5 157.1 159.9 143.9C173.1 78.5 180.3 43 181.4 37.5C186.1 40.6 216.3 60.6 271.9 97.5C327.5 60.6 357.7 40.6 362.4 37.5zM305.7 282C290.4 275.6 273.7 272 256 272C246.4 272 237 273.1 227.9 275.1C225.4 269.3 224 262.8 224 256C224 229.5 245.5 208 272 208C298.5 208 320 229.5 320 256C320 264.1 318 271.8 314.4 278.5C311.4 279.6 308.5 280.7 305.6 282zM518.7 448C507.5 420.4 487 397.6 461.1 383.5C450.1 337.9 409 304 360 304L358.7 304C371 275.7 399.2 256 432 256C467 256 496.8 278.5 507.6 309.8C516.3 306.1 525.9 304 536 304C575.8 304 608 336.2 608 376L608 448L518.7 448zM128 496C128 462.1 149.1 433.1 178.9 421.4C177 414.6 176 407.4 176 399.9C176 355.7 211.8 319.9 256 319.9C286.8 319.9 313.5 337.3 326.9 362.7C336.2 355.9 347.6 351.9 360 351.9C394.2 351.9 420.9 383.9 415.2 417.3C452.1 424.4 480 456.9 480 495.9L480 575.9L128 575.9L128 495.9z"/></svg>