<svg xmlns="http://www.w3.org/2000/svg" viewBox="0 0 640 640"><!--! Font Awesome Pro 7.1.0 by @fontawesome - https://fontawesome.com License - https://fontawesome.com/license (Commercial License) Copyright 2025 Fonticons, Inc. --><path fill="currentColor" d="M490.9 37.6C492 43.1 499.2 78.6 512.4 144C577.8 157.2 613.3 164.4 618.8 165.5C615.7 170.2 595.7 200.4 558.8 256C595.7 311.6 615.7 341.8 618.8 346.5C609.8 348.3 581.3 354.1 533.4 363.8C521.5 355.1 508.3 348.2 494.1 343.4C491.6 330.7 487.3 318.7 481.4 307.7C490.9 292.8 496.5 275.1 496.5 256C496.5 203 453.5 160 400.5 160C352.6 160 312.9 195.1 305.7 240.9C279.2 220.6 246.2 208.4 210.3 208C199.9 192.4 190.5 178.2 182.1 165.5C187.6 164.4 223.1 157.2 288.5 144C301.7 78.6 308.9 43.1 310 37.6C314.7 40.7 344.8 60.7 400.5 97.6C456.1 60.7 486.3 40.7 491 37.6zM448.4 256C448.4 259.8 448 263.5 447.1 267.1C425.4 250.1 398.1 240 368.4 240C363.8 240 359.3 240.2 354.9 240.7C361.3 221.7 379.3 208 400.4 208C426.9 208 448.4 229.5 448.4 256zM128.4 576L32.4 576L32.4 480C32.4 438.2 59.1 402.6 96.4 389.5L96.4 368C96.4 306.1 146.5 256 208.4 256C251.5 256 288.9 280.3 307.6 316C322.3 298.9 344.1 288 368.4 288C412.6 288 448.4 323.8 448.4 368L448.4 384C501.4 384 544.4 427 544.4 480L544.4 576L128.4 576z"/></svg>