<svg xmlns="http://www.w3.org/2000/svg" viewBox="0 0 640 640"><!--! Font Awesome Pro 7.1.0 by @fontawesome - https://fontawesome.com License - https://fontawesome.com/license (Commercial License) Copyright 2025 Fonticons, Inc. --><path fill="currentColor" d="M165.6 43.8C176.2 50.9 214.4 76.2 280 119.7C345.6 76.2 383.8 50.9 394.4 43.8C398.8 65.4 404.2 92.1 410.6 123.9C371.2 137.8 337.2 163.3 312.8 196.3C302.3 193.5 291.3 192.1 280 192.1C209.3 192.1 152 249.4 152 320.1C152 390.8 209.3 448.1 280 448.1C291.3 448.1 302.3 446.6 312.8 443.9C337.2 476.9 371.2 502.4 410.6 516.3C404.2 548.1 398.8 574.8 394.4 596.4C383.8 589.3 345.6 564 280 520.5C214.4 564 176.2 589.3 165.6 596.4C163.1 583.9 154 539 138.4 461.8C61.2 446.2 16.3 437.1 3.8 434.6C10.9 424 36.2 385.8 79.7 320.2C36.2 254.6 10.9 216.4 3.8 205.8C16.3 203.3 61.2 194.2 138.4 178.6C154 101.4 163.1 56.5 165.6 44zM280 240C282.6 240 285.2 240.1 287.8 240.4C277.6 264.9 272 291.8 272 320C272 348.2 277.6 375.1 287.8 399.6C285.2 399.8 282.6 400 280 400C235.8 400 200 364.2 200 320C200 275.8 235.8 240 280 240zM480 160C568.4 160 640 231.6 640 320C640 408.4 568.4 480 480 480C391.6 480 320 408.4 320 320C320 231.6 391.6 160 480 160z"/></svg>