<svg xmlns="http://www.w3.org/2000/svg" viewBox="0 0 640 640"><!--! Font Awesome Pro 7.1.0 by @fontawesome - https://fontawesome.com License - https://fontawesome.com/license (Commercial License) Copyright 2025 Fonticons, Inc. --><path fill="currentColor" d="M205.8 43.8C216.4 50.9 254.6 76.2 320.2 119.7C385.8 76.2 424 50.9 434.6 43.8C437.1 56.3 446.2 101.2 461.8 178.4C539 194 583.9 203.1 596.4 205.6C589.3 216.2 564 254.4 520.5 320C564 385.6 589.3 423.8 596.4 434.4C583.9 436.9 539 446 461.8 461.6C446.2 538.8 437.1 583.7 434.6 596.2C424 589.1 385.8 563.8 320.2 520.3C254.6 563.8 216.4 589.1 205.8 596.2C203.3 583.7 194.2 538.8 178.6 461.6C101.4 446 56.5 436.9 44 434.4C51.1 423.8 76.4 385.6 119.9 320C76.4 254.4 51.1 216.2 44 205.6C56.5 203.1 101.4 194 178.6 178.4C194.2 101.2 203.3 56.3 205.8 43.8zM464.2 320C464.2 240.3 399.6 175.8 320 175.8C240.3 175.8 175.7 240.3 175.7 320C175.7 399.7 240.3 464.3 320 464.3C399.6 464.3 464.2 399.7 464.2 320zM320.2 296C320.2 335.8 352.4 368 392.2 368C396.2 368 400.1 367.7 403.9 367.1C387.4 396.3 356.1 416 320.2 416C267.2 416 224.2 373 224.2 320C224.2 267 267.2 224 320.2 224C334 224 347.1 226.9 358.9 232.1C335.9 244.1 320.2 268.2 320.2 296z"/></svg>