<svg xmlns="http://www.w3.org/2000/svg" viewBox="0 0 640 640"><!--! Font Awesome Pro 7.1.0 by @fontawesome - https://fontawesome.com License - https://fontawesome.com/license (Commercial License) Copyright 2025 Fonticons, Inc. --><path fill="currentColor" d="M205.6 43.8C216.2 50.9 254.4 76.2 320 119.7C385.6 76.2 423.8 50.9 434.4 43.8C436.9 56.3 446 101.2 461.6 178.4C538.8 194 583.7 203.1 596.2 205.6C589.1 216.2 563.8 254.4 520.3 320L566 388.8C545.9 375.6 521.9 368 496 368C471.5 368 448.6 374.9 429.2 386.8C441.1 367.4 448 344.5 448 320C448 249.3 390.7 192 320 192C249.3 192 192 249.3 192 320C192 387.6 244.4 442.9 310.8 447.7C287 469.6 272 501.1 272 536L272 552.2C246.4 569.2 224.2 583.9 205.6 596.3C203.1 583.8 194 538.9 178.4 461.7C101.2 446.1 56.3 437 43.8 434.5C50.9 423.9 76.2 385.7 119.7 320.1C76.2 254.5 50.9 216.3 43.8 205.7C56.3 203.2 101.2 194.1 178.4 178.5C194 101.3 203.1 56.4 205.6 43.9zM240 320C240 275.8 275.8 240 320 240C364.2 240 400 275.8 400 320C400 364.2 364.2 400 320 400C275.8 400 240 364.2 240 320zM576 608L320 608L320 536C320 496.2 352.2 464 392 464C402.1 464 411.7 466.1 420.4 469.8C431.2 438.5 461 416 496 416C534.7 416 567 443.5 574.4 480C574.9 480 575.5 480 576 480C611.3 480 640 508.7 640 544L640 608L576 608z"/></svg>