<svg xmlns="http://www.w3.org/2000/svg" viewBox="0 0 640 640"><!--! Font Awesome Pro 7.1.0 by @fontawesome - https://fontawesome.com License - https://fontawesome.com/license (Commercial License) Copyright 2025 Fonticons, Inc. --><path fill="currentColor" d="M205.6 43.8C216.2 50.9 254.4 76.2 320 119.7C385.6 76.2 423.8 50.9 434.4 43.8C436.9 56.3 446 101.2 461.6 178.4C538.8 194 583.7 203.1 596.2 205.6C589.1 216.2 563.8 254.4 520.3 320L562.8 384L430.9 384C441.8 365.2 448 343.3 448 320C448 249.3 390.7 192 320 192C249.3 192 192 249.3 192 320C192 343.3 198.2 365.2 209.1 384L77.2 384L119.7 320C76.1 254.4 50.8 216.2 43.8 205.6C56.3 203 101.2 194 178.4 178.3C194 101.1 203 56.3 205.6 43.8zM400 320C400 346.2 387.4 369.4 368 384L272 384C252.6 369.4 240 346.2 240 320C240 275.8 275.8 240 320 240C364.2 240 400 275.8 400 320zM544 432L544 480L32 480L32 432L544 432zM96 528L224 528L224 576L96 576L96 528zM272 528L608 528L608 576L272 576L272 528z"/></svg>