<svg xmlns="http://www.w3.org/2000/svg" viewBox="0 0 640 640"><!--! Font Awesome Pro 7.1.0 by @fontawesome - https://fontawesome.com License - https://fontawesome.com/license (Commercial License) Copyright 2025 Fonticons, Inc. --><path fill="currentColor" d="M441.7 78.7L459.2 165L402.4 221.8C380.2 203.2 351.5 192 320.2 192C249.5 192 192.2 249.3 192.2 320C192.2 351.3 203.4 379.9 222 402.2L165.2 459C99.2 445.6 58.7 437.4 44 434.4C51.1 423.8 76.4 385.6 119.9 320C76.4 254.4 51.1 216.2 44 205.6C56.5 203 101.4 194 178.6 178.3C194.2 101.1 203.3 56.3 205.8 43.8C216.5 50.8 254.6 76.1 320.2 119.7C385.9 76.1 424 50.8 434.6 43.8L441.7 78.8zM320.2 240C338.2 240 354.8 246 368.2 256L256.2 368C246.2 354.6 240.2 338 240.2 320C240.2 275.8 276 240 320.2 240zM512.2 224C512.2 206.3 526.5 192 544.2 192C561.9 192 576.2 206.3 576.2 224C576.2 241.7 561.9 256 544.2 256C526.5 256 512.2 241.7 512.2 224zM432.2 304C432.2 286.3 446.5 272 464.2 272C481.9 272 496.2 286.3 496.2 304C496.2 321.7 481.9 336 464.2 336C446.5 336 432.2 321.7 432.2 304zM544.2 352C561.9 352 576.2 366.3 576.2 384C576.2 401.7 561.9 416 544.2 416C526.5 416 512.2 401.7 512.2 384C512.2 366.3 526.5 352 544.2 352zM304.2 432C321.9 432 336.2 446.3 336.2 464C336.2 481.7 321.9 496 304.2 496C286.5 496 272.2 481.7 272.2 464C272.2 446.3 286.5 432 304.2 432zM224.2 512C241.9 512 256.2 526.3 256.2 544C256.2 561.7 241.9 576 224.2 576C206.5 576 192.2 561.7 192.2 544C192.2 526.3 206.5 512 224.2 512zM352.2 544C352.2 526.3 366.5 512 384.2 512C401.9 512 416.2 526.3 416.2 544C416.2 561.7 401.9 576 384.2 576C366.5 576 352.2 561.7 352.2 544zM544.2 512C561.9 512 576.2 526.3 576.2 544C576.2 561.7 561.9 576 544.2 576C526.5 576 512.2 561.7 512.2 544C512.2 526.3 526.5 512 544.2 512zM432.2 464C432.2 446.3 446.5 432 464.2 432C481.9 432 496.2 446.3 496.2 464C496.2 481.7 481.9 496 464.2 496C446.5 496 432.2 481.7 432.2 464zM384.2 352C401.9 352 416.2 366.3 416.2 384C416.2 401.7 401.9 416 384.2 416C366.5 416 352.2 401.7 352.2 384C352.2 366.3 366.5 352 384.2 352z"/></svg>