<svg xmlns="http://www.w3.org/2000/svg" viewBox="0 0 640 640"><!--! Font Awesome Pro 7.1.0 by @fontawesome - https://fontawesome.com License - https://fontawesome.com/license (Commercial License) Copyright 2025 Fonticons, Inc. --><path fill="currentColor" d="M337.2 249C387.7 198.5 414.7 171.5 418.2 168L384.2 134.1C373.9 144.4 360.6 157.7 344.2 174.1L344.2 48L296.2 48L296.2 174.1L256.2 134.1L222.3 168C225.8 171.5 252.8 198.5 303.3 249L320.3 266L337.3 249zM235.5 271.5L205.8 251.8C203.3 264.3 194.2 309.2 178.6 386.4C101.4 402 56.5 411.1 44 413.6C56.4 432.2 71.1 454.4 88.1 480L201.6 480C220.6 433.1 266.6 400 320.3 400C374 400 420 433.1 439 480L552.5 480C569.5 454.4 584.2 432.2 596.6 413.6C584.1 411.1 539.2 402 462 386.4C446.4 309.2 437.3 264.3 434.8 251.8C424.2 258.9 386 284.2 320.4 327.7L235.7 271.5zM64.2 528L64.2 576L576.2 576L576.2 528L64.2 528z"/></svg>