<svg xmlns="http://www.w3.org/2000/svg" viewBox="0 0 640 640"><!--! Font Awesome Pro 7.1.0 by @fontawesome - https://fontawesome.com License - https://fontawesome.com/license (Commercial License) Copyright 2025 Fonticons, Inc. --><path fill="currentColor" d="M104.4 192C104.4 125.7 158.1 72 224.4 72C290.7 72 344.4 125.7 344.4 192C344.4 258.3 290.7 312 224.4 312C158.1 312 104.4 258.3 104.4 192zM368.4 368L432.4 576L16.4 576L80.4 368L368.4 368zM629.2 205.1C620.7 213.6 603.7 230.6 578.3 256C603.8 281.5 620.7 298.4 629.2 306.9L595.3 340.8L544.4 289.9C518.9 315.4 502 332.3 493.5 340.8L459.6 306.9C468.1 298.4 485.1 281.4 510.5 256C485 230.5 468.1 213.6 459.6 205.1L493.5 171.2C502 179.7 519 196.7 544.4 222.1C569.9 196.6 586.8 179.7 595.3 171.2L629.2 205.1z"/></svg>