<svg xmlns="http://www.w3.org/2000/svg" viewBox="0 0 640 640"><!--! Font Awesome Pro 7.1.0 by @fontawesome - https://fontawesome.com License - https://fontawesome.com/license (Commercial License) Copyright 2025 Fonticons, Inc. --><path fill="currentColor" d="M136 192C136 125.7 189.7 72 256 72C322.3 72 376 125.7 376 192C376 258.3 322.3 312 256 312C189.7 312 136 258.3 136 192zM400 368L464 576L48 576L112 368L400 368zM520 352L520 280L448 280L448 232L520 232L520 160L568 160L568 232L640 232L640 280L568 280L568 352L520 352z"/></svg>