<svg xmlns="http://www.w3.org/2000/svg" viewBox="0 0 640 640"><!--! Font Awesome Pro 7.1.0 by @fontawesome - https://fontawesome.com License - https://fontawesome.com/license (Commercial License) Copyright 2025 Fonticons, Inc. --><path opacity=".4" fill="currentColor" d="M304.4 336L304.4 368L560.4 368L560.4 328C560.4 309.4 547.7 293.7 530.4 289.3L512.4 284.7L512.4 240.1C512.4 222.4 498.1 208.1 480.4 208.1C467.7 208.1 456.6 215.5 451.5 226.4L445 240.1L392.4 240.1C379.1 240.1 368.4 250.8 368.4 264.1L368.4 304.1L336.4 304.1C318.7 304.1 304.4 318.4 304.4 336.1z"/><path fill="currentColor" d="M335.6 60.8L330.9 37.6C326.2 40.7 296.1 60.7 240.4 97.6C184.8 60.7 154.6 40.7 149.9 37.6C148.8 43.1 141.6 78.6 128.4 144C63 157.2 27.5 164.4 22 165.5C25.1 170.2 45.1 200.4 82 256C45.1 311.6 25.1 341.8 22 346.5C27.5 347.6 63 354.8 128.4 368C141.6 433.4 148.8 468.9 149.9 474.4C159.9 467.8 179.4 454.8 208.4 435.6L208.4 346.5C171.1 333.3 144.4 297.8 144.4 256C144.4 203 187.4 160 240.4 160C264.5 160 286.5 168.9 303.4 183.5C319.8 165.4 341.7 152.2 366.5 146.8L352.5 144L335.7 60.8zM214.6 296.5C224.8 265 246.9 238.9 275.6 223.4C266.8 214 254.3 208.1 240.4 208.1C213.9 208.1 192.4 229.6 192.4 256.1C192.4 273.1 201.3 288.1 214.6 296.6zM416.4 192L392.4 192C354.8 192 324 220.8 320.7 257.5C284 264.8 256.4 297.2 256.4 336L256.4 416L608.4 416L608.4 328C608.4 293.8 588.9 264.2 560.4 249.6L560.4 240C560.4 195.8 524.6 160 480.4 160C454.2 160 431 172.6 416.4 192zM480.4 208C498.1 208 512.4 222.3 512.4 240L512.4 284.6L530.4 289.2C547.7 293.6 560.4 309.3 560.4 327.9L560.4 367.9L304.4 367.9L304.4 335.9C304.4 318.2 318.7 303.9 336.4 303.9L368.4 303.9L368.4 263.9C368.4 250.6 379.1 239.9 392.4 239.9L445 239.9L451.5 226.2C456.7 215.3 467.7 207.9 480.4 207.9zM292.4 464L255.1 576L305.7 576L343 464L292.4 464zM583 464L532.4 464L495.1 576L545.7 576L583 464zM463 464L412.4 464L375.1 576L425.7 576L463 464z"/></svg>