<svg xmlns="http://www.w3.org/2000/svg" viewBox="0 0 640 640"><!--! Font Awesome Pro 7.1.0 by @fontawesome - https://fontawesome.com License - https://fontawesome.com/license (Commercial License) Copyright 2025 Fonticons, Inc. --><path opacity=".4" fill="currentColor" d="M83.2 238.5L163.5 222.3L179.1 219.1L182.3 203.5L198.5 123.2L266.7 168.5L280 177.3L293.3 168.5L361.5 123.2L366.1 145.9C336 165.6 311.4 192.9 294.8 225.1C290 224.3 285 224 280 224C227 224 184 267 184 320C184 373 227 416 280 416C285 416 290 415.6 294.8 414.9C311.3 447.1 336 474.4 366.1 494.1L361.5 516.8L293.3 471.5L280 462.7L266.7 471.5L198.5 516.8L182.3 436.5L179.1 420.9L163.5 417.7L83.2 401.5L128.5 333.3L137.3 320L128.5 306.7L83.2 238.5z"/><path fill="currentColor" d="M195.3 63.5L165.6 43.8C163.1 56.3 154 101.2 138.4 178.4C61.2 194 16.3 203.1 3.8 205.6C10.9 216.2 36.2 254.4 79.7 320C36.2 385.6 10.9 423.8 3.8 434.4C16.3 436.9 61.2 446 138.4 461.6C154 538.8 163.1 583.7 165.6 596.2C176.2 589.1 214.4 563.8 280 520.3C345.6 563.8 383.8 589.1 394.4 596.2C398.8 574.6 404.2 547.9 410.6 516.1C394.8 510.5 379.9 503.1 366.1 494L361.5 516.7L293.3 471.4L280 462.6L266.7 471.4L198.5 516.7L182.3 436.4L179.1 420.8L163.5 417.6L83.2 401.4L128.5 333.2L137.3 319.9L128.5 306.6L83.2 238.4L163.5 222.2L179.1 219L182.3 203.4L198.5 123.1L266.7 168.4L280 177.2L293.3 168.4L361.5 123.1L366.1 145.8C379.9 136.8 394.8 129.3 410.6 123.7C404.2 91.9 398.8 65.2 394.4 43.6C383.8 50.7 345.6 76 280 119.5L195.3 63.5zM280 224C227 224 184 267 184 320C184 373 227 416 280 416C285 416 290 415.6 294.8 414.9C287.2 400.2 281.4 384.5 277.5 368C252.1 366.7 232 345.7 232 320.1C232 294.5 252.2 273.4 277.6 272.2C281.5 255.7 287.3 240 294.9 225.3C290.1 224.5 285.1 224.2 280.1 224.2zM368 320C368 258.1 418.1 208 480 208C541.9 208 592 258.1 592 320C592 381.9 541.9 432 480 432C418.1 432 368 381.9 368 320zM640 320C640 231.6 568.4 160 480 160C391.6 160 320 231.6 320 320C320 408.4 391.6 480 480 480C568.4 480 640 408.4 640 320z"/></svg>