<svg xmlns="http://www.w3.org/2000/svg" viewBox="0 0 640 640"><!--! Font Awesome Pro 7.1.0 by @fontawesome - https://fontawesome.com License - https://fontawesome.com/license (Commercial License) Copyright 2025 Fonticons, Inc. --><path opacity=".4" fill="currentColor" d="M123.4 238.5L203.7 222.3L219.3 219.1L222.5 203.5L238.7 123.2L306.9 168.5L320.2 177.3L333.5 168.5L401.7 123.2L417.9 203.5L418.4 205.8C405.5 218.7 392.5 231.7 379.6 244.6C363.3 231.7 342.6 224 320.2 224C267.2 224 224.2 267 224.2 320C224.2 342.4 231.9 363.1 244.8 379.4C231.9 392.3 218.9 405.3 206 418.2L203.7 417.7L123.4 401.5L168.7 333.3L177.5 320L168.7 306.7L123.4 238.5z"/><path fill="currentColor" d="M441.7 78.7L459.2 165L418.5 205.7L418 203.4L401.8 123.1L333.6 168.4L320.3 177.2L307 168.4L238.8 123.1L222.6 203.4L219.4 219L203.8 222.2L123.5 238.4L168.8 306.6L177.6 319.9L168.8 333.2L123.5 401.4L203.8 417.6L206.1 418.1L165.4 458.8C99.2 445.6 58.7 437.4 44 434.4C51.1 423.8 76.4 385.6 119.9 320C76.4 254.4 51.1 216.2 44 205.6C56.5 203 101.4 194 178.6 178.3C194.2 101.1 203.3 56.3 205.8 43.8C216.5 50.8 254.6 76.1 320.2 119.7C385.9 76.1 424 50.8 434.6 43.8L441.7 78.8zM320.2 224C342.6 224 363.3 231.7 379.6 244.6L345.2 279C337.9 274.6 329.4 272 320.2 272C293.7 272 272.2 293.5 272.2 320C272.2 329.2 274.8 337.7 279.2 345L244.8 379.4C231.9 363.1 224.2 342.4 224.2 320C224.2 267 267.2 224 320.2 224zM512.2 224C512.2 206.3 526.5 192 544.2 192C561.9 192 576.2 206.3 576.2 224C576.2 241.7 561.9 256 544.2 256C526.5 256 512.2 241.7 512.2 224zM432.2 304C432.2 286.3 446.5 272 464.2 272C481.9 272 496.2 286.3 496.2 304C496.2 321.7 481.9 336 464.2 336C446.5 336 432.2 321.7 432.2 304zM544.2 352C561.9 352 576.2 366.3 576.2 384C576.2 401.7 561.9 416 544.2 416C526.5 416 512.2 401.7 512.2 384C512.2 366.3 526.5 352 544.2 352zM304.2 432C321.9 432 336.2 446.3 336.2 464C336.2 481.7 321.9 496 304.2 496C286.5 496 272.2 481.7 272.2 464C272.2 446.3 286.5 432 304.2 432zM224.2 512C241.9 512 256.2 526.3 256.2 544C256.2 561.7 241.9 576 224.2 576C206.5 576 192.2 561.7 192.2 544C192.2 526.3 206.5 512 224.2 512zM352.2 544C352.2 526.3 366.5 512 384.2 512C401.9 512 416.2 526.3 416.2 544C416.2 561.7 401.9 576 384.2 576C366.5 576 352.2 561.7 352.2 544zM544.2 512C561.9 512 576.2 526.3 576.2 544C576.2 561.7 561.9 576 544.2 576C526.5 576 512.2 561.7 512.2 544C512.2 526.3 526.5 512 544.2 512zM432.2 464C432.2 446.3 446.5 432 464.2 432C481.9 432 496.2 446.3 496.2 464C496.2 481.7 481.9 496 464.2 496C446.5 496 432.2 481.7 432.2 464zM384.2 352C401.9 352 416.2 366.3 416.2 384C416.2 401.7 401.9 416 384.2 416C366.5 416 352.2 401.7 352.2 384C352.2 366.3 366.5 352 384.2 352z"/></svg>