<svg xmlns="http://www.w3.org/2000/svg" viewBox="0 0 640 640"><!--! Font Awesome Pro 7.1.0 by @fontawesome - https://fontawesome.com License - https://fontawesome.com/license (Commercial License) Copyright 2025 Fonticons, Inc. --><path opacity=".4" fill="currentColor" d="M144 224L144 336L296 336L296 224L144 224zM144 384L144 496L296 496L296 384L144 384zM344 224L344 336L496 336L496 224L344 224zM344 384L344 496L496 496L496 384L344 384z"/><path fill="currentColor" d="M344 224L344 336L496 336L496 224L344 224zM296 224L144 224L144 336L296 336L296 224zM96 384L96 96L544 96L544 544L96 544L96 384zM496 384L344 384L344 496L496 496L496 384zM296 496L296 384L144 384L144 496L296 496z"/></svg>