<svg xmlns="http://www.w3.org/2000/svg" viewBox="0 0 640 640"><!--! Font Awesome Pro 7.1.0 by @fontawesome - https://fontawesome.com License - https://fontawesome.com/license (Commercial License) Copyright 2025 Fonticons, Inc. --><path opacity=".4" fill="currentColor" d="M82.2 576L429.8 576L380.6 416L131.5 416L82.3 576zM176 192C176 236.2 211.8 272 256 272C300.2 272 336 236.2 336 192C336 147.8 300.2 112 256 112C211.8 112 176 147.8 176 192z"/><path fill="currentColor" d="M256 272C300.2 272 336 236.2 336 192C336 147.8 300.2 112 256 112C211.8 112 176 147.8 176 192C176 236.2 211.8 272 256 272zM131.5 416L82.3 576L32.1 576L96.1 368L416.1 368L480.1 576L429.9 576L380.7 416L131.6 416zM128 192C128 121.3 185.3 64 256 64C326.7 64 384 121.3 384 192C384 262.7 326.7 320 256 320C185.3 320 128 262.7 128 192zM472 232L640 232L640 280L448 280L448 232L472 232z"/></svg>