<svg xmlns="http://www.w3.org/2000/svg" viewBox="0 0 640 640"><!--! Font Awesome Pro 7.1.0 by @fontawesome - https://fontawesome.com License - https://fontawesome.com/license (Commercial License) Copyright 2025 Fonticons, Inc. --><path fill="currentColor" d="M335.6 60.8L330.9 37.6C326.2 40.7 296 60.7 240.4 97.6C184.8 60.7 154.6 40.7 149.9 37.6C148.8 43.1 141.6 78.6 128.4 144C63 157.2 27.5 164.4 22 165.5C25.1 170.2 45.1 200.4 82 256C45.1 311.6 25.1 341.8 22 346.5C27.5 347.6 63 354.8 128.4 368C141.6 433.4 148.8 468.9 149.9 474.4C159.9 467.8 179.4 454.8 208.4 435.6L208.4 397.3L171.8 421.6L157.6 351.3L155.5 340.9L145.1 338.8L74.8 324.6L114.4 264.8L120.3 256L114.4 247.2L74.8 187.4L145.1 173.2L155.5 171.1L157.6 160.7L171.8 90.4L231.6 130L240.4 135.9L249.2 130L309 90.4L319.5 142.3C328.9 137.2 339.1 133.4 349.8 130.9L335.6 60.8zM240.4 176C196.2 176 160.4 211.8 160.4 256C160.4 288.8 180.1 317 208.4 329.3L208.4 328C208.4 316.6 209.8 305.6 212.4 295C200.3 286.3 192.4 272.1 192.4 256C192.4 229.5 213.9 208 240.4 208C248 208 255.2 209.8 261.6 212.9C264.8 202.5 269.3 192.8 275 183.8C264.5 178.8 252.8 176 240.4 176zM480.4 192C518.7 192 549.2 227.5 543.7 265.3L542.2 275.4L550.8 281C566.2 291 576.3 308.3 576.3 328L576.3 384L288.3 384L288.3 328C288.3 303.6 303.9 282.8 325.7 275.1L337.1 271.1L336.3 259C334.6 231.9 357 207.9 384.2 207.9C394.2 207.9 403.5 211 411.2 216.2L422.9 224.2L432.2 213.6C444 200.3 461.1 191.9 480.2 191.9zM576.3 260C578.4 207 535 160 480.4 160C456.5 160 434.6 168.8 417.7 183.3C407.5 178.6 396.2 176 384.4 176C342.6 176 308.1 209 304.7 249.5C276.1 264 256.4 293.7 256.4 328L256.4 416L608.4 416L608.4 328C608.4 300.6 595.9 276.2 576.3 260zM300.9 464L263.6 576L297.3 576L334.6 464L300.9 464zM574.6 464L540.9 464L503.6 576L537.3 576L574.6 464zM454.6 464L420.9 464L383.6 576L417.3 576L454.6 464z"/></svg>