<svg xmlns="http://www.w3.org/2000/svg" viewBox="0 0 640 640"><!--! Font Awesome Pro 7.1.0 by @fontawesome - https://fontawesome.com License - https://fontawesome.com/license (Commercial License) Copyright 2025 Fonticons, Inc. --><path fill="currentColor" d="M367.2 60.8L362.5 37.6C357.8 40.7 327.7 60.7 272 97.6C216.4 60.7 186.2 40.7 181.5 37.6C180.4 43.1 173.2 78.6 160 144C94.6 157.2 59.1 164.4 53.6 165.5C56.7 170.2 76.7 200.4 113.6 256C76.7 311.6 56.7 341.8 53.6 346.5C65.3 348.9 88.4 353.5 123.1 360.6C127.5 350.2 133 340.4 139.6 331.4L106.5 324.7L146.1 264.9L152 256.1L146.1 247.3L106.5 187.5L176.8 173.3L187.2 171.2L189.3 160.8L203.5 90.5L263.3 130.1L272.1 136L280.9 130.1L340.7 90.5L354.9 160.8L357 171.2L367.4 173.3L437.7 187.5L423.9 208.4C426.6 208.2 429.4 208.1 432.2 208.1C441.9 208.1 451.3 209.2 460.4 211.2C472.5 193 482.6 177.8 490.6 165.6C485.1 164.5 449.6 157.3 384.2 144.1L367.2 60.8zM349.9 237.8C341.7 202.4 309.9 176 272 176C227.8 176 192 211.8 192 256C192 266 193.8 275.6 197.2 284.5C206.9 280.2 217.1 276.9 227.8 274.8C225.4 269 224 262.7 224 256C224 229.5 245.5 208 272 208C298.5 208 320 229.5 320 256C320 264.1 318 271.8 314.4 278.5C315.7 278 317 277.6 318.3 277.2C326.2 262.1 336.9 248.7 349.9 237.8zM256 352C275.1 352 292.3 360.4 304 373.7L313.3 384.3L325 376.3C332.7 371.1 342 368 352 368C379.2 368 401.6 391.9 399.9 419.1L399.1 431.2L410.5 435.2C432.3 442.9 447.9 463.7 447.9 488.1L447.9 544.1L159.9 544.1L159.9 488.1C159.9 468.4 170 451.1 185.4 441.1L194 435.5L192.5 425.4C187 387.7 217.5 352.1 255.8 352.1zM160.1 420C140.5 436.2 128 460.6 128 488L128 576L480 576L480 488C480 453.7 460.3 424 431.7 409.5C428.2 369.1 393.8 336 352 336C340.1 336 328.8 338.6 318.7 343.3C301.9 328.8 280 320 256 320C201.4 320 158 367 160.1 420zM404.6 296.6C412.4 291.2 421.8 288 432 288C454.3 288 473.2 303.3 478.5 324L481.6 336L536 336C558.1 336 576 353.9 576 376L576 416L507.4 416C513.6 425.9 518.5 436.6 522 448L608 448L608 376C608 336.2 575.8 304 536 304L505.3 304C493 275.8 464.8 256 432 256C405.7 256 382.4 268.7 367.8 288.2C380.7 289 393.1 291.9 404.6 296.5z"/></svg>