<svg xmlns="http://www.w3.org/2000/svg" viewBox="0 0 640 640"><!--! Font Awesome Pro 7.1.0 by @fontawesome - https://fontawesome.com License - https://fontawesome.com/license (Commercial License) Copyright 2025 Fonticons, Inc. --><path fill="currentColor" d="M205.8 43.8C206.5 44.3 244.7 69.6 320.2 119.7C395.7 69.6 433.9 44.3 434.6 43.8L439.3 67.1L461.8 178.4C550.7 196.4 595.5 205.5 596.4 205.6L583.3 225.4L520.5 320L583.3 414.6L596.4 434.4C595.5 434.6 550.7 443.7 461.8 461.6L439.3 572.9L434.6 596.2C433.9 595.7 395.7 570.4 320.2 520.3L225.6 583.1L205.8 596.2C205.6 595.3 196.5 550.5 178.6 461.6L67.3 439.1L44 434.4C44.5 433.7 69.8 395.5 119.9 320C69.8 244.5 44.5 206.3 44 205.6C44.9 205.4 89.7 196.3 178.6 178.4C196.6 89.5 205.7 44.7 205.8 43.8zM412.7 96.8L329.1 152.3L320.3 158.2L311.5 152.3L227.9 96.8L208 195.2L205.9 205.6L195.5 207.7L97.1 227.6L152.6 311.2L158.5 320L152.6 328.8L97.1 412.4L195.5 432.3L205.9 434.4L208 444.8L227.9 543.2L311.5 487.7L320.3 481.8L329.1 487.7L412.7 543.2L432.6 444.8L434.7 434.4L445.1 432.3L543.5 412.4L488 328.8L482.1 320L488 311.2L543.5 227.6L445.1 207.7L434.7 205.6L432.6 195.2L412.7 96.8zM389.6 359.9C396.4 348.1 400.3 334.5 400.3 319.9C400.3 286.9 380.3 258.6 351.8 246.3C337.4 258.1 328.3 275.9 328.3 295.9C328.3 330.4 355.5 358.4 389.6 359.8zM363.2 387.5C324.4 375.2 296.3 338.9 296.3 296C296.3 275.2 302.9 255.9 314.2 240.2C272.9 243.3 240.3 277.9 240.3 320C240.3 364.2 276.1 400 320.3 400C336.1 400 350.8 395.4 363.2 387.5zM319.8 208C381.7 207.9 431.9 257.9 432.1 319.8C432.2 381.6 382.2 431.9 320.3 432C258.4 432.1 208.2 382.1 208.1 320.3C207.9 258.4 257.9 208.1 319.8 208z"/></svg>