<svg xmlns="http://www.w3.org/2000/svg" viewBox="0 0 640 640"><!--! Font Awesome Pro 7.1.0 by @fontawesome - https://fontawesome.com License - https://fontawesome.com/license (Commercial License) Copyright 2025 Fonticons, Inc. --><path fill="currentColor" d="M205.6 43.8C206.3 44.3 244.5 69.6 320 119.7C395.5 69.6 433.7 44.3 434.4 43.8L439.1 67.1L461.6 178.4C550.5 196.4 595.3 205.5 596.2 205.6L583.1 225.4L520.3 320L566 388.8C550.8 378.9 533.4 372.1 514.7 369.3C493.3 337 482.4 320.6 482 319.9L487.9 311.1L543.4 227.5L445 207.6L434.6 205.5L432.5 195.1L412.6 96.7L329 152.2L320.2 158.1L311.4 152.2L227.8 96.7L207.9 195.1L205.8 205.5L195.4 207.6L97 227.5L152.5 311.1L158.4 319.9L152.5 328.7L97 412.3L195.4 432.2L205.8 434.3L207.9 444.7L227.8 543.1L274.7 512C273.1 519.7 272.3 527.7 272.3 535.8L272.3 552C236.8 575.6 214.6 590.3 205.9 596.1C205.7 595.2 196.6 550.4 178.7 461.5L67.4 439L44.1 434.3C44.6 433.6 69.9 395.4 120 319.9C69.9 244.4 44.6 206.2 44.1 205.5C45 205.3 89.8 196.2 178.7 178.3C196.7 89.4 205.8 44.6 205.9 43.7zM320 400C364.2 400 400 364.2 400 320C400 275.8 364.2 240 320 240C275.8 240 240 275.8 240 320C240 364.2 275.8 400 320 400zM320 208C381.9 208 432 258.1 432 320C432 381.9 381.9 432 320 432C258.1 432 208 381.9 208 320C208 258.1 258.1 208 320 208zM449.5 484L446.4 496L392 496C369.9 496 352 513.9 352 536L352 576L608 576L608 544C608 526.3 593.7 512 576 512L544 512L544 496C544 469.5 522.5 448 496 448C473.7 448 454.8 463.3 449.5 484zM496 416C534.7 416 567 443.5 574.4 480L576 480C611.3 480 640 508.7 640 544L640 608L320 608L320 536C320 496.2 352.2 464 392 464L422.7 464C435 435.8 463.2 416 496 416z"/></svg>