<svg xmlns="http://www.w3.org/2000/svg" viewBox="0 0 640 640"><!--! Font Awesome Pro 7.1.0 by @fontawesome - https://fontawesome.com License - https://fontawesome.com/license (Commercial License) Copyright 2025 Fonticons, Inc. --><path fill="currentColor" d="M304 576L304 472L336 472L336 576L304 576zM304 168L304 64L336 64L336 168L304 168zM489.7 512.3L478.4 501C437.9 460.5 417.1 439.7 416.2 438.8L438.8 416.2C439.7 417.1 460.5 437.9 501 478.4L512.3 489.7L489.7 512.3zM201.2 223.8C200.3 222.9 179.5 202.1 139 161.6L127.7 150.3L150.3 127.7C151.2 128.6 172 149.4 212.5 189.9L223.8 201.2L201.2 223.8zM560 336L472 336L472 304L576 304L576 336L560 336zM152 336L64 336L64 304L168 304L168 336L152 336zM512.3 150.3C511.4 151.2 490.6 172 450.1 212.5L438.8 223.8L416.2 201.2C417.1 200.3 437.9 179.5 478.4 139L489.7 127.7L512.3 150.3zM223.8 438.8C222.9 439.7 202.1 460.5 161.6 501L150.3 512.3L127.7 489.7C128.6 488.8 149.4 468 189.9 427.5L201.2 416.2L223.8 438.8zM400 320C400 275.8 364.2 240 320 240C275.8 240 240 275.8 240 320C240 364.2 275.8 400 320 400C364.2 400 400 364.2 400 320zM208 320C208 258.1 258.1 208 320 208C381.9 208 432 258.1 432 320C432 381.9 381.9 432 320 432C258.1 432 208 381.9 208 320z"/></svg>