<svg xmlns="http://www.w3.org/2000/svg" viewBox="0 0 640 640"><!--! Font Awesome Pro 7.1.0 by @fontawesome - https://fontawesome.com License - https://fontawesome.com/license (Commercial License) Copyright 2025 Fonticons, Inc. --><path fill="currentColor" d="M439.4 67.1L459.2 165.1L432 192.3L412.7 96.8L329.1 152.3L320.3 158.2L311.5 152.3L227.9 96.8L208 195.2L205.9 205.6L195.5 207.7L97.1 227.6L152.6 311.2L158.5 320L152.6 328.8L97.1 412.4L192.6 431.7L165.4 458.9C87.6 443.2 47.2 435 44.1 434.4C44.6 433.7 69.9 395.5 120 320C69.9 244.5 44.6 206.3 44.1 205.6C45 205.4 89.8 196.3 178.7 178.4C196.7 89.5 205.8 44.7 205.9 43.8C206.6 44.3 244.8 69.6 320.3 119.7C395.8 69.6 434 44.3 434.7 43.8L439.4 67.1zM320.2 208C347.1 208 371.7 217.5 391 233.2L368.2 256C354.8 246 338.2 240 320.2 240C276 240 240.2 275.8 240.2 320C240.2 338 246.2 354.6 256.2 368L233.4 390.8C217.6 371.5 208.2 346.9 208.2 320C208.2 258.1 258.3 208 320.2 208zM520.2 224C520.2 210.7 530.9 200 544.2 200C557.5 200 568.2 210.7 568.2 224C568.2 237.3 557.5 248 544.2 248C530.9 248 520.2 237.3 520.2 224zM464.2 280C477.5 280 488.2 290.7 488.2 304C488.2 317.3 477.5 328 464.2 328C450.9 328 440.2 317.3 440.2 304C440.2 290.7 450.9 280 464.2 280zM520.2 384C520.2 370.7 530.9 360 544.2 360C557.5 360 568.2 370.7 568.2 384C568.2 397.3 557.5 408 544.2 408C530.9 408 520.2 397.3 520.2 384zM464.2 440C477.5 440 488.2 450.7 488.2 464C488.2 477.3 477.5 488 464.2 488C450.9 488 440.2 477.3 440.2 464C440.2 450.7 450.9 440 464.2 440zM224.2 520C237.5 520 248.2 530.7 248.2 544C248.2 557.3 237.5 568 224.2 568C210.9 568 200.2 557.3 200.2 544C200.2 530.7 210.9 520 224.2 520zM384.2 520C397.5 520 408.2 530.7 408.2 544C408.2 557.3 397.5 568 384.2 568C370.9 568 360.2 557.3 360.2 544C360.2 530.7 370.9 520 384.2 520zM520.2 544C520.2 530.7 530.9 520 544.2 520C557.5 520 568.2 530.7 568.2 544C568.2 557.3 557.5 568 544.2 568C530.9 568 520.2 557.3 520.2 544zM304.2 440C317.5 440 328.2 450.7 328.2 464C328.2 477.3 317.5 488 304.2 488C290.9 488 280.2 477.3 280.2 464C280.2 450.7 290.9 440 304.2 440zM360.2 384C360.2 370.7 370.9 360 384.2 360C397.5 360 408.2 370.7 408.2 384C408.2 397.3 397.5 408 384.2 408C370.9 408 360.2 397.3 360.2 384z"/></svg>