<svg xmlns="http://www.w3.org/2000/svg" viewBox="0 0 640 640"><!--! Font Awesome Pro 7.1.0 by @fontawesome - https://fontawesome.com License - https://fontawesome.com/license (Commercial License) Copyright 2025 Fonticons, Inc. --><path fill="currentColor" d="M225.6 56.9L205.8 43.8C205.6 44.7 196.5 89.5 178.6 178.4C89.7 196.4 44.9 205.5 44 205.6C44.5 206.3 69.8 244.5 119.9 320C69.8 395.5 44.5 433.7 44 434.4L67.3 439.1L178.6 461.6C196.6 550.5 205.7 595.3 205.8 596.2L225.6 583.1L320.2 520.3C395.7 570.4 433.9 595.7 434.6 596.2L439.3 572.9L461.8 461.6L573.1 439.1L596.4 434.4C595.9 433.7 570.6 395.5 520.5 320L583.3 225.4L596.4 205.6C595.5 205.4 550.7 196.3 461.8 178.4L439.4 67.1L434.6 43.8C433.9 44.3 395.7 69.6 320.2 119.7L225.6 56.9zM329.1 152.2L412.7 96.7L432.6 195.1L434.7 205.5L445.1 207.6L543.5 227.5L488 311.1L482.1 319.9L488 328.7L543.5 412.3L445.1 432.2L434.7 434.3L432.6 444.7L412.7 543.1L329.1 487.6L320.3 481.7L311.5 487.6L227.9 543.1L208 444.7L205.9 434.3L195.5 432.2L97.1 412.3L152.6 328.7L158.5 319.9L152.6 311.1L97.1 227.5L195.5 207.6L205.9 205.5L208 195.1L227.9 96.7L311.5 152.2L320.3 158.1L329.1 152.2zM239.8 320C239.8 275.7 275.7 239.8 320.1 239.8C364.4 239.8 400.3 275.7 400.3 320C400.3 364.3 364.4 400.3 320.1 400.3C275.7 400.3 239.8 364.3 239.8 320zM432.3 320C432.3 258 382 207.8 320.1 207.8C258.1 207.8 207.8 258 207.8 320C207.8 382 258.1 432.3 320.1 432.3C382 432.3 432.3 382 432.3 320z"/></svg>