<svg xmlns="http://www.w3.org/2000/svg" viewBox="0 0 640 640"><!--! Font Awesome Pro 7.1.0 by @fontawesome - https://fontawesome.com License - https://fontawesome.com/license (Commercial License) Copyright 2025 Fonticons, Inc. --><path fill="currentColor" d="M331.5 251.3L320.2 262.6L308.9 251.3L244.9 187.3L233.6 176L256.2 153.4C259.5 156.7 275.5 172.7 304.2 201.4L304.2 48L336.2 48L336.2 201.4C364.9 172.7 380.9 156.7 384.2 153.4L406.8 176L395.5 187.3L331.5 251.3zM205.8 251.7C206.5 252.2 244.7 277.5 320.2 327.6C395.7 277.5 433.9 252.2 434.6 251.7L439.3 275L461.8 386.3L573.1 408.8L596.4 413.5C590.6 422.2 575.9 444.4 552.3 479.9L513.9 479.9L543.4 435.4L445 415.5L434.6 413.4L432.5 403L412.6 304.6L329 360.1L320.2 366L311.4 360.1L227.8 304.6L207.9 403L205.8 413.4L195.4 415.5L97 435.4L126.5 479.9L88.1 479.9C64.5 444.5 49.8 422.3 44 413.6L67.3 408.9L178.6 386.4C196.6 297.5 205.7 252.7 205.8 251.8zM421.5 480L384.3 480C369.7 460.6 346.5 448 320.3 448C294.1 448 270.9 460.6 256.3 480L219 480C237 442.2 275.5 416 320.2 416C364.9 416 403.5 442.2 421.4 480zM64.2 544L576.2 544L576.2 576L64.2 576L64.2 544z"/></svg>