<svg xmlns="http://www.w3.org/2000/svg" viewBox="0 0 640 640"><!--! Font Awesome Pro 7.1.0 by @fontawesome - https://fontawesome.com License - https://fontawesome.com/license (Commercial License) Copyright 2025 Fonticons, Inc. --><path fill="currentColor" d="M370.4 157.6L368.3 147.2L351.5 64.1L280.8 111L272 116.9L263.2 111L192.5 64.1L175.7 147.2L173.6 157.6L163.2 159.7L80.1 176.5L127 247.2L132.9 256L127 264.8L80.1 335.5L142 348C139.6 352.9 137.5 357.9 135.7 363C84.3 352.6 56.9 347.1 53.7 346.4L63.2 332L113.7 255.9L63.2 179.8L53.7 165.4L70.6 162L160.1 143.9L178.2 54.4L181.6 37.5L196 47L272.1 97.5L348.2 47L362.6 37.5L366 54.4L384.1 143.9L473.6 162L490.5 165.4C486 172.2 475.9 187.4 460.3 211C454.6 209.7 448.8 208.8 442.9 208.3L464.1 176.3L381 159.5L370.6 157.4zM335.8 251.6C333.5 218.3 305.8 192.1 272 192.1C236.7 192.1 208 220.8 208 256.1C208 265.3 209.9 274 213.4 281.8C208.4 283.8 203.6 286.1 198.9 288.6C194.5 278.7 192 267.6 192 256C192 211.8 227.8 176 272 176C309.9 176 341.7 202.4 349.9 237.8C344.9 242 340.2 246.6 335.8 251.5zM376.3 304.4C371 304 364.9 303.9 358.4 304.5C370.7 276 399 256.1 431.9 256.1C466.9 256.1 496.7 278.6 507.5 309.9C516.2 306.2 525.8 304.1 535.9 304.1C575.7 304.1 607.9 336.3 607.9 376.1L607.9 448.1L518.6 448.1C516.4 442.6 513.7 437.2 510.8 432.1L591.9 432.1L591.9 376.1C591.9 345.2 566.8 320.1 535.9 320.1C525.2 320.1 515.1 323.1 506.6 328.4L496.9 334.4L494.6 323.2C488.6 294.1 462.8 272.2 431.9 272.2C408.1 272.2 387.3 285.2 376.3 304.5zM248 336C208.2 336 176 368.2 176 408C176 416.1 177.3 423.8 179.7 431L181.8 437.2L176.1 440.5C156.9 451.5 144 472.3 144 496L144 560L464 560L464 496C464 465.3 442.4 439.7 413.6 433.4L406.3 431.8L407.4 424.4C412.4 391.3 385.8 360 352 360C339.8 360 328.6 363.9 319.4 370.4L312.6 375.2L308 368.3C295.1 348.8 273 336 247.9 336zM160 408C160 359.4 199.4 320 248 320C275.9 320 300.7 333 316.8 353.2C327.2 347.4 339.2 344 352 344C393.1 344 425.8 379.7 423.9 419.6C456.4 429.8 480 460.1 480 496L480 576L128 576L128 496C128 468.6 141.8 444.4 162.8 430C161 423 160 415.6 160 408z"/></svg>