<svg xmlns="http://www.w3.org/2000/svg" viewBox="0 0 640 640"><!--! Font Awesome Pro 7.1.0 by @fontawesome - https://fontawesome.com License - https://fontawesome.com/license (Commercial License) Copyright 2025 Fonticons, Inc. --><path fill="currentColor" d="M498.8 157.6L509.2 159.7L592.3 176.5L545.4 247.2L539.5 256L545.4 264.8L592.3 335.5L513.3 351.5C520.3 355.1 527 359.2 533.3 363.8C587.6 352.8 616 347.1 618.7 346.5L609.2 332.1L558.7 256L609.2 179.9L618.7 165.5L601.8 162.1L512.3 144L494.2 54.5L490.8 37.6L476.4 47.1L400.3 97.6L324.2 47.1L309.8 37.6L306.4 54.5L288.3 144L198.8 162.1L181.9 165.5C186.7 172.8 196.1 187 210.1 208C216.9 208.1 223.7 208.6 230.3 209.5L208.4 176.5L291.5 159.7L301.9 157.6L304 147.2L320.8 64.1L391.5 111L400.3 116.9L409.1 111L479.8 64.1L496.6 147.2L498.7 157.6zM320.7 249.2C326.2 247 331.8 245.2 337.6 243.7C343.3 214.2 369.3 192 400.4 192C435.7 192 464.4 220.7 464.4 256C464.4 264 462.9 271.7 460.2 278.8C464.3 283 468.2 287.6 471.7 292.4C477.3 281.5 480.4 269.1 480.4 256C480.4 211.8 444.6 176 400.4 176C358.5 176 324.1 208.2 320.7 249.2zM208.4 256C146.5 256 96.4 306.1 96.4 368L96.4 389.5C59.1 402.7 32.4 438.2 32.4 480L32.4 576L544.4 576L544.4 480C544.4 427 501.4 384 448.4 384L448.4 368C448.4 323.8 412.6 288 368.4 288C344.1 288 322.3 298.9 307.6 316C288.9 280.3 251.5 256 208.4 256zM112.4 368C112.4 315 155.4 272 208.4 272C249.7 272 285 298.1 298.5 334.8L304.4 350.8L312.9 336C324 316.8 344.7 304 368.4 304C403.7 304 432.4 332.7 432.4 368L432.4 401.1L441.1 400.3C443.5 400.1 445.9 400 448.4 400C492.6 400 528.4 435.8 528.4 480L528.4 560L48.4 560L48.4 480C48.4 443.4 73 412.5 106.6 403L112.4 401.4L112.4 368z"/></svg>