<svg xmlns="http://www.w3.org/2000/svg" viewBox="0 0 640 640"><!--! Font Awesome Pro 7.1.0 by @fontawesome - https://fontawesome.com License - https://fontawesome.com/license (Commercial License) Copyright 2025 Fonticons, Inc. --><path fill="currentColor" d="M205.8 43.8L215.7 50.4L320.2 119.7L424.7 50.4L434.6 43.8L437 55.5L461.9 178.4L584.8 203.3L596.5 205.7L589.9 215.6L520.6 320.1L589.9 424.6L596.5 434.5L584.8 436.9L461.9 461.8L437 584.7L434.6 596.4L424.7 589.8L320.2 520.5L215.7 589.8L205.8 596.4L203.4 584.7L178.5 461.8L55.6 436.9L43.9 434.5L50.5 424.6L119.8 320.1L50.5 215.6L43.9 205.7L55.6 203.3L178.5 178.4L203.4 55.5L205.8 43.8zM423.7 70.2L324.7 135.9L320.3 138.8L315.9 135.9L216.9 70.2L193.3 186.7L192.2 191.9L187 193L70.5 216.6L136.2 315.6L139.1 320L136.2 324.4L70.5 423.4L187 447L192.2 448.1L193.3 453.3L216.9 569.8L315.9 504.1L320.3 501.2L324.7 504.1L423.7 569.8L447.3 453.3L448.4 448.1L453.6 447L570.1 423.4L504.4 324.4L501.5 320L504.4 315.6L570.1 216.6L453.6 193L448.4 191.9L447.3 186.7L423.7 70.2zM207.8 320C207.8 258 258.1 207.8 320.1 207.8C382 207.8 432.3 258 432.3 320C432.3 382 382 432.3 320.1 432.3C258.1 432.3 207.8 382 207.8 320zM404 367C411.8 353.1 416.3 337 416.3 319.9C416.3 280.7 392.8 246.9 359 232C336 244 320.3 268.1 320.3 295.9C320.3 335.7 352.5 367.9 392.3 367.9C396.3 367.9 400.2 367.6 404 367zM339.1 225.8C333 224.6 326.7 223.9 320.2 223.9C267.2 223.9 224.2 266.9 224.2 319.9C224.2 372.9 267.2 415.9 320.2 415.9C348.6 415.9 374.2 403.5 391.7 383.9C343.3 383.7 304.2 344.4 304.2 295.9C304.2 267.3 317.9 241.8 339.1 225.7z"/></svg>