<svg xmlns="http://www.w3.org/2000/svg" viewBox="0 0 640 640"><!--! Font Awesome Pro 7.1.0 by @fontawesome - https://fontawesome.com License - https://fontawesome.com/license (Commercial License) Copyright 2025 Fonticons, Inc. --><path fill="currentColor" d="M175.5 50.3L165.6 43.7L163.2 55.4L138.3 178.3L15.4 203.2L3.7 205.6L10.3 215.5L79.6 320L10.3 424.5L3.7 434.4L15.4 436.8L138.3 461.7L163.2 584.6L165.6 596.3L175.5 589.7L280 520.4L384.5 589.7L394.4 596.3L396.8 584.6L409.7 520.9C404.5 519.5 399.4 517.9 394.3 516.1L383.4 569.8L284.4 504.1L280 501.2L275.6 504.1L176.6 569.8L153 453.3L151.9 448.1L146.7 447L30.2 423.4L95.9 324.4L98.8 320L95.9 315.6L30.2 216.6L146.7 193L151.9 191.9L153 186.7L176.6 70.2L275.6 135.9L280 138.8L284.4 135.9L383.4 70.2L394.3 123.9C399.3 122.1 404.5 120.5 409.7 119.1L396.8 55.3L394.4 43.6L384.5 50.2L280 119.5L175.5 50.2zM280 208C218.1 208 168 258.1 168 320C168 381.9 218.1 432 280 432C282.9 432 285.7 431.9 288.5 431.7C285.3 426.6 282.2 421.4 279.4 416C226.6 415.7 184 372.8 184 320C184 267.2 226.7 224.3 279.4 224C282.2 218.6 285.2 213.4 288.5 208.3C285.7 208.1 282.9 208 280 208zM304 320C304 231.6 375.6 160 464 160C552.4 160 624 231.6 624 320C624 408.4 552.4 480 464 480C375.6 480 304 408.4 304 320zM640 320C640 222.8 561.2 144 464 144C366.8 144 288 222.8 288 320C288 417.2 366.8 496 464 496C561.2 496 640 417.2 640 320z"/></svg>