<svg xmlns="http://www.w3.org/2000/svg" viewBox="0 0 640 640"><!--! Font Awesome Pro 7.1.0 by @fontawesome - https://fontawesome.com License - https://fontawesome.com/license (Commercial License) Copyright 2025 Fonticons, Inc. --><path fill="currentColor" d="M64 96L576 96L576 115.1L573.9 117.4L496 202.9L496 208.1L491.3 208.1L328 387.2L328 560.1L448 560.1L448 576.1L192 576.1L192 560.1L312 560.1L312 387.2L148.7 208.1L144 208.1L144 202.9L66.1 117.4L64 115.1L64 96zM170.4 208L320 372.1L469.6 208L170.4 208zM484.3 192L557.2 112L82.9 112L155.8 192L484.3 192z"/></svg>