<svg xmlns="http://www.w3.org/2000/svg" viewBox="0 0 640 640"><!--! Font Awesome Pro 7.1.0 by @fontawesome - https://fontawesome.com License - https://fontawesome.com/license (Commercial License) Copyright 2025 Fonticons, Inc. --><path fill="currentColor" d="M205.6 43.8L215.5 50.4L320 119.7L424.5 50.4L434.4 43.8L436.8 55.5L461.7 178.4L584.6 203.3L596.3 205.7L589.7 215.6L520.4 320.1L566 388.9C557.2 383.2 547.7 378.5 537.6 375L504.1 324.5L501.2 320.1L504.1 315.7L569.8 216.7L453.3 193.1L448.1 192L447 186.8L423.4 70.3L324.4 136L320 138.9L315.6 136L216.6 70.3L193 186.8L191.9 192L186.7 193.1L70.2 216.7L135.9 315.7L138.8 320.1L135.9 324.5L70.2 423.5L186.7 447.1L191.9 448.2L193 453.4L216.6 569.9L272.1 533.1C272.1 534.1 272.1 535.1 272.1 536.2C272.1 541.5 272.4 546.6 273.1 551.7L215.6 589.8L205.7 596.4L203.3 584.7L178.4 461.8L55.5 436.9L43.8 434.5L50.4 424.6L119.7 320.1L50.4 215.6L43.8 205.7L55.5 203.3L178.4 178.4L203.3 55.5L205.7 43.8zM208 320C208 258.1 258.1 208 320 208C381.9 208 432 258.1 432 320C432 381.9 381.9 432 320 432C258.1 432 208 381.9 208 320zM320 416C373 416 416 373 416 320C416 267 373 224 320 224C267 224 224 267 224 320C224 373 267 416 320 416zM435.6 474.7L433.7 480L391.9 480C361 480 335.9 505.1 335.9 536L335.9 592L623.9 592L623.9 544C623.9 517.5 602.4 496 575.9 496L560.3 496L559.5 488.9C556 456.9 528.8 432 495.9 432C468 432 444.3 449.8 435.5 474.7zM496 416C534.7 416 567 443.5 574.4 480L576 480C611.3 480 640 508.7 640 544L640 608L320 608L320 536C320 496.2 352.2 464 392 464L422.7 464C435 435.8 463.2 416 496 416z"/></svg>