<svg xmlns="http://www.w3.org/2000/svg" viewBox="0 0 640 640"><!--! Font Awesome Pro 7.1.0 by @fontawesome - https://fontawesome.com License - https://fontawesome.com/license (Commercial License) Copyright 2025 Fonticons, Inc. --><path fill="currentColor" d="M215.7 50.3L205.8 43.7L203.4 55.4L178.5 178.3L55.6 203.2L43.9 205.6L50.5 215.5L119.8 320L50.5 424.5L43.9 434.4L55.6 436.8L178.5 461.7L203.4 584.6L205.8 596.3L215.7 589.7L320.2 520.4L424.7 589.7L434.6 596.3L437 584.6L461.9 461.7L584.8 436.8L596.5 434.4L589.9 424.5L520.6 320L589.9 215.5L596.5 205.6L584.8 203.2L461.9 178.3L437 55.4L434.6 43.7L424.7 50.3L320.2 119.6L215.7 50.3zM324.7 135.9L423.7 70.2L447.3 186.7L448.4 191.9L453.6 193L570.1 216.6L504.4 315.6L501.5 320L504.4 324.4L570.1 423.4L453.6 447L448.4 448.1L447.3 453.3L423.7 569.8L324.7 504.1L320.3 501.2L315.9 504.1L216.9 569.8L193.3 453.3L192.2 448.1L187 447L70.5 423.4L136.2 324.4L139.1 320L136.2 315.6L70.5 216.6L187 193L192.2 191.9L193.3 186.7L216.9 70.2L315.9 135.9L320.3 138.8L324.7 135.9zM320.2 432C382.1 431.9 432.1 381.6 432 319.8C431.8 257.9 381.6 207.9 319.7 208C257.8 208.1 207.8 258.4 208 320.3C208.1 382.1 258.3 432.1 320.2 432zM223.8 320C223.8 266.8 266.9 223.8 320.1 223.8C373.2 223.8 416.3 266.8 416.3 320C416.3 373.2 373.2 416.3 320.1 416.3C266.9 416.3 223.8 373.2 223.8 320z"/></svg>