<svg xmlns="http://www.w3.org/2000/svg" viewBox="0 0 640 640"><!--! Font Awesome Pro 7.1.0 by @fontawesome - https://fontawesome.com License - https://fontawesome.com/license (Commercial License) Copyright 2025 Fonticons, Inc. --><path fill="currentColor" d="M256 304C317.9 304 368 253.9 368 192C368 130.1 317.9 80 256 80C194.1 80 144 130.1 144 192C144 253.9 194.1 304 256 304zM107.8 384L48.7 576L32 576L96 368L416 368L480 576L463.3 576L404.2 384L107.8 384zM128 192C128 121.3 185.3 64 256 64C326.7 64 384 121.3 384 192C384 262.7 326.7 320 256 320C185.3 320 128 262.7 128 192zM448 264L448 248L640 248L640 264L448 264z"/></svg>