<svg xmlns="http://www.w3.org/2000/svg" viewBox="0 0 640 640"><!--! Font Awesome Pro 7.1.0 by @fontawesome - https://fontawesome.com License - https://fontawesome.com/license (Commercial License) Copyright 2025 Fonticons, Inc. --><path opacity=".4" fill="currentColor" d="M182 165.5C190.4 178.2 199.8 192.3 210.2 208C246.1 208.4 279.1 220.6 305.6 240.9C312.8 195.1 352.5 160 400.4 160C453.4 160 496.4 203 496.4 256C496.4 275 490.9 292.8 481.3 307.7C487.2 318.7 491.5 330.7 494 343.4C508.2 348.2 521.5 355.1 533.3 363.8C581.2 354.1 609.7 348.3 618.7 346.5C615.6 341.8 595.6 311.6 558.7 256C595.6 200.4 615.6 170.2 618.7 165.5C613.2 164.4 577.7 157.2 512.3 144C499.1 78.6 491.9 43.1 490.8 37.6C486.1 40.7 456 60.7 400.3 97.6C344.7 60.7 314.5 40.7 309.8 37.6C308.7 43.1 301.5 78.6 288.3 144C222.9 157.2 187.4 164.4 181.9 165.5zM354.9 240.7C359.3 240.2 363.9 240 368.4 240C398.1 240 425.4 250.1 447.1 267.1C447.9 263.5 448.4 259.8 448.4 256C448.4 229.5 426.9 208 400.4 208C379.2 208 361.3 221.7 354.9 240.7z"/><path fill="currentColor" d="M32.4 576L544.4 576L544.4 480C544.4 427 501.4 384 448.4 384L448.4 368C448.4 323.8 412.6 288 368.4 288C344.1 288 322.3 298.9 307.6 316C288.9 280.3 251.5 256 208.4 256C146.5 256 96.4 306.1 96.4 368L96.4 389.5C59.1 402.7 32.4 438.2 32.4 480L32.4 576z"/></svg>