<svg xmlns="http://www.w3.org/2000/svg" viewBox="0 0 640 640"><!--! Font Awesome Pro 7.1.0 by @fontawesome - https://fontawesome.com License - https://fontawesome.com/license (Commercial License) Copyright 2025 Fonticons, Inc. --><path opacity=".4" fill="currentColor" d="M53.6 165.5C56.7 170.2 76.7 200.3 113.6 256C76.7 311.6 56.7 341.8 53.6 346.5C63.5 348.5 90.2 353.9 133.6 362.7C142.2 334.6 160.2 310.5 184 294.3C178.9 282.6 176.1 269.7 176.1 256.1C176.1 203.1 219.1 160.1 272.1 160.1C315.3 160.1 351.8 188.6 363.9 227.8C383.6 215.3 407 208.1 432.1 208.1C441.8 208.1 451.2 209.2 460.3 211.2C472.4 193 482.5 177.8 490.5 165.6C485 164.5 449.5 157.3 384.1 144.1C370.9 78.7 363.7 43.2 362.6 37.7C357.9 40.8 327.8 60.8 272.1 97.7C216.5 60.8 186.3 40.8 181.6 37.7C180.5 43.2 173.3 78.7 160.1 144.1C94.7 157.3 59.2 164.5 53.7 165.6zM224 256C224 262.8 225.4 269.2 227.9 275.1C236.9 273.1 246.3 272 256 272C273.6 272 290.4 275.6 305.7 282C308.6 280.7 311.5 279.5 314.5 278.5C318.1 271.8 320.1 264.2 320.1 256C320.1 229.5 298.6 208 272.1 208C245.6 208 224.1 229.5 224.1 256z"/><path fill="currentColor" d="M536 448L608 448L608 376C608 336.2 575.8 304 536 304C525.9 304 516.3 306.1 507.6 309.8C496.8 278.5 467 256 432 256C399.2 256 371 275.7 358.7 304L360 304C409 304 450.1 337.9 461.1 383.5C487 397.6 507.5 420.4 518.7 448L536 448zM128 496L128 576L480 576L480 496C480 457 452.1 424.5 415.2 417.4C420.9 383.9 394.2 352 360 352C347.6 352 336.1 356 326.9 362.8C313.5 337.3 286.8 320 256 320C211.8 320 176 355.8 176 400C176 407.4 177 414.6 178.9 421.5C149.1 433.1 128 462.1 128 496.1z"/></svg>