<svg xmlns="http://www.w3.org/2000/svg" viewBox="0 0 640 640"><!--! Font Awesome Pro 7.1.0 by @fontawesome - https://fontawesome.com License - https://fontawesome.com/license (Commercial License) Copyright 2025 Fonticons, Inc. --><path opacity=".4" fill="currentColor" d="M3.8 205.6C10.9 216.2 36.2 254.4 79.7 320C36.2 385.6 10.9 423.8 3.8 434.4C16.3 436.9 61.2 446 138.4 461.6C154 538.8 163.1 583.7 165.6 596.2C176.2 589.1 214.4 563.8 280 520.3C345.6 563.8 383.8 589.1 394.4 596.2C398.8 574.6 404.2 547.9 410.6 516.1C371.2 502.2 337.2 476.7 312.8 443.7C302.3 446.5 291.3 447.9 280 447.9C209.3 447.9 152 390.6 152 319.9C152 249.2 209.3 191.9 280 191.9C291.3 191.9 302.3 193.4 312.8 196.1C337.2 163.1 371.2 137.7 410.6 123.7C404.2 91.9 398.8 65.2 394.4 43.6C383.8 50.7 345.6 76 280 119.5C214.4 76 176.2 50.7 165.6 43.6C163.1 56.1 154 101 138.4 178.2C61.2 193.8 16.3 202.9 3.8 205.4zM200 320C200 364.2 235.8 400 280 400C282.6 400 285.2 399.9 287.8 399.6C277.6 375.1 272 348.2 272 320C272 291.8 277.6 264.9 287.8 240.4C285.2 240.2 282.6 240 280 240C235.8 240 200 275.8 200 320z"/><path fill="currentColor" d="M320 320C320 231.6 391.6 160 480 160C568.4 160 640 231.6 640 320C640 408.4 568.4 480 480 480C391.6 480 320 408.4 320 320z"/></svg>