<svg xmlns="http://www.w3.org/2000/svg" viewBox="0 0 640 640"><!--! Font Awesome Pro 7.1.0 by @fontawesome - https://fontawesome.com License - https://fontawesome.com/license (Commercial License) Copyright 2025 Fonticons, Inc. --><path opacity=".4" fill="currentColor" d="M44 205.6C51.1 216.2 76.4 254.4 119.9 320C76.4 385.6 51.1 423.8 44 434.4C56.5 436.9 101.4 446 178.6 461.6C194.2 538.8 203.3 583.7 205.8 596.2C216.4 589.1 254.6 563.8 320.2 520.3C385.8 563.8 424 589.1 434.6 596.2C437.1 583.7 446.2 538.8 461.8 461.6C539 446 583.9 436.9 596.4 434.4C589.3 423.8 564 385.6 520.5 320C564 254.4 589.3 216.2 596.4 205.6C583.9 203.1 539 194 461.8 178.4C446.2 101.2 437.1 56.3 434.6 43.8C424 50.9 385.8 76.2 320.2 119.7C254.6 76.2 216.4 50.9 205.8 43.8C203.3 56.3 194.2 101.2 178.6 178.4C101.4 194 56.5 203.1 44 205.6zM463.8 320C465.2 372.3 438.1 421.2 393 447.7C348 474.2 292.1 474.2 247.1 447.7C202 421.2 174.9 372.3 176.3 320C174.9 267.7 202 218.8 247.1 192.3C292.1 165.8 348 165.8 393 192.3C438.1 218.8 465.2 267.7 463.8 320z"/><path fill="currentColor" d="M359 232.1C336 244.1 320.3 268.2 320.3 296C320.3 335.8 352.5 368 392.3 368C396.3 368 400.2 367.7 404 367.1C387.5 396.3 356.2 416 320.3 416C267.3 416 224.3 373 224.3 320C224.3 267 267.3 224 320.3 224C334.1 224 347.2 226.9 359 232.1z"/></svg>