<svg xmlns="http://www.w3.org/2000/svg" viewBox="0 0 640 640"><!--! Font Awesome Pro 7.1.0 by @fontawesome - https://fontawesome.com License - https://fontawesome.com/license (Commercial License) Copyright 2025 Fonticons, Inc. --><path opacity=".4" fill="currentColor" d="M43.8 205.6C50.9 216.2 76.2 254.4 119.7 320C76.2 385.6 50.9 423.8 43.8 434.4C56.3 436.9 101.2 446 178.4 461.6C194 538.8 203.1 583.7 205.6 596.2C224.2 583.8 246.4 569.1 272 552.1L272 535.9C272 501 286.9 469.5 310.8 447.6C244.4 442.9 192 387.5 192 319.9C192 249.2 249.3 191.9 320 191.9C390.7 191.9 448 249.2 448 319.9C448 344.4 441.1 367.2 429.2 386.7C448.6 374.8 471.5 367.9 496 367.9C521.8 367.9 545.9 375.5 566 388.7L520.3 320C563.8 254.4 589.1 216.2 596.2 205.6C583.7 203.1 538.8 194 461.6 178.4C446 101.2 436.9 56.3 434.4 43.8C423.8 50.9 385.6 76.2 320 119.7C254.4 76.2 216.2 50.9 205.6 43.8C203.1 56.3 194 101.2 178.4 178.4C101.2 194 56.3 203.1 43.8 205.6zM240 320C240 364.2 275.8 400 320 400C364.2 400 400 364.2 400 320C400 275.8 364.2 240 320 240C275.8 240 240 275.8 240 320z"/><path fill="currentColor" d="M640 608L320 608L320 536C320 496.2 352.2 464 392 464C402.1 464 411.7 466.1 420.4 469.8C431.2 438.5 461 416 496 416C534.7 416 567 443.5 574.4 480C574.9 480 575.5 480 576 480C611.3 480 640 508.7 640 544L640 608z"/></svg>