<svg xmlns="http://www.w3.org/2000/svg" viewBox="0 0 640 640"><!--! Font Awesome Pro 7.1.0 by @fontawesome - https://fontawesome.com License - https://fontawesome.com/license (Commercial License) Copyright 2025 Fonticons, Inc. --><path opacity=".4" fill="currentColor" d="M43.8 205.6C50.9 216.2 76.2 254.4 119.7 320L77.2 384L209.1 384C198.2 365.2 192 343.3 192 320C192 249.3 249.3 192 320 192C390.7 192 448 249.3 448 320C448 343.3 441.8 365.2 430.9 384L562.8 384L520.3 320C563.9 254.4 589.2 216.2 596.2 205.6C583.7 203 538.8 194 461.6 178.3C446 101.1 437 56.3 434.4 43.8C423.8 50.8 385.6 76.1 320 119.7C254.4 76.1 216.2 50.8 205.6 43.8C203 56.3 194 101.2 178.4 178.3C101.1 194 56.3 203 43.8 205.6zM240 320C240 346.2 252.6 369.4 272 384L368 384C387.4 369.4 400 346.2 400 320C400 275.8 364.2 240 320 240C275.8 240 240 275.8 240 320z"/><path fill="currentColor" d="M520 432L544 432L544 480L32 480L32 432L520 432zM120 528L224 528L224 576L96 576L96 528L120 528zM296 528L608 528L608 576L272 576L272 528L296 528z"/></svg>