<svg xmlns="http://www.w3.org/2000/svg" viewBox="0 0 640 640"><!--! Font Awesome Pro 7.1.0 by @fontawesome - https://fontawesome.com License - https://fontawesome.com/license (Commercial License) Copyright 2025 Fonticons, Inc. --><path opacity=".4" fill="currentColor" d="M44 205.6C51.1 216.2 76.4 254.4 119.9 320C76.4 385.6 51.1 423.8 44 434.4C56.5 436.9 101.4 446 178.6 461.6C194.2 538.8 203.3 583.7 205.8 596.2C216.4 589.1 254.6 563.8 320.2 520.3C385.8 563.8 424 589.1 434.6 596.2C437.1 583.7 446.2 538.8 461.8 461.6C539 446 583.9 436.9 596.4 434.4C589.3 423.8 564 385.6 520.5 320C564 254.4 589.3 216.2 596.4 205.6C583.9 203.1 539 194 461.8 178.4C446.2 101.2 437.1 56.3 434.6 43.8C424 50.9 385.8 76.2 320.2 119.7C254.6 76.2 216.4 50.9 205.8 43.8C203.3 56.3 194.2 101.2 178.6 178.4C101.4 194 56.5 203.1 44 205.6zM447.8 320C449.1 366.5 425 410 385 433.7C344.9 457.3 295.2 457.3 255.1 433.7C215.1 410 191 366.5 192.3 320C191 273.5 215.1 230 255.1 206.3C295.2 182.7 344.9 182.7 385 206.3C425 230 449.1 273.5 447.8 320z"/><path fill="currentColor" d="M239.8 320C239.8 275.7 275.7 239.8 320.1 239.8C364.4 239.8 400.3 275.7 400.3 320C400.3 364.3 364.4 400.3 320.1 400.3C275.7 400.3 239.8 364.3 239.8 320z"/></svg>