<svg xmlns="http://www.w3.org/2000/svg" viewBox="0 0 640 640"><!--! Font Awesome Pro 7.1.0 by @fontawesome - https://fontawesome.com License - https://fontawesome.com/license (Commercial License) Copyright 2025 Fonticons, Inc. --><path opacity=".4" fill="currentColor" d="M44 413.6C51.1 424.2 76.4 462.4 119.9 528C144 528 168.1 528 192.2 528C192.2 457.3 249.5 400 320.2 400C390.9 400 448.2 457.3 448.2 528C472.3 528 496.4 528 520.5 528C564 462.3 589.3 424.2 596.4 413.6C583.9 411.1 539 402 461.8 386.4C446.2 309.2 437.1 264.3 434.6 251.8C424 258.9 385.8 284.2 320.2 327.7C254.6 284.2 216.4 258.9 205.8 251.8C203.3 264.3 194.2 309.2 178.6 386.4C101.4 402 56.5 411.1 44 413.6zM240.2 528C293.5 528 346.9 528 400.2 528C400.2 483.8 364.4 448 320.2 448C276 448 240.2 483.8 240.2 528z"/><path fill="currentColor" d="M337.2 249L320.2 266C316.7 262.5 289.7 235.5 239.2 185L222.2 168L256.1 134.1L296.1 174.1L296.1 48L344.1 48L344.1 174.1C360.5 157.7 373.8 144.4 384.1 134.1L418.2 168C414.7 171.5 387.7 198.5 337.2 249zM88.2 528L576.2 528L576.2 576L64.2 576L64.2 528L88.2 528z"/></svg>