<svg xmlns="http://www.w3.org/2000/svg" viewBox="0 0 640 640"><!--! Font Awesome Pro 7.1.0 by @fontawesome - https://fontawesome.com License - https://fontawesome.com/license (Commercial License) Copyright 2025 Fonticons, Inc. --><path opacity=".4" fill="currentColor" d="M128 96L512 96L512 448L128 448L128 96zM235.1 221.1L286.1 272C260.6 297.5 243.7 314.4 235.2 322.9L269.1 356.8C277.6 348.3 294.6 331.3 320 305.9C345.5 331.4 362.4 348.3 370.9 356.8L404.8 322.9C396.3 314.4 379.3 297.4 353.9 272C379.4 246.5 396.3 229.6 404.8 221.1L370.9 187.2C362.4 195.7 345.4 212.7 320 238.1C294.5 212.6 277.6 195.7 269.1 187.2L235.2 221.1z"/><path fill="currentColor" d="M404.9 221.1L371 187.2C362.5 195.7 345.5 212.7 320.1 238.1C294.6 212.6 277.7 195.7 269.2 187.2L235.3 221.1L286.2 272C260.7 297.5 243.8 314.4 235.3 322.9L269.2 356.8C277.7 348.3 294.7 331.3 320.1 305.9C345.6 331.4 362.5 348.3 371 356.8L404.9 322.9C396.4 314.4 379.4 297.4 354 272C379.5 246.5 396.4 229.6 404.9 221.1zM80 376L80 352L32 352L32 544L608 544L608 352L560 352L560 496L80 496L80 376z"/></svg>