<svg xmlns="http://www.w3.org/2000/svg" viewBox="0 0 640 640"><!--! Font Awesome Pro 7.1.0 by @fontawesome - https://fontawesome.com License - https://fontawesome.com/license (Commercial License) Copyright 2025 Fonticons, Inc. --><path opacity=".4" fill="currentColor" d="M87 544L153 544L169 480L103 480C92.6 521.6 87.3 542.9 87 544zM119 416L185 416L201 352L135 352L119 416zM151 288L217 288L233 224L167 224L151 288zM183 160L249 160C259.4 118.4 264.7 97.1 265 96L199 96L183 160zM375 96C375.3 97.1 380.6 118.4 391 160L457 160L441 96L375 96zM407 224L423 288L489 288L473 224L407 224zM439 352L455 416L521 416L505 352L439 352zM471 480L487 544L553 544C552.7 542.9 547.4 521.6 537 480L471 480z"/><path fill="currentColor" d="M160 160L512 160L512 224L128 224L128 160L160 160zM96 288L544 288L544 352L96 352L96 288zM64 416L576 416L576 480L64 480L64 416z"/></svg>