<svg xmlns="http://www.w3.org/2000/svg" viewBox="0 0 640 640"><!--! Font Awesome Pro 7.1.0 by @fontawesome - https://fontawesome.com License - https://fontawesome.com/license (Commercial License) Copyright 2025 Fonticons, Inc. --><path opacity=".4" fill="currentColor" d="M48.4 576L464.4 576L400.4 368L112.4 368L48.4 576zM136.4 192C136.4 258.3 190.1 312 256.4 312C322.7 312 376.4 258.3 376.4 192C376.4 125.7 322.7 72 256.4 72C190.1 72 136.4 125.7 136.4 192z"/><path fill="currentColor" d="M612.2 222.1L629.2 205.1L595.3 171.2C586.8 179.7 569.8 196.7 544.4 222.1C518.9 196.6 502 179.7 493.5 171.2L459.6 205.1C468.1 213.6 485.1 230.6 510.5 256C485 281.5 468.1 298.4 459.6 306.9L493.5 340.8C502 332.3 519 315.3 544.4 289.9C569.9 315.4 586.8 332.3 595.3 340.8L629.2 306.9C620.7 298.4 603.7 281.4 578.3 256L612.2 222.1z"/></svg>