<svg xmlns="http://www.w3.org/2000/svg" viewBox="0 0 640 640"><!--! Font Awesome Pro 7.1.0 by @fontawesome - https://fontawesome.com License - https://fontawesome.com/license (Commercial License) Copyright 2025 Fonticons, Inc. --><path opacity=".4" fill="currentColor" d="M128 160C128 124.7 156.7 96 192 96L544 96C579.3 96 608 124.7 608 160L608 416L512 416L512 384C512 366.3 497.7 352 480 352L416 352C398.3 352 384 366.3 384 384L384 416L260.2 416C256.3 414 252.3 412.1 248.1 410.4C263.1 389.4 271.9 363.7 271.9 336C271.9 265.3 214.6 208 143.9 208C138.5 208 133.1 208.3 127.9 209L127.9 160z"/><path fill="currentColor" d="M64 336C64 291.8 99.8 256 144 256C188.2 256 224 291.8 224 336C224 380.2 188.2 416 144 416C99.8 416 64 380.2 64 336zM0 544C0 491 43 448 96 448L192 448C245 448 288 491 288 544C288 561.7 273.7 576 256 576L32 576C14.3 576 0 561.7 0 544zM260.2 416L608 416L608 448C608 483.3 579.3 512 544 512L333 512C324.2 470.2 297 435.2 260.2 416z"/></svg>