<svg xmlns="http://www.w3.org/2000/svg" viewBox="0 0 640 640"><!--! Font Awesome Pro 7.1.0 by @fontawesome - https://fontawesome.com License - https://fontawesome.com/license (Commercial License) Copyright 2025 Fonticons, Inc. --><path opacity=".4" fill="currentColor" d="M193.3 170.3C191.3 175.2 191.8 180.8 194.7 185.2L209.8 208C245.7 208.4 278.7 220.6 305.2 240.9C312.4 195.1 352.1 160 400 160C453 160 496 203 496 256C496 275 490.5 292.8 480.9 307.7C486.8 318.7 491.1 330.7 493.6 343.4C507.8 348.2 521.1 355.1 533 363.8L595.2 351.2C600.4 350.1 604.7 346.6 606.8 341.7C608.9 336.8 608.3 331.2 605.4 326.8L558.5 256.1L605.4 185.4C608.3 181 608.9 175.4 606.8 170.5C604.7 165.6 600.4 162 595.2 161L512 144L495.2 60.8C494.1 55.6 490.6 51.3 485.7 49.2C480.8 47.1 475.2 47.7 470.8 50.6L400 97.6L329.3 50.7C324.9 47.8 319.3 47.2 314.4 49.3C309.5 51.4 305.9 55.7 304.9 60.9L288 144L204.8 160.8C199.6 161.9 195.3 165.4 193.2 170.3zM354.5 240.7C358.9 240.2 363.5 240 368 240C397.7 240 425 250.1 446.7 267.1C447.5 263.5 448 259.8 448 256C448 229.5 426.5 208 400 208C378.8 208 360.9 221.7 354.5 240.7z"/><path fill="currentColor" d="M32 480C32 533 75 576 128 576L448 576C501 576 544 533 544 480C544 427 501 384 448 384C447.5 384 446.9 384 446.4 384C447.5 378.8 448 373.5 448 368C448 323.8 412.2 288 368 288C343.7 288 321.9 298.9 307.2 316C288.5 280.3 251.1 256 208 256C146.1 256 96 306.1 96 368C96 375.1 96.7 382.1 97.9 388.8C59.6 401.4 32 437.5 32 480z"/></svg>