<svg xmlns="http://www.w3.org/2000/svg" viewBox="0 0 640 640"><!--! Font Awesome Pro 7.1.0 by @fontawesome - https://fontawesome.com License - https://fontawesome.com/license (Commercial License) Copyright 2025 Fonticons, Inc. --><path opacity=".4" fill="currentColor" d="M65.3 170.3C63.3 175.2 63.8 180.8 66.7 185.2L113.6 256L66.7 326.7C63.8 331.1 63.2 336.7 65.3 341.6C67.4 346.5 71.7 350.1 76.9 351.1L133.6 362.6C142.2 334.4 160.2 310.4 184 294.2C178.9 282.5 176.1 269.6 176.1 256C176.1 203 219.1 160 272.1 160C315.3 160 351.8 188.5 363.9 227.7C383.6 215.2 407 208 432.1 208C441.8 208 451.2 209.1 460.3 211.1L477.4 185.3C480.3 180.9 480.9 175.3 478.8 170.4C476.7 165.5 472.4 161.9 467.2 160.9L384 144L367.2 60.8C366.1 55.6 362.6 51.3 357.7 49.2C352.8 47.1 347.2 47.7 342.8 50.6L272 97.6L201.3 50.7C196.9 47.8 191.3 47.2 186.4 49.3C181.5 51.4 177.9 55.7 176.9 60.9L160 144L76.8 160.8C71.6 161.9 67.3 165.4 65.2 170.3zM224 256C224 262.8 225.4 269.2 227.9 275.1C236.9 273.1 246.3 272 256 272C273.6 272 290.4 275.6 305.7 282C308.6 280.7 311.5 279.5 314.5 278.5C318.1 271.8 320.1 264.2 320.1 256C320.1 229.5 298.6 208 272.1 208C245.6 208 224.1 229.5 224.1 256z"/><path fill="currentColor" d="M536 448L518.7 448C507.5 420.4 487 397.6 461.1 383.5C450.1 337.9 409 304 360 304L358.7 304C371 275.7 399.2 256 432 256C467 256 496.8 278.5 507.6 309.8C516.3 306.1 525.9 304 536 304C575.8 304 608 336.2 608 376C608 415.8 575.8 448 536 448zM480 496C480 540.2 444.2 576 400 576L208 576C163.8 576 128 540.2 128 496C128 462.1 149.1 433.1 178.9 421.5C177 414.7 176 407.5 176 400C176 355.8 211.8 320 256 320C286.8 320 313.5 337.4 326.9 362.8C336.2 356 347.6 352 360 352C390.9 352 416 377.1 416 408C416 411.2 415.7 414.4 415.2 417.4C452.1 424.5 480 457 480 496z"/></svg>