<svg xmlns="http://www.w3.org/2000/svg" viewBox="0 0 640 640"><!--! Font Awesome Pro 7.1.0 by @fontawesome - https://fontawesome.com License - https://fontawesome.com/license (Commercial License) Copyright 2025 Fonticons, Inc. --><path opacity=".4" fill="currentColor" d="M13.9 209.8C10.8 217.2 11.7 225.6 16.1 232.3L74.3 320L16.1 407.8C11.7 414.5 10.9 422.9 13.9 430.3C16.9 437.7 23.5 443.1 31.3 444.6L134.5 465.5L155.4 568.7C157 576.5 162.4 583.1 169.7 586.1C177 589.1 185.5 588.3 192.2 583.9L280 525.7L367.8 583.9C374.5 588.3 382.9 589.1 390.3 586.1C397.7 583.1 403.1 576.5 404.6 568.7L414.9 517.6C373.7 504 338.1 477.9 312.8 443.7C302.3 446.5 291.3 447.9 280 447.9C209.3 447.9 152 390.6 152 319.9C152 249.2 209.3 191.9 280 191.9C291.3 191.9 302.3 193.4 312.8 196.1C338.1 162 373.6 135.8 414.9 122.3L404.6 71.3C403 63.5 397.6 57 390.2 53.9C382.8 50.8 374.4 51.7 367.7 56.1L280 114.3L192.2 56.1C185.5 51.7 177.1 50.9 169.7 53.9C162.3 56.9 157 63.5 155.4 71.3L134.6 174.6L31.3 195.4C23.5 197 16.9 202.4 13.9 209.7zM200 320C200 364.2 235.8 400 280 400C282.6 400 285.2 399.9 287.8 399.6C277.6 375.1 272 348.2 272 320C272 291.8 277.6 264.9 287.8 240.4C285.2 240.2 282.6 240 280 240C235.8 240 200 275.8 200 320z"/><path fill="currentColor" d="M320 320C320 231.6 391.6 160 480 160C568.4 160 640 231.6 640 320C640 408.4 568.4 480 480 480C391.6 480 320 408.4 320 320z"/></svg>