<svg xmlns="http://www.w3.org/2000/svg" viewBox="0 0 640 640"><!--! Font Awesome Pro 7.1.0 by @fontawesome - https://fontawesome.com License - https://fontawesome.com/license (Commercial License) Copyright 2025 Fonticons, Inc. --><path opacity=".4" fill="currentColor" d="M54.3 209.8C51.2 217.2 52.1 225.6 56.5 232.3L114.7 320L56.5 407.8C52.1 414.5 51.3 422.9 54.3 430.3C57.3 437.7 63.9 443.1 71.7 444.6L175 465.4L195.9 568.7C197.5 576.5 202.9 583.1 210.2 586.1C217.5 589.1 226 588.3 232.7 583.9L320.5 525.7L408.3 583.9C415 588.3 423.4 589.1 430.8 586.1C438.2 583.1 443.6 576.5 445.1 568.7L466 465.5L569.2 444.6C577 443 583.6 437.6 586.6 430.3C589.6 423 588.8 414.5 584.4 407.8L526.2 320L584.4 232.2C588.8 225.5 589.6 217.1 586.6 209.7C583.6 202.3 577 196.9 569.2 195.4L465.8 174.6L445 71.3C443.4 63.5 438 57 430.6 53.9C423.2 50.8 414.8 51.7 408.1 56.1L320.4 114.3L232.6 56.1C225.9 51.7 217.5 50.9 210.1 53.9C202.7 56.9 197.4 63.5 195.9 71.3L175 174.6L71.7 195.4C63.9 197 57.3 202.4 54.3 209.7zM463.6 320C463.6 399.3 399.3 463.6 320 463.6C240.7 463.6 176.4 399.3 176.4 320C176.4 240.7 240.7 176.4 320 176.4C399.3 176.4 463.6 240.7 463.6 320z"/><path fill="currentColor" d="M320.4 224C267.4 224 224.4 267 224.4 320C224.4 373 267.4 416 320.4 416C348 416 372.8 404.4 390.3 385.8C394.3 381.5 395.7 375.4 393.8 369.8C391.9 364.2 387.2 360.1 381.4 359.1C351.3 353.9 328.4 327.6 328.4 296C328.4 279 335 263.6 345.8 252.1C349.8 247.8 351.2 241.7 349.3 236.1C347.4 230.5 342.7 226.4 336.9 225.4C331.5 224.5 326 224 320.4 224z"/></svg>