<svg xmlns="http://www.w3.org/2000/svg" viewBox="0 0 640 640"><!--! Font Awesome Pro 7.1.0 by @fontawesome - https://fontawesome.com License - https://fontawesome.com/license (Commercial License) Copyright 2025 Fonticons, Inc. --><path opacity=".4" fill="currentColor" d="M54.3 209.8C51.2 217.2 52.1 225.6 56.5 232.3L114.7 320L56.5 407.8C52.1 414.5 51.3 422.9 54.3 430.3C57.3 437.7 63.9 443.1 71.7 444.6L161.6 462.8L222.2 402.2C203.6 380 192.4 351.3 192.4 320C192.4 249.3 249.7 192 320.4 192C351.7 192 380.3 203.2 402.6 221.8L463.1 161.3L445 71.3C443.4 63.5 438 57 430.6 53.9C423.2 50.8 414.8 51.7 408.1 56.1L320.4 114.3L232.6 56.1C225.9 51.7 217.5 50.9 210.1 53.9C202.7 56.9 197.4 63.5 195.9 71.3L175 174.6L71.7 195.4C63.9 197 57.3 202.4 54.3 209.7zM240.4 320C240.4 338 246.4 354.6 256.4 368L368.4 256C355 246 338.4 240 320.4 240C276.2 240 240.4 275.8 240.4 320z"/><path fill="currentColor" d="M544.4 256C562.1 256 576.4 241.7 576.4 224C576.4 206.3 562.1 192 544.4 192C526.7 192 512.4 206.3 512.4 224C512.4 241.7 526.7 256 544.4 256zM464.4 336C482.1 336 496.4 321.7 496.4 304C496.4 286.3 482.1 272 464.4 272C446.7 272 432.4 286.3 432.4 304C432.4 321.7 446.7 336 464.4 336zM576.4 384C576.4 366.3 562.1 352 544.4 352C526.7 352 512.4 366.3 512.4 384C512.4 401.7 526.7 416 544.4 416C562.1 416 576.4 401.7 576.4 384zM336.4 464C336.4 446.3 322.1 432 304.4 432C286.7 432 272.4 446.3 272.4 464C272.4 481.7 286.7 496 304.4 496C322.1 496 336.4 481.7 336.4 464zM256.4 544C256.4 526.3 242.1 512 224.4 512C206.7 512 192.4 526.3 192.4 544C192.4 561.7 206.7 576 224.4 576C242.1 576 256.4 561.7 256.4 544zM384.4 576C402.1 576 416.4 561.7 416.4 544C416.4 526.3 402.1 512 384.4 512C366.7 512 352.4 526.3 352.4 544C352.4 561.7 366.7 576 384.4 576zM576.4 544C576.4 526.3 562.1 512 544.4 512C526.7 512 512.4 526.3 512.4 544C512.4 561.7 526.7 576 544.4 576C562.1 576 576.4 561.7 576.4 544zM464.4 496C482.1 496 496.4 481.7 496.4 464C496.4 446.3 482.1 432 464.4 432C446.7 432 432.4 446.3 432.4 464C432.4 481.7 446.7 496 464.4 496zM416.4 384C416.4 366.3 402.1 352 384.4 352C366.7 352 352.4 366.3 352.4 384C352.4 401.7 366.7 416 384.4 416C402.1 416 416.4 401.7 416.4 384z"/></svg>