<svg xmlns="http://www.w3.org/2000/svg" viewBox="0 0 640 640"><!--! Font Awesome Pro 7.1.0 by @fontawesome - https://fontawesome.com License - https://fontawesome.com/license (Commercial License) Copyright 2025 Fonticons, Inc. --><path opacity=".4" fill="currentColor" d="M53.9 209.8C50.8 217.2 51.7 225.6 56.1 232.3L114.3 320.1L71.8 384.1L209.1 384.1C198.2 365.3 192 343.4 192 320.1C192 249.4 249.3 192.1 320 192.1C390.7 192.1 448 249.4 448 320.1C448 343.4 441.8 365.3 430.9 384.1L568.2 384.1L525.7 320.1L583.9 232.3C588.3 225.6 589.1 217.2 586.1 209.8C583.1 202.4 576.5 197 568.7 195.5L465.4 174.6L444.6 71.3C443 63.5 437.6 57 430.2 53.9C422.8 50.8 414.4 51.7 407.7 56.1L320 114.3L232.2 56.1C225.5 51.7 217.1 50.9 209.7 53.9C202.3 56.9 197 63.5 195.4 71.3L174.6 174.6L71.3 195.4C63.5 197 56.9 202.4 53.9 209.7zM240 320C240 346.2 252.6 369.4 272 384L368 384C387.4 369.4 400 346.2 400 320C400 275.8 364.2 240 320 240C275.8 240 240 275.8 240 320z"/><path fill="currentColor" d="M520 432C533.3 432 544 442.7 544 456C544 469.3 533.3 480 520 480L56 480C42.7 480 32 469.3 32 456C32 442.7 42.7 432 56 432L520 432zM120 528L200 528C213.3 528 224 538.7 224 552C224 565.3 213.3 576 200 576L120 576C106.7 576 96 565.3 96 552C96 538.7 106.7 528 120 528zM296 528L584 528C597.3 528 608 538.7 608 552C608 565.3 597.3 576 584 576L296 576C282.7 576 272 565.3 272 552C272 538.7 282.7 528 296 528z"/></svg>