<svg xmlns="http://www.w3.org/2000/svg" viewBox="0 0 640 640"><!--! Font Awesome Pro 7.1.0 by @fontawesome - https://fontawesome.com License - https://fontawesome.com/license (Commercial License) Copyright 2025 Fonticons, Inc. --><path opacity=".4" fill="currentColor" d="M53.9 209.8C50.8 217.2 51.7 225.6 56.1 232.3L114.3 320.1L56.1 407.9C51.7 414.6 50.9 423 53.9 430.4C56.9 437.8 63.5 443.2 71.3 444.7L174.5 465.6L195.4 568.8C197 576.6 202.4 583.2 209.7 586.2C217 589.2 225.5 588.4 232.2 584L273.7 556.5C272.6 549.9 272 543.1 272 536.1C272 501.2 286.9 469.7 310.8 447.8C244.4 443.1 192 387.7 192 320.1C192 249.4 249.3 192.1 320 192.1C390.7 192.1 448 249.4 448 320.1C448 344.6 441.1 367.4 429.2 386.9C448.6 375 471.5 368.1 496 368.1C526.4 368.1 554.4 378.7 576.3 396.4L525.6 320.1L583.8 232.3C588.2 225.6 589 217.2 586 209.8C583 202.4 576.4 197 568.6 195.5L465.4 174.6L444.6 71.3C443 63.5 437.6 57 430.2 53.9C422.8 50.8 414.4 51.7 407.7 56.1L320 114.3L232.2 56.1C225.5 51.7 217.1 50.9 209.7 53.9C202.3 56.9 197 63.5 195.4 71.3L174.6 174.6L71.3 195.4C63.5 197 56.9 202.4 53.9 209.7zM240 320C240 364.2 275.8 400 320 400C364.2 400 400 364.2 400 320C400 275.8 364.2 240 320 240C275.8 240 240 275.8 240 320z"/><path fill="currentColor" d="M640 544C640 579.3 611.3 608 576 608L392 608C352.2 608 320 575.8 320 536C320 496.2 352.2 464 392 464C402.1 464 411.7 466.1 420.4 469.8C431.2 438.5 461 416 496 416C534.7 416 567 443.5 574.4 480C574.9 480 575.5 480 576 480C611.3 480 640 508.7 640 544z"/></svg>