<svg xmlns="http://www.w3.org/2000/svg" viewBox="0 0 640 640"><!--! Font Awesome Pro 7.1.0 by @fontawesome - https://fontawesome.com License - https://fontawesome.com/license (Commercial License) Copyright 2025 Fonticons, Inc. --><path opacity=".4" fill="currentColor" d="M54.3 417.8C51.2 425.2 52.1 433.6 56.5 440.3L114.7 528C140.6 528 166.5 528 192.4 528C192.4 457.3 249.7 400 320.4 400C391.1 400 448.4 457.3 448.4 528C474.3 528 500.2 528 526.1 528C545.5 498.7 564.9 469.5 584.3 440.2C588.7 433.5 589.5 425.1 586.5 417.7C583.5 410.3 576.9 404.9 569.1 403.4L465.8 382.6L445 279.3C443.4 271.5 438 264.9 430.7 261.9C423.4 258.9 414.9 259.7 408.2 264.1L320.4 322.3L232.6 264.1C225.9 259.7 217.5 258.9 210.1 261.9C202.7 264.9 197.3 271.5 195.8 279.3L175 382.6L71.7 403.4C63.9 405 57.3 410.4 54.3 417.7zM240.4 528C293.7 528 347.1 528 400.4 528C400.4 483.8 364.6 448 320.4 448C276.2 448 240.4 483.8 240.4 528z"/><path fill="currentColor" d="M401.4 185L337.4 249C328 258.4 312.8 258.4 303.5 249L239.5 185C230.1 175.6 230.1 160.4 239.5 151.1C248.9 141.8 264.1 141.7 273.4 151.1L296.4 174.1L296.4 72C296.4 58.7 307.1 48 320.4 48C333.7 48 344.4 58.7 344.4 72L344.4 174.1L367.4 151.1C376.8 141.7 392 141.7 401.3 151.1C410.6 160.5 410.7 175.7 401.3 185zM88.4 528L552.4 528C565.7 528 576.4 538.7 576.4 552C576.4 565.3 565.7 576 552.4 576L88.4 576C75.1 576 64.4 565.3 64.4 552C64.4 538.7 75.1 528 88.4 528z"/></svg>