<svg xmlns="http://www.w3.org/2000/svg" viewBox="0 0 640 640"><!--! Font Awesome Pro 7.1.0 by @fontawesome - https://fontawesome.com License - https://fontawesome.com/license (Commercial License) Copyright 2025 Fonticons, Inc. --><path opacity=".4" fill="currentColor" d="M97 504.2L103.1 480L169.1 480L159.2 519.8C154.9 536.9 137.5 547.4 120.4 543.1C103.3 538.8 92.7 521.4 97 504.2zM119 416L135 352L201 352L185 416L119 416zM151 288L167 224L233 224L217 288L151 288zM183 160L193 120.2C197.3 103.1 214.7 92.6 231.8 96.9C248.9 101.2 259.3 118.6 255 135.8L249 160L183 160zM385 135.8C380.7 118.7 391.1 101.3 408.3 97C425.5 92.7 442.8 103.1 447.1 120.3L457 160L391 160L385 135.8zM407 224L473 224L489 288L423 288L407 224zM439 352L505 352L521 416L455 416L439 352zM471 480L537 480L543.1 504.2C547.4 521.3 537 538.7 519.8 543C502.6 547.3 485.3 536.9 481 519.7L471 480z"/><path fill="currentColor" d="M160 160L480 160C497.7 160 512 174.3 512 192C512 209.7 497.7 224 480 224L160 224C142.3 224 128 209.7 128 192C128 174.3 142.3 160 160 160zM96 320C96 302.3 110.3 288 128 288L512 288C529.7 288 544 302.3 544 320C544 337.7 529.7 352 512 352L128 352C110.3 352 96 337.7 96 320zM64 448C64 430.3 78.3 416 96 416L544 416C561.7 416 576 430.3 576 448C576 465.7 561.7 480 544 480L96 480C78.3 480 64 465.7 64 448z"/></svg>