<svg xmlns="http://www.w3.org/2000/svg" viewBox="0 0 640 640"><!--! Font Awesome Pro 7.1.0 by @fontawesome - https://fontawesome.com License - https://fontawesome.com/license (Commercial License) Copyright 2025 Fonticons, Inc. --><path opacity=".4" fill="currentColor" d="M48 546.3C48 562.7 61.3 576 77.7 576L434.3 576C450.7 576 464 562.7 464 546.3C464 447.8 384.2 368 285.7 368L226.3 368C127.8 368 48 447.8 48 546.3zM136 192C136 258.3 189.7 312 256 312C322.3 312 376 258.3 376 192C376 125.7 322.3 72 256 72C189.7 72 136 125.7 136 192z"/><path fill="currentColor" d="M568 184C568 170.7 557.3 160 544 160C530.7 160 520 170.7 520 184L520 232L472 232C458.7 232 448 242.7 448 256C448 269.3 458.7 280 472 280L520 280L520 328C520 341.3 530.7 352 544 352C557.3 352 568 341.3 568 328L568 280L616 280C629.3 280 640 269.3 640 256C640 242.7 629.3 232 616 232L568 232L568 184z"/></svg>