<svg xmlns="http://www.w3.org/2000/svg" viewBox="0 0 640 640"><!--! Font Awesome Pro 7.1.0 by @fontawesome - https://fontawesome.com License - https://fontawesome.com/license (Commercial License) Copyright 2025 Fonticons, Inc. --><path opacity=".4" fill="currentColor" d="M48.4 546.3C48.4 562.7 61.7 576 78.1 576L434.7 576C451.1 576 464.4 562.7 464.4 546.3C464.4 447.8 384.6 368 286.1 368L226.7 368C128.2 368 48.4 447.8 48.4 546.3zM136.4 192C136.4 258.3 190.1 312 256.4 312C322.7 312 376.4 258.3 376.4 192C376.4 125.7 322.7 72 256.4 72C190.1 72 136.4 125.7 136.4 192z"/><path fill="currentColor" d="M612.3 222.1C621.7 212.7 621.7 197.5 612.3 188.2C602.9 178.9 587.7 178.8 578.4 188.2L544.5 222.1L510.6 188.2C501.2 178.8 486 178.8 476.7 188.2C467.4 197.6 467.3 212.8 476.7 222.1L510.6 256L476.7 289.9C467.3 299.3 467.3 314.5 476.7 323.8C486.1 333.1 501.3 333.2 510.6 323.8L544.5 289.9L578.4 323.8C587.8 333.2 603 333.2 612.3 323.8C621.6 314.4 621.7 299.2 612.3 289.9L578.4 256L612.3 222.1z"/></svg>