<svg xmlns="http://www.w3.org/2000/svg" viewBox="0 0 640 640"><!--! Font Awesome Pro 7.1.0 by @fontawesome - https://fontawesome.com License - https://fontawesome.com/license (Commercial License) Copyright 2025 Fonticons, Inc. --><path opacity=".4" fill="currentColor" d="M48 546.3C48 562.7 61.3 576 77.7 576L434.3 576C450.7 576 464 562.7 464 546.3C464 447.8 384.2 368 285.7 368L226.3 368C127.8 368 48 447.8 48 546.3zM136 192C136 258.3 189.7 312 256 312C322.3 312 376 258.3 376 192C376 125.7 322.3 72 256 72C189.7 72 136 125.7 136 192z"/><path fill="currentColor" d="M448 256C448 242.7 458.7 232 472 232L616 232C629.3 232 640 242.7 640 256C640 269.3 629.3 280 616 280L472 280C458.7 280 448 269.3 448 256z"/></svg>