<svg xmlns="http://www.w3.org/2000/svg" viewBox="0 0 640 640"><!--! Font Awesome Pro 7.1.0 by @fontawesome - https://fontawesome.com License - https://fontawesome.com/license (Commercial License) Copyright 2025 Fonticons, Inc. --><path fill="currentColor" d="M495.6 60.8L490.9 37.6C486.2 40.7 456.1 60.7 400.4 97.6C344.8 60.7 314.6 40.7 309.9 37.6C308.8 43.1 301.6 78.6 288.4 144C223 157.2 187.5 164.4 182 165.5C190.4 178.2 199.8 192.4 210.3 208.1C212.3 208 214.4 208 216.5 208C249.8 208 280.9 217.7 306.9 234.4C316.7 191.8 354.9 160 400.5 160C453.5 160 496.5 203 496.5 256C496.5 273.2 492 289.4 484 303.4C490.4 312.3 495.9 322 500.3 332.2C516.9 339.3 531.9 349.2 544.8 361.4C583.3 353.6 608 348.6 618.9 346.4C615.8 341.7 595.8 311.5 558.9 255.9C595.8 200.3 615.8 170.1 618.9 165.4C613.4 164.3 577.9 157.1 512.5 143.9L495.6 60.8zM360.4 240C392.6 240 422.5 250 447.1 267.1C447.9 263.5 448.4 259.8 448.4 256C448.4 229.5 426.9 208 400.4 208C379.5 208 361.7 221.4 355.1 240.1C356.9 240 358.6 240 360.4 240zM144.4 376C144.4 336.2 176.6 304 216.4 304C245.3 304 270.3 321.1 281.8 345.8L296.3 377.1L320.6 352.6C330.8 342.3 344.8 336 360.4 336C391.3 336 416.4 361.1 416.4 392L416.4 416L440.4 416C471.3 416 496.4 441.1 496.4 472L496.4 528L80.4 528L80.4 472C80.4 444.9 99.6 422.3 125.2 417.1L144.4 413.2L144.4 376zM216.4 256C150.1 256 96.4 309.7 96.4 376C58.8 391.7 32.4 428.7 32.4 472L32.4 576L544.4 576L544.4 472C544.4 422 509.1 380.3 462.1 370.3C452.1 323.3 410.4 288 360.4 288C342.1 288 325 292.7 310.1 301C288.1 273.6 254.4 256 216.4 256z"/></svg>