<svg xmlns="http://www.w3.org/2000/svg" viewBox="0 0 640 640"><!--! Font Awesome Pro 7.1.0 by @fontawesome - https://fontawesome.com License - https://fontawesome.com/license (Commercial License) Copyright 2025 Fonticons, Inc. --><path fill="currentColor" d="M362.5 37.6C363.6 43.1 370.8 78.6 384 144C449.4 157.2 484.9 164.4 490.4 165.5C482.3 177.7 472.2 192.9 460.2 211.1C451.1 209.1 441.7 208 432 208C406.9 208 383.5 215.2 363.8 227.7C351.7 188.5 315.2 160 272 160C219 160 176 203 176 256C176 269.6 178.8 282.5 183.9 294.2C160.1 310.4 142.1 334.5 133.5 362.6C90.1 353.8 63.5 348.4 53.5 346.4C56.6 341.7 76.6 311.5 113.5 255.9C76.6 200.3 56.6 170.1 53.5 165.4C59 164.3 94.5 157.1 159.9 143.9C173.1 78.5 180.3 43 181.4 37.5C186.1 40.6 216.3 60.6 271.9 97.5C327.5 60.6 357.7 40.6 362.4 37.5zM305.7 282C290.4 275.6 273.7 272 256 272C246.4 272 237 273.1 227.9 275.1C225.4 269.3 224 262.8 224 256C224 229.5 245.5 208 272 208C298.5 208 320 229.5 320 256C320 264.1 318 271.8 314.4 278.5C311.4 279.6 308.5 280.7 305.6 282zM320 352L344 352C381.6 352 412.4 380.8 415.7 417.5C452.4 424.8 480 457.2 480 496L480 576L128 576L128 488C128 453.8 147.5 424.2 176 409.6L176 400C176 355.8 211.8 320 256 320C282.2 320 305.4 332.6 320 352zM256 368C238.3 368 224 382.3 224 400L224 444.6L206 449.2C188.7 453.6 176 469.3 176 487.9L176 527.9L432 527.9L432 495.9C432 478.2 417.7 463.9 400 463.9L368 463.9L368 423.9C368 410.6 357.3 399.9 344 399.9L291.4 399.9L284.9 386.2C279.8 375.4 268.7 368 256 368zM432 256C458.2 256 481.4 268.6 496 288L528 288C572.2 288 608 323.8 608 368L608 448L518.7 448C511.2 429.4 499.4 413 484.7 400L560 400L560 368C560 350.3 545.7 336 528 336L467.4 336L460.9 322.3C455.7 311.4 444.7 304 432 304C420.1 304 409.7 310.5 404.2 320.2C390.4 312.2 374.9 306.8 358.3 304.9C370.4 276.2 398.9 256.1 432 256.1z"/></svg>