<svg xmlns="http://www.w3.org/2000/svg" viewBox="0 0 640 640"><!--! Font Awesome Pro 7.1.0 by @fontawesome - https://fontawesome.com License - https://fontawesome.com/license (Commercial License) Copyright 2025 Fonticons, Inc. --><path fill="currentColor" d="M235.5 63.5L205.8 43.8C203.3 56.3 194.2 101.2 178.6 178.4C101.4 194 56.5 203.1 44 205.6C51.1 216.2 76.4 254.4 119.9 320C76.4 385.6 51.1 423.8 44 434.4C56.5 436.9 101.4 446 178.6 461.6C194.2 538.8 203.3 583.7 205.8 596.2C216.4 589.1 254.6 563.8 320.2 520.3C385.8 563.8 424 589.1 434.6 596.2C437.1 583.7 446.2 538.8 461.8 461.6C539 446 583.9 436.9 596.4 434.4C589.3 423.8 564 385.6 520.5 320C564 254.4 589.3 216.2 596.4 205.6C583.9 203.1 539 194 461.8 178.4C446.2 101.2 437.1 56.3 434.6 43.8C424 50.9 385.8 76.2 320.2 119.7L235.5 63.5zM222.4 203.5L238.6 123.2L306.8 168.5L320.1 177.3L333.4 168.5L401.6 123.2L417.8 203.5L421 219.1L436.6 222.3L516.9 238.5L471.6 306.7L462.8 320L471.6 333.3L516.9 401.5L436.6 417.7L421 420.9L417.8 436.5L401.6 516.8L333.4 471.5L320.1 462.7L306.8 471.5L238.6 516.8L222.4 436.5L219.2 420.9L203.6 417.7L123.3 401.5L168.6 333.3L177.4 320L168.6 306.7L123.3 238.5L203.6 222.3L219.2 219.1L222.4 203.5zM320.2 296C320.2 268.2 335.9 244.1 358.9 232.1C347.1 226.9 334 224 320.2 224C267.2 224 224.2 267 224.2 320C224.2 373 267.2 416 320.2 416C356.1 416 387.4 396.3 403.9 367.1C400.1 367.7 396.2 368 392.2 368C352.4 368 320.2 335.8 320.2 296z"/></svg>