<svg xmlns="http://www.w3.org/2000/svg" viewBox="0 0 640 640"><!--! Font Awesome Pro 7.1.0 by @fontawesome - https://fontawesome.com License - https://fontawesome.com/license (Commercial License) Copyright 2025 Fonticons, Inc. --><path fill="currentColor" d="M235.3 63.5L205.6 43.8C203 56.3 194 101.2 178.4 178.3C101.1 194 56.3 203 43.8 205.6C50.8 216.2 76.1 254.4 119.7 320L77.2 384L134.8 384C161.4 343.9 175.5 322.6 177.3 320L168.5 306.7L123.2 238.5L203.5 222.3L219.1 219.1L222.3 203.5L238.5 123.2L306.7 168.5L320 177.3L333.3 168.5L401.5 123.2L417.7 203.5L420.9 219.1L436.5 222.3L516.8 238.5L471.5 306.7L462.7 320C464.4 322.6 478.6 343.9 505.2 384L562.8 384L520.3 320C563.8 254.4 589.1 216.2 596.2 205.6C583.7 203.1 538.8 194 461.6 178.4C446 101.2 436.9 56.3 434.4 43.8C423.8 50.9 385.6 76.2 320 119.7L235.3 63.5zM224 320C224 344.6 233.2 367 248.5 384L391.6 384C406.8 367 416.1 344.6 416.1 320C416.1 267 373.1 224 320.1 224C267.1 224 224.1 267 224.1 320zM272 320C272 293.5 293.5 272 320 272C346.5 272 368 293.5 368 320C368 346.5 346.5 368 320 368C293.5 368 272 346.5 272 320zM544 432L32 432L32 480L544 480L544 432zM96 528L96 576L224 576L224 528L96 528zM272 528L272 576L608 576L608 528L272 528z"/></svg>