<svg xmlns="http://www.w3.org/2000/svg" viewBox="0 0 640 640"><!--! Font Awesome Pro 7.1.0 by @fontawesome - https://fontawesome.com License - https://fontawesome.com/license (Commercial License) Copyright 2025 Fonticons, Inc. --><path fill="currentColor" d="M235.5 63.5L205.8 43.8C203.3 56.3 194.2 101.2 178.6 178.4C101.4 194 56.5 203.1 44 205.6C51.1 216.2 76.4 254.4 119.9 320C76.4 385.6 51.1 423.8 44 434.4C56.5 436.9 101.4 446 178.6 461.6C194.2 538.8 203.3 583.7 205.8 596.2C216.4 589.1 254.6 563.8 320.2 520.3C385.8 563.8 424 589.1 434.6 596.2C437.1 583.7 446.2 538.8 461.8 461.6C539 446 583.9 436.9 596.4 434.4C589.3 423.8 564 385.6 520.5 320C564 254.4 589.3 216.2 596.4 205.6C583.9 203.1 539 194 461.8 178.4C446.2 101.2 437.1 56.3 434.6 43.8C424 50.9 385.8 76.2 320.2 119.7L235.5 63.5zM222.4 203.5L238.6 123.2L306.8 168.5L320.1 177.3L333.4 168.5L401.6 123.2L417.8 203.5L421 219.1L436.6 222.3L516.9 238.5L471.6 306.7L462.8 320L471.6 333.3L516.9 401.5L436.6 417.7L421 420.9L417.8 436.5L401.6 516.8L333.4 471.5L320.1 462.7L306.8 471.5L238.6 516.8L222.4 436.5L219.2 420.9L203.6 417.7L123.3 401.5L168.6 333.3L177.4 320L168.6 306.7L123.3 238.5L203.6 222.3L219.2 219.1L222.4 203.5zM271.8 320C271.8 293.4 293.4 271.8 320.1 271.8C346.7 271.8 368.3 293.4 368.3 320C368.3 346.6 346.7 368.3 320.1 368.3C293.4 368.3 271.8 346.6 271.8 320zM416.3 320C416.3 266.8 373.2 223.8 320.1 223.8C266.9 223.8 223.8 266.8 223.8 320C223.8 373.2 266.9 416.3 320.1 416.3C373.2 416.3 416.3 373.2 416.3 320z"/></svg>