<svg xmlns="http://www.w3.org/2000/svg" viewBox="0 0 640 640"><!--! Font Awesome Pro 7.1.0 by @fontawesome - https://fontawesome.com License - https://fontawesome.com/license (Commercial License) Copyright 2025 Fonticons, Inc. --><path fill="currentColor" d="M337.2 55C387.7 105.5 414.7 132.5 418.2 136L384.3 169.9C374 159.6 360.7 146.3 344.3 129.9L344.3 256L296.3 256L296.3 129.9C279.9 146.3 266.6 159.6 256.3 169.9L222.3 136C225.8 132.5 252.8 105.5 303.3 55L320.3 38L337.3 55zM205.8 251.8C216.4 258.9 254.6 284.2 320.2 327.7C385.8 284.2 424 258.9 434.6 251.8C437.1 264.3 446.2 309.2 461.8 386.4C539 402 583.9 411.1 596.4 413.6C584 432.2 569.3 454.4 552.3 480L494.7 480L516.9 446.5L436.6 430.3L421 427.1L417.8 411.5L401.6 331.2L333.4 376.5L320.1 385.3L306.8 376.5L238.6 331.2L222.4 411.5L219.2 427.1L203.6 430.3L123.3 446.5L145.5 480L87.9 480C70.9 454.4 56.2 432.2 43.8 413.6C56.3 411.1 101.2 402 178.4 386.4C194 309.2 203.1 264.3 205.6 251.8zM403.4 480L321.1 480L320.2 480L319.3 480L237 480C253.6 451.3 284.6 432 320.2 432C355.8 432 386.8 451.3 403.4 480zM64.2 528L576.2 528L576.2 576L64.2 576L64.2 528z"/></svg>