<svg xmlns="http://www.w3.org/2000/svg" viewBox="0 0 640 640"><!--! Font Awesome Pro 7.1.0 by @fontawesome - https://fontawesome.com License - https://fontawesome.com/license (Commercial License) Copyright 2025 Fonticons, Inc. --><path fill="currentColor" d="M256.4 272C300.6 272 336.4 236.2 336.4 192C336.4 147.8 300.6 112 256.4 112C212.2 112 176.4 147.8 176.4 192C176.4 236.2 212.2 272 256.4 272zM131.8 416L82.6 576L32.4 576L96.4 368L416.4 368L480.4 576L430.2 576L381 416L131.9 416zM128.3 192C128.3 121.3 185.6 64 256.3 64C327 64 384.3 121.3 384.3 192C384.3 262.7 327 320 256.3 320C185.6 320 128.3 262.7 128.3 192zM629.2 205.1C620.7 213.6 603.7 230.6 578.3 256C603.8 281.5 620.7 298.4 629.2 306.9L595.3 340.8L544.4 289.9C518.9 315.4 502 332.3 493.5 340.8L459.6 306.9C468.1 298.4 485.1 281.4 510.5 256C485 230.5 468.1 213.6 459.6 205.1L493.5 171.2C502 179.7 519 196.7 544.4 222.1C569.9 196.6 586.8 179.7 595.3 171.2L629.2 205.1z"/></svg>