<svg xmlns="http://www.w3.org/2000/svg" viewBox="0 0 640 640"><!--! Font Awesome Pro 7.1.0 by @fontawesome - https://fontawesome.com License - https://fontawesome.com/license (Commercial License) Copyright 2025 Fonticons, Inc. --><path fill="currentColor" d="M256 272C300.2 272 336 236.2 336 192C336 147.8 300.2 112 256 112C211.8 112 176 147.8 176 192C176 236.2 211.8 272 256 272zM131.5 416L82.3 576L32.1 576L96.1 368L416.1 368L480.1 576L429.9 576L380.7 416L131.6 416zM128 192C128 121.3 185.3 64 256 64C326.7 64 384 121.3 384 192C384 262.7 326.7 320 256 320C185.3 320 128 262.7 128 192zM520 352L520 280L448 280L448 232L520 232L520 160L568 160L568 232L640 232L640 280L568 280L568 352L520 352z"/></svg>